<?xml version="1.0" encoding="utf-8"?>
<svg id="BackgroundSVG" viewBox="0 0 400 400" xmlns="http://www.w3.org/2000/svg">
    <defs>
        <path id="c" stroke="#000" stroke-width="6" stroke-linecap="round" d="M-32,0h64M0,-32v64" />
        <path id="c2" stroke-width="6" stroke-linecap="round" d="M-32,0h64M0,-32v64" />
        <path id="h" d="M-28,0h56" stroke="#c1a37f" stroke-width="16" stroke-linecap="round"/>
        <path id="v" d="M0,-28v56" stroke="#c1a37f" stroke-width="16" stroke-linecap="round"/>
    </defs>
    <rect x="0" y="0" width="400" height="400" rx="40" ry="40" fill="#48392e"/><use href="#c" x="50" y="50"/><use href="#c" x="50" y="150"/><use href="#c" x="50" y="250"/><use href="#c" x="50" y="350"/><use href="#c" x="150" y="50"/><use href="#c" x="150" y="150"/><use href="#c" x="150" y="250"/><use href="#c" x="150" y="350"/><use href="#c" x="250" y="50"/><use href="#c" x="250" y="150"/><use href="#c" x="250" y="250"/><use href="#c" x="250" y="350"/><use href="#c" x="350" y="50"/><use href="#c" x="350" y="150"/><use href="#c" x="350" y="250"/><use href="#c" x="350" y="350"/><use href="#h" x="150" y="50"/><use href="#v" x="250" y="50"/><use href="#h" x="350" y="50"/><use href="#v" x="50" y="150"/><use href="#v" x="150" y="150"/><use href="#h" x="250" y="150"/><use href="#h" x="50" y="250"/><use href="#v" x="150" y="250"/><use href="#v" x="250" y="250"/><use href="#v" x="350" y="250"/><use href="#h" x="50" y="350"/><use href="#v" x="250" y="350"/>
</svg>