<?xml version="1.0" encoding="utf-8"?>
<svg xmlns="http://www.w3.org/2000/svg" viewBox="0 0 100 100">
<defs>
    <radialGradient id="rg1" cx="-107.6189" cy="-90.5162" r="10" fx="-109.6206" fy="-92.5178"
        gradientTransform="matrix(1 0 0 1 159.5 142.5)" gradientUnits="userSpaceOnUse">
        <stop offset="0" stop-color="#000" />
        <stop offset="1" stop-color="#000" stop-opacity="0" />
    </radialGradient>
    <radialGradient id="rg2" cx="-109.6189" cy="-92.5162" r="10" fx="-114.623" fy="-97.5203"
        gradientTransform="matrix(1 0 0 1 159.5 142.5)" gradientUnits="userSpaceOnUse">
        <stop offset="0" stop-color="#888888" />
        <stop offset="0.5" stop-color="#5B5B5B" />
        <stop offset="1" stop-color="#000000" />
    </radialGradient>
    <radialGradient id="rg3" cx="-107.5" cy="190.5449" r="10" fx="-109.5" fy="188.55"
        gradientTransform="matrix(1 0 0 -1 159.5 242.5)" gradientUnits="userSpaceOnUse">
        <stop offset="0" stop-color="#000000" />
        <stop offset="1" stop-color="#000000" stop-opacity="0" />
    </radialGradient>
    <radialGradient id="rg4" cx="-109.5" cy="192.55" r="10" fx="-114.5" fy="187.55"
        gradientTransform="matrix(0 1 1 0 -142.5 159.5)" gradientUnits="userSpaceOnUse">
        <stop offset="0" stop-color="#FFFFFF" />
        <stop offset="0.5" stop-color="#DDDDDD" />
        <stop offset="1" stop-color="#999999" />
    </radialGradient>
    <g id="b" transform="scale(0.6) translate(-50 -50)">
        <path fill="url(#rg1)" d="M61.9,52c0,5.5-4.5,10-10,10s-10-4.5-10-10s4.5-10,10-10S61.9,46.5,61.9,52z" />
        <path fill="url(#rg2)" d="M59.9,50c0,5.5-4.5,10-10,10s-10-4.5-10-10s4.5-10,10-10S59.9,44.5,59.9,50z" />
    </g>
    <g id="w" transform="scale(0.6) translate(-50 -50)">
        <path fill="url(#rg3)" d="M61.9,52c0,5.5-4.5,10-10,10s-10-4.5-10-10s4.5-10,10-10S61.9,46.5,61.9,52z" />
        <path fill="url(#rg4)" d="M59.9,50c0,5.5-4.5,10-10,10s-10-4.5-10-10s4.5-10,10-10S59.9,44.5,59.9,50z" />
    </g>
    <g id="h">
        <use href="#b" x="10" y="10"/>
        <use href="#w" x="30" y="10"/>
        <use href="#b" x="50" y="10"/>
        <use href="#w" x="70" y="10"/>
    </g>
</defs>
<path d="M0,0h100v100h-100z" fill="#b3a68e"/>
<path d="M10,10h80M10,30h80M10,50h80M10,70h80M10,90h80M10,10v80M30,10v80M50,10v80M70,10v80M90,10v80" stroke="black" stroke-linecap="round"/>
<use href="#h" x="0" y="0"/><use href="#h" x="20" y="20"/><use href="#h" x="0" y="80"/><use href="#b" x="90" y="10"/><use href="#w" x="10" y="30"/><use href="#b" x="10" y="50"/>
<use href="#w" x="30" y="50"/>
<use href="#w" x="70" y="50">
    <animate attributeName="x" values="70;70;70;70;70;70;70;50;50;50;50;50;50;50;50;50;50;50;50;50" dur="4.5s" repeatCount="indefinite" />
</use>
<use href="#b" x="90" y="50">
    <animate attributeName="y" values="50;50;50;50;50;50;50;50;50;50;50;50;50;70;70;70;70;70;70;70;" dur="4.5s" repeatCount="indefinite" />
</use>
<use href="#w" x="10" y="70"/><use href="#b" x="90" y="90"/>
<use href="#b" x="30" y="70"/>
<use href="#w" x="50" y="70"/>
<use href="#b" x="70" y="70">
    <animate attributeName="y" values="70;70;70;70;70;70;70;70;70;50;50;50;50;50;50;50;50;50;50;50" dur="4.5s" repeatCount="indefinite" />
</use>
<use href="#w" x="90" y="70">
    <animate attributeName="x" values="90;90;90;90;90;90;90;90;90;90;90;70;70;70;70;70;70;70;70;70;" dur="4.5s" repeatCount="indefinite" />
</use>
</svg>