<?xml version="1.0" encoding="utf-8"?><svg version="1.1" xmlns="http://www.w3.org/2000/svg" viewBox="0 0 104 104"><defs><path id="a" d="M0,0h16v16h-16zm20,0h16v16h-16zm20,0h16v16h-16zm20,0h16v16h-16zm20,0h16v16h-16z" fill="#BBB" /><path id="x" d="M2,2L14,14M2,14L14,2" stroke-width="2" stroke="#00f" /><circle id="o" cx="8" cy="8" r="6" stroke="red" stroke-width="2" fill="none" /></defs><use href="#a" x="4" y="4" /><use href="#a" x="4" y="24" /><use href="#a" x="4" y="44" /><use href="#a" x="4" y="64" /><use href="#a" x="4" y="84" /><path transform="translate(24 24)" d="M18,0v56M38,0v56M0,18h56M0,38h56" stroke="#000" stroke-width="4" /></svg>