<svg xmlns="http://www.w3.org/2000/svg" viewBox="-1 -1 242 192"><defs><path id="g" d="M0,0h40v40h-40zm10,0v40m10,-40v40m10,-40v40m-30,-30h40m-40,10h40m-40,10h40" stroke="#000" fill="none"/><g id="r"><use href="#g"/><use href="#g" x="50"/><use href="#g" x="100"/><use href="#g" x="150"/><use href="#g" x="200"/></g></defs><g fill="#99df99"><path d="M0,0h20v20h-20z M60,0h20v20h-20z M120,0h20v20h-20z M150,10h20v20h-20z M210,10h20v20h-20z M20,60h20v20h-20z M50,70h20v20h-20z M110,70h20v20h-20z M170,70h20v20h-20z M200,50h10v10h-10zm20,0h10v10h-10zm-20,20h10v10h-10zm20,0h10v10h-10z M10,100h10v10h-10zm20,0h10v10h-10zm-20,20h10v10h-10zm20,0h10v10h-10z M50,110h10v10h-10zm20,0h10v10h-10zm-20,20h10v10h-10zm20,0h10v10h-10z M110,110h10v10h-10zm20,0h10v10h-10zm-20,20h10v10h-10zm20,0h10v10h-10z M150,100h10v10h-10zm30,0h10v10h-10zm-30,30h10v10h-10zm30,0h10v10h-10z M210,100h10v10h-10zm-10,10h10v10h-10zm20,0h10v10h-10zm-10,10h10v10h-10z M20,150h10v10h-10zm-10,10h10v10h-10zm20,0h10v10h-10zm-10,10h10v10h-10z M60,160h10v10h-10zm-10,10h10v10h-10zm20,0h10v10h-10zm-10,10h10v10h-10z M120,160h10v10h-10zm-10,10h10v10h-10zm20,0h10v10h-10zm-10,10h10v10h-10z M150,160h10v10h-10zm20,-10h10v10h-10zm10,20h10v10h-10zm-20,10h10v10h-10z M200,170h10v10h-10zm10,-20h10v10h-10zm20,10h10v10h-10zm-10,20h10v10h-10z"/></g><use href="#r"/><use href="#r" y="50"/><use href="#r" y="100"/><use href="#r" y="150"/></svg>