<?xml version="1.0" encoding="utf-8"?>
<svg version="1.1" xmlns="http://www.w3.org/2000/svg" viewBox="0 0 80 80">
    <defs>
        <radialGradient id="rg0" cx="-107.6189" cy="-90.5162" r="10.0083" fx="-109.6206" fy="-92.5178"
            gradientTransform="matrix(1 0 0 1 159.5 142.5)" gradientUnits="userSpaceOnUse">
            <stop offset="0" stop-color="#000000" />
            <stop offset="1" stop-color="#000000" stop-opacity="0" />
        </radialGradient>
        <radialGradient id="rg1" cx="-109.6189" cy="-92.5162" r="10.0083" fx="-114.623" fy="-97.5203"
            gradientTransform="matrix(1 0 0 1 159.5 142.5)" gradientUnits="userSpaceOnUse">
            <stop offset="0" stop-color="#b6a8fe" />
            <stop offset="0.5" stop-color="#4960f7" />
            <stop offset="1" stop-color="#0400f5" />
        </radialGradient>
        <radialGradient id="rg2" cx="-107.6189" cy="-90.5162" r="10.0083" fx="-109.6206" fy="-92.5178"
            gradientTransform="matrix(1 0 0 1 159.5 142.5)" gradientUnits="userSpaceOnUse">
            <stop offset="0" stop-color="#000000" />
            <stop offset="1" stop-color="#000000" stop-opacity="0" />
        </radialGradient>
        <radialGradient id="rg3" cx="-109.6189" cy="-92.5162" r="10.0083" fx="-114.623" fy="-97.5203"
            gradientTransform="matrix(1 0 0 1 159.5 142.5)" gradientUnits="userSpaceOnUse">
            <stop offset="0" stop-color="#fea8a8" />
            <stop offset="0.5" stop-color="#fc6464" />
            <stop offset="1" stop-color="#d00000" />
        </radialGradient>
        <g id="b" transform="scale(0.5) translate(-50,-50)">
            <path fill="url(#rg0)" d="M61.9,52c0,5.5-4.5,10-10,10s-10-4.5-10-10s4.5-10,10-10S61.9,46.5,61.9,52z" />
            <path fill="url(#rg1)" d="M59.9,50c0,5.5-4.5,10-10,10s-10-4.5-10-10s4.5-10,10-10S59.9,44.5,59.9,50z" />
        </g>
        <g id="r" transform="scale(0.5) translate(-50,-50)">
            <path fill="url(#rg2)" d="M61.9,52c0,5.5-4.5,10-10,10s-10-4.5-10-10s4.5-10,10-10S61.9,46.5,61.9,52z" />
            <path fill="url(#rg3)" d="M59.9,50c0,5.5-4.5,10-10,10s-10-4.5-10-10s4.5-10,10-10S59.9,44.5,59.9,50z" />
        </g>
        <circle id="c" r="2" fill="gray" />
    </defs>
    <path d="M10,53L50,71L70,62L10,35L50,17M10,53L70,26L30,8L10,17L70,44L30,62" fill="none" stroke="gray" />
    <use href="#c" x="30" y="8" /><use href="#c" x="30" y="26" /><use href="#c" x="30" y="44" /><use href="#c" x="30" y="62" /><use href="#c" x="50" y="17" /><use href="#c" x="50" y="35" /><use href="#c" x="50" y="53" /><use href="#c" x="50" y="71" /><use href="#b" x="10" y="17" /><use href="#b" x="10" y="35" /><use href="#b" x="10" y="53" /><use href="#r" x="70" y="26" /><use href="#r" x="70" y="44" /><use href="#r" x="70" y="62" />
</svg>