<svg viewBox="0 0 272 165" xmlns="http://www.w3.org/2000/svg"><g stroke="#000"><path fill="#f2c879" stroke-width="2.44" d="m9.341 82.742 126.786-73.2L262.96 82.823l-126.786 73.2z"/><path fill="#8ccbff" stroke-width="2.44" d="m9.341 82.742 31.697-18.3-.599 35.563z"/><path fill="#ff9f9f" stroke-width="2.44" d="m231.252 64.503 31.708 18.32-31.696 18.3z"/><path d="m41.05 101.062 126.786-73.2m-95.078 91.52 126.786-73.2m-95.078 91.52 126.786-73.2m-190.214-.06 126.833 73.281M72.734 46.142l126.833 73.281m-95.136-91.581 126.833 73.281M41.038 64.442l.011 36.62m31.685-54.92.024 73.24m31.673-91.54.035 109.86m31.661-128.16.047 146.481m31.662-128.161.035 109.861m31.673-91.54.023 73.24m31.685-54.92.012 36.62" stroke-width="1.83"/><g fill="#fff" stroke-width="2" transform="rotate(-30 83.476 288.195)scale(1.22)"><circle cx="100" cy="60" r="6"/><circle cx="130" cy="60" r="6"/><circle cx="160" cy="60" r="6"/><circle cx="190" cy="60" r="6"/><circle cx="220" cy="60" r="6"/><circle cx="115" cy="86" r="6"/><circle cx="145" cy="86" r="6"/><circle cx="175" cy="86" r="6"/><circle cx="205" cy="86" r="6"/><circle cx="235" cy="86" r="6"/><circle cx="130" cy="112" r="6"/><circle cx="160" cy="112" r="6"/><circle cx="190" cy="112" r="6"/><circle cx="220" cy="112" r="6"/><circle cx="250" cy="112" r="6"/><circle cx="145" cy="138" r="6"/><circle cx="175" cy="138" r="6"/><circle cx="205" cy="138" r="6"/><circle cx="235" cy="138" r="6"/><circle cx="265" cy="138" r="6"/><circle cx="160" cy="164" r="6"/><circle cx="190" cy="164" r="6"/><circle cx="220" cy="164" r="6"/><circle cx="250" cy="164" r="6"/><circle cx="280" cy="164" r="6"/></g></g><defs><g id="f"><radialGradient id="a" cx="-107.619" cy="-90.516" r="10.008" fx="-109.621" fy="-92.518" gradientTransform="translate(159.5 142.5)" gradientUnits="userSpaceOnUse"><stop offset="0"/><stop offset="1" stop-opacity="0"/></radialGradient><radialGradient id="b" cx="-109.619" cy="-92.516" r="10.008" fx="-114.623" fy="-97.52" gradientTransform="translate(159.5 142.5)" gradientUnits="userSpaceOnUse"><stop offset="0" stop-color="#b6a8fe"/><stop offset=".5" stop-color="#4960f7"/><stop offset="1" stop-color="#0400f5"/></radialGradient><path fill="url(#a)" d="M61.9 52c0 5.5-4.5 10-10 10s-10-4.5-10-10 4.5-10 10-10 10 4.5 10 10"/><path fill="url(#b)" d="M59.9 50c0 5.5-4.5 10-10 10s-10-4.5-10-10 4.5-10 10-10 10 4.5 10 10"/></g><g id="g"><radialGradient id="c" cx="-107.619" cy="-90.516" r="10.008" fx="-109.621" fy="-92.518" gradientTransform="translate(159.5 142.5)" gradientUnits="userSpaceOnUse"><stop offset="0"/><stop offset="1" stop-opacity="0"/></radialGradient><radialGradient id="d" cx="-109.619" cy="-92.516" r="10.008" fx="-114.623" fy="-97.52" gradientTransform="translate(159.5 142.5)" gradientUnits="userSpaceOnUse"><stop offset="0" stop-color="#fea8a8"/><stop offset=".5" stop-color="#fc6464"/><stop offset="1" stop-color="#d00000"/></radialGradient><path fill="url(#c)" d="M61.9 52c0 5.5-4.5 10-10 10s-10-4.5-10-10 4.5-10 10-10 10 4.5 10 10"/><path fill="url(#d)" d="M59.9 50c0 5.5-4.5 10-10 10s-10-4.5-10-10 4.5-10 10-10 10 4.5 10 10"/></g><marker id="e" markerWidth="5" markerHeight="5" refX="2.5" refY="2.5" viewBox="0 0 5 5" orient="auto"><path fill="hsl(348, 83%, 47%)" d="m0 5 1.667-2.5L0 0l5 2.5z"/></marker><path d="M226.5 226.5q322 19 347 347" stroke="hsl(348, 83%, 47%)" stroke-width="14" fill="none" stroke-linecap="square" stroke-dasharray="48 43" marker-end="url(#e)" id="h"/></defs><use href="#f" transform="matrix(.7 0 0 .7 101.1 47.7)"/><use href="#f" transform="matrix(.7 0 0 .7 37.6 47.7)"/><use href="#f" transform="matrix(.7 0 0 .7 69.4 66.1)"/><use href="#g" transform="matrix(.7 0 0 .7 196.4 66)"/><use href="#g" transform="matrix(.7 0 0 .7 164.7 84.5)"/><use href="#g" transform="matrix(.7 0 0 .7 133 29.5)"/><use href="#h" transform="matrix(.04659 .18672 .12137 -.07167 34.819 57.983)"/><use href="#h" transform="rotate(225 102.092 55.553)scale(.145)"/><use href="#h" transform="rotate(-15 131.99 -357.266)scale(.145)"/></svg>