<svg viewBox="0 0 272 165" xmlns="http://www.w3.org/2000/svg">
  <g stroke="#000">
    <path fill="#f2c879" stroke-width="2.44" d="m9.341 82.742 126.786-73.2L262.96 82.823l-126.786 73.2z"/>
    <path fill="#8ccbff" stroke-width="2.44" d="m9.341 82.742 31.697-18.3-.599 35.563z"/>
    <path fill="#ff9f9f" stroke-width="2.44" d="m231.252 64.503 31.708 18.32-31.696 18.3z"/>
    <path d="m41.05 101.062 126.786-73.2m-95.078 91.52 126.786-73.2m-95.078 91.52 126.786-73.2m-190.214-.06 126.833 73.281M72.734 46.142l126.833 73.281m-95.136-91.581 126.833 73.281M41.038 64.442l.011 36.62m31.685-54.92.024 73.24m31.673-91.54.035 109.86m31.661-128.16.047 146.481m31.662-128.161.035 109.861m31.673-91.54.023 73.24m31.685-54.92.012 36.62" stroke-width="1.83"/>
    <g fill="#fff" stroke-width="2" transform="rotate(-30 83.476 288.195)scale(1.22)">
      <circle cx="100" cy="60" r="6"/>
      <circle cx="130" cy="60" r="6"/>
      <circle cx="160" cy="60" r="6"/>
      <circle cx="190" cy="60" r="6"/>
      <circle cx="220" cy="60" r="6"/>
      <circle cx="115" cy="86" r="6"/>
      <circle cx="145" cy="86" r="6"/>
      <circle cx="175" cy="86" r="6"/>
      <circle cx="205" cy="86" r="6"/>
      <circle cx="235" cy="86" r="6"/>
      <circle cx="130" cy="112" r="6"/>
      <circle cx="160" cy="112" r="6"/>
      <circle cx="190" cy="112" r="6"/>
      <circle cx="220" cy="112" r="6"/>
      <circle cx="250" cy="112" r="6"/>
      <circle cx="145" cy="138" r="6"/>
      <circle cx="175" cy="138" r="6"/>
      <circle cx="205" cy="138" r="6"/>
      <circle cx="235" cy="138" r="6"/>
      <circle cx="265" cy="138" r="6"/>
      <circle cx="160" cy="164" r="6"/>
      <circle cx="190" cy="164" r="6"/>
      <circle cx="220" cy="164" r="6"/>
      <circle cx="250" cy="164" r="6"/>
      <circle cx="280" cy="164" r="6"/>
    </g>
  </g>
  <defs>
    <g id="bluepiece">
      <radialGradient id="rg0" cx="-107.6189" cy="-90.5162" r="10.0083" fx="-109.6206" fy="-92.5178" gradientTransform="matrix(1 0 0 1 159.5 142.5)" gradientUnits="userSpaceOnUse">
        <stop offset="0" stop-color="#000000"/>
        <stop offset="1" stop-color="#000000" stop-opacity="0"/>
      </radialGradient>
      <radialGradient id="rg1" cx="-109.6189" cy="-92.5162" r="10.0083" fx="-114.623" fy="-97.5203" gradientTransform="matrix(1 0 0 1 159.5 142.5)" gradientUnits="userSpaceOnUse">
        <stop offset="0" stop-color="#b6a8fe"/>
        <stop offset="0.5" stop-color="#4960f7"/>
        <stop offset="1" stop-color="#0400f5"/>
      </radialGradient>
      <path fill="url(#rg0)" d="M61.9,52c0,5.5-4.5,10-10,10s-10-4.5-10-10s4.5-10,10-10S61.9,46.5,61.9,52z"/>
      <path fill="url(#rg1)" d="M59.9,50c0,5.5-4.5,10-10,10s-10-4.5-10-10s4.5-10,10-10S59.9,44.5,59.9,50z"/>
    </g>
    <g id="redpiece">
      <radialGradient id="rg0" cx="-107.6189" cy="-90.5162" r="10.0083" fx="-109.6206" fy="-92.5178" gradientTransform="matrix(1 0 0 1 159.5 142.5)" gradientUnits="userSpaceOnUse">
        <stop offset="0" stop-color="#000000"/>
        <stop offset="1" stop-color="#000000" stop-opacity="0"/>
      </radialGradient>
      <radialGradient id="rg2" cx="-109.6189" cy="-92.5162" r="10.0083" fx="-114.623" fy="-97.5203" gradientTransform="matrix(1 0 0 1 159.5 142.5)" gradientUnits="userSpaceOnUse">
        <stop offset="0" stop-color="#fea8a8"/>
        <stop offset="0.5" stop-color="#fc6464"/>
        <stop offset="1" stop-color="#d00000"/>
      </radialGradient>
      <path fill="url(#rg0)" d="M61.9,52c0,5.5-4.5,10-10,10s-10-4.5-10-10s4.5-10,10-10S61.9,46.5,61.9,52z"/>
      <path fill="url(#rg2)" d="M59.9,50c0,5.5-4.5,10-10,10s-10-4.5-10-10s4.5-10,10-10S59.9,44.5,59.9,50z"/>
    </g>
  </defs>
  <g>
    <g transform="translate(6,66) scale(0.7)">
      <use href="#bluepiece"/>
    </g>
    <g transform="translate(-25.7,47.7) scale(0.7)">
      <use href="#bluepiece"/>
    </g>
    <g transform="translate(6,29.5) scale(0.7)">
      <use href="#bluepiece"/>
    </g>
    <g transform="translate(196.4,66) scale(0.7)">
      <use href="#redpiece"/>
    </g>
    <g transform="translate(228,47.7) scale(0.7)">
      <use href="#redpiece"/>
    </g>
    <g transform="translate(196.4,29.5) scale(0.7)">
      <use href="#redpiece"/>
    </g>
  </g>
</svg>
