<?xml version="1.0" encoding="utf-8"?><svg viewBox="0 0 136 136" xmlns="http://www.w3.org/2000/svg"><defs><path id="x" d="M3,3L19,19M3,19L19,3" stroke="#000" stroke-width="2"/></defs><path d="M1,22h64m0,22h-64m21,-43v64m22,0v-64M71,22h64m0,22h-64m21,-43v64m22,0v-64M36,92h64m0,22h-64m21,-43v64m22,0v-64" stroke-width="2" stroke="#bcbec0"/><use href="#x" x="22" y="0"/><use href="#x" x="22" y="22"/><use href="#x" x="22" y="44"/><use href="#x" x="70" y="0"/><use href="#x" x="92" y="0"/><use href="#x" x="114" y="0"/><use href="#x" x="70" y="22"/><use href="#x" x="114" y="22"/><use href="#x" x="92" y="44"/><use href="#x" x="114" y="44"/><use href="#x" x="35" y="70"/><use href="#x" x="79" y="70"/><use href="#x" x="57" y="92"/><use href="#x" x="35" y="114"/></svg>