<?xml version="1.0" encoding="utf-8"?>
<svg version="1.1" id="BackgroundSVG" xmlns="http://www.w3.org/2000/svg" viewBox="0 0 200 200">
    <defs>
    <g id="r" fill="black"><circle cx="20" cy="20" r="2"/><circle cx="60" cy="20" r="2"/><circle cx="100" cy="20" r="2"/><circle cx="140" cy="20" r="2"/><circle cx="180" cy="20" r="2"/></g>
    <radialGradient id="rg1" cx="-107.6189" cy="-90.5162" r="10" fx="-109.6206" fy="-92.5178"
        gradientTransform="matrix(1 0 0 1 159.5 142.5)" gradientUnits="userSpaceOnUse">
        <stop offset="0" stop-color="#000" />
        <stop offset="1" stop-color="#000" stop-opacity="0" />
    </radialGradient>
    <radialGradient id="rg2" cx="-109.6189" cy="-92.5162" r="10" fx="-114.623" fy="-97.5203"
        gradientTransform="matrix(1 0 0 1 159.5 142.5)" gradientUnits="userSpaceOnUse">
        <stop offset="0" stop-color="#888888" />
        <stop offset="0.5" stop-color="#5B5B5B" />
        <stop offset="1" stop-color="#000000" />
    </radialGradient>
    <radialGradient id="rg3" cx="-107.5" cy="190.5449" r="10" fx="-109.5" fy="188.55"
        gradientTransform="matrix(1 0 0 -1 159.5 242.5)" gradientUnits="userSpaceOnUse">
        <stop offset="0" stop-color="#000000" />
        <stop offset="1" stop-color="#000000" stop-opacity="0" />
    </radialGradient>
    <radialGradient id="rg4" cx="-109.5" cy="192.55" r="10" fx="-114.5" fy="187.55"
        gradientTransform="matrix(0 1 1 0 -142.5 159.5)" gradientUnits="userSpaceOnUse">
        <stop offset="0" stop-color="#FFFFFF" />
        <stop offset="0.5" stop-color="#DDDDDD" />
        <stop offset="1" stop-color="#999999" />
    </radialGradient>
    <g id="b" transform="scale(1.25) translate(-50 -50)">
        <path fill="url(#rg1)" d="M61.9,52c0,5.5-4.5,10-10,10s-10-4.5-10-10s4.5-10,10-10S61.9,46.5,61.9,52z" />
        <path fill="url(#rg2)" d="M59.9,50c0,5.5-4.5,10-10,10s-10-4.5-10-10s4.5-10,10-10S59.9,44.5,59.9,50z" />
    </g>
    <g id="w" transform="scale(1.25) translate(-50 -50)">
        <path fill="url(#rg3)" d="M61.9,52c0,5.5-4.5,10-10,10s-10-4.5-10-10s4.5-10,10-10S61.9,46.5,61.9,52z" />
        <path fill="url(#rg4)" d="M59.9,50c0,5.5-4.5,10-10,10s-10-4.5-10-10s4.5-10,10-10S59.9,44.5,59.9,50z" />
    </g>
    </defs>
    <path d="M0,0v200h200v-200z" fill="#fff0c0" />
    <g fill="none" opacity="0.7" stroke-width="1.5"><path stroke="#b7410e" d="M20,20l160,160M180,20l-160,160M100,20l80,80l-80,80l-80,-80l80,-80"/><path stroke="#87ceeb" d="M60,20l120,120l-40,40l-120,-120zM140,20l40,40l-120,120l-40,-40z"/></g>
    <use href="#r" x="0" y="0"/><use href="#r" x="0" y="40"/>
    <use href="#r" x="0" y="80" />
    <use href="#r" x="0" y="120" />
    <use href="#r" x="0" y="160" />
    <use href="#b" x="20" y="20"/>
    <use href="#b" x="60" y="20">
        <animateTransform attributeType="xml" attributeName="transform" type="translate"
        dur="6s"
        values="0,0;0,0;0,0;0,0;0,0;0,0;0,0;0,0;40,40;40,40;40,40;40,40;"
        repeatCount="indefinite"/>
    </use>
    <use href="#b" x="100" y="20"/>
    <use href="#b" x="140" y="20"/>
    <use href="#b" x="180" y="20"/>
    <use href="#b" x="20" y="60">
        <animateTransform attributeType="xml" attributeName="transform" type="translate"
        dur="6s"
        values="0,0;0,0;0,0;0,0;40,40;40,40;40,40;40,40;40,40;40,40;40,40;40,40;"
        repeatCount="indefinite"/>
    </use>
    <use href="#b" x="180" y="60"/>

    <use href="#w" x="20" y="180">
        <animateTransform attributeType="xml" attributeName="transform" type="translate"
        dur="6s"
        values="0,0;0,0;40,-40;40,-40;40,-40;40,-40;40,-40;40,-40;40,-40;40,-40;40,-40;40,-40;"
        repeatCount="indefinite"/>
    </use>

    <use href="#w" x="60" y="180"/>
    <use href="#w" x="100" y="180"/>
    <use href="#w" x="140" y="180"/>
    <use href="#w" x="180" y="180"/>
    <use href="#w" x="20" y="140"/>
    <use href="#w" x="180" y="140">
        <animateTransform attributeType="xml" attributeName="transform" type="translate"
        dur="6s"
        values="0,0;0,0;0,0;0,0;0,0;0,0;-40,-40;-40,-40;-40,-40;-40,-40;-40,-40;-40,-40;"
        repeatCount="indefinite"/>
    </use>
</svg>