<?xml version="1.0" encoding="utf-8"?><svg version="1.1" xmlns="http://www.w3.org/2000/svg" viewBox="0 50 300 250"><defs><circle id="b" r="16" fill="#00f"/><circle id="r" r="16" fill="#f00"/></defs><use href="#b" x="150" y="75"/><use href="#b" x="175" y="100"/><use href="#b" x="200" y="125"/><use href="#b" x="225" y="150"/><use href="#r" x="125" y="100"/><use href="#r" x="150" y="125"/><use href="#r" x="175" y="150"/><use href="#b" x="200" y="175"/><use href="#r" x="100" y="125"/><use href="#b" x="125" y="150"/><use href="#r" x="150" y="175"/><use href="#r" x="175" y="200"/><use href="#b" x="200" y="225"/><use href="#r" x="100" y="175"/><use href="#r" x="125" y="200"/><use href="#b" x="100" y="225"/><use href="#b" x="275" y="150"><animate attributeName="opacity" values="0;0;1;1" keyTimes="0;0.2;0.3;1" dur="7s" repeatCount="indefinite" /><animateTransform attributeName="transform" attributeType="XML" type="translate" values="0 0;0 0;-25 25;-25 25" keyTimes="0;0.3;0.4;1" dur="7s" repeatCount="indefinite"/></use><use href="#r" x="250" y="175"><animateTransform attributeName="transform" attributeType="XML" type="translate" values="0 0;0 0;-25 25;-25 25" keyTimes="0;0.3;0.4;1" dur="7s" repeatCount="indefinite"/></use><path fill="gray" fill-rule="evenodd" d="M150 50L275 175L150 300L25 175ZM135 275 a 15,15 0 1,0 30,0 a 15,15 0 1,0 -30,0M160 250 a 15,15 0 1,0 30,0 a 15,15 0 1,0 -30,0M185 225 a 15,15 0 1,0 30,0 a 15,15 0 1,0 -30,0M210 200 a 15,15 0 1,0 30,0 a 15,15 0 1,0 -30,0M235 175 a 15,15 0 1,0 30,0 a 15,15 0 1,0 -30,0M110 250 a 15,15 0 1,0 30,0 a 15,15 0 1,0 -30,0M135 225 a 15,15 0 1,0 30,0 a 15,15 0 1,0 -30,0M160 200 a 15,15 0 1,0 30,0 a 15,15 0 1,0 -30,0M185 175 a 15,15 0 1,0 30,0 a 15,15 0 1,0 -30,0M210 150 a 15,15 0 1,0 30,0 a 15,15 0 1,0 -30,0M85 225 a 15,15 0 1,0 30,0 a 15,15 0 1,0 -30,0M110 200 a 15,15 0 1,0 30,0 a 15,15 0 1,0 -30,0M135 175 a 15,15 0 1,0 30,0 a 15,15 0 1,0 -30,0M160 150 a 15,15 0 1,0 30,0 a 15,15 0 1,0 -30,0M185 125 a 15,15 0 1,0 30,0 a 15,15 0 1,0 -30,0M60 200 a 15,15 0 1,0 30,0 a 15,15 0 1,0 -30,0M85 175 a 15,15 0 1,0 30,0 a 15,15 0 1,0 -30,0M110 150 a 15,15 0 1,0 30,0 a 15,15 0 1,0 -30,0M135 125 a 15,15 0 1,0 30,0 a 15,15 0 1,0 -30,0M160 100 a 15,15 0 1,0 30,0 a 15,15 0 1,0 -30,0M35 175 a 15,15 0 1,0 30,0 a 15,15 0 1,0 -30,0M60 150 a 15,15 0 1,0 30,0 a 15,15 0 1,0 -30,0M85 125 a 15,15 0 1,0 30,0 a 15,15 0 1,0 -30,0M110 100 a 15,15 0 1,0 30,0 a 15,15 0 1,0 -30,0M135 75 a 15,15 0 1,0 30,0 a 15,15 0 1,0 -30,0" /><path d="M148,73l104,104" stroke="#99ed99" stroke-width="5"><animate attributeName="opacity" values="0;0;1;0;1;0;1;0;0" keyTimes="0;0.42;0.47;0.52;0.57;0.62;0.67;0.72;1" dur="7s" repeatCount="indefinite" /></path></svg>