<?xml version="1.0" encoding="utf-8"?>
 <svg version="1.1" xmlns="http://www.w3.org/2000/svg" viewBox="0 0 30 30">
    <defs>
        <radialGradient id="rg0" cx="-107.6189" cy="-90.5162" r="10.0083" fx="-109.6206" fy="-92.5178"
            gradientTransform="matrix(1 0 0 1 159.5 142.5)" gradientUnits="userSpaceOnUse">
            <stop offset="0" stop-color="#000000" />
            <stop offset="1" stop-color="#000000" stop-opacity="0" />
        </radialGradient>
        <radialGradient id="rg1" cx="-109.6189" cy="-92.5162" r="10.0083" fx="-114.623" fy="-97.5203"
            gradientTransform="matrix(1 0 0 1 159.5 142.5)" gradientUnits="userSpaceOnUse">
            <stop offset="0" stop-color="#b6a8fe" />
            <stop offset="0.5" stop-color="#4960f7" />
            <stop offset="1" stop-color="#0400f5" />
        </radialGradient>
        <radialGradient id="rg2" cx="-107.6189" cy="-90.5162" r="10.0083" fx="-109.6206" fy="-92.5178"
            gradientTransform="matrix(1 0 0 1 159.5 142.5)" gradientUnits="userSpaceOnUse">
            <stop offset="0" stop-color="#000000" />
            <stop offset="1" stop-color="#000000" stop-opacity="0"/>
        </radialGradient>
        <radialGradient id="rg3" cx="-109.6189" cy="-92.5162" r="10.0083" fx="-114.623" fy="-97.5203"
            gradientTransform="matrix(1 0 0 1 159.5 142.5)" gradientUnits="userSpaceOnUse">
            <stop offset="0" stop-color="#fea8a8" />
            <stop offset="0.5" stop-color="#fc6464" />
            <stop offset="1" stop-color="#d00000" />
        </radialGradient>
        <g id="b" transform="scale(0.45) translate(-50,-50)">
            <path fill="url(#rg0)" d="M61.9,52c0,5.5-4.5,10-10,10s-10-4.5-10-10s4.5-10,10-10S61.9,46.5,61.9,52z" />
            <path fill="url(#rg1)" d="M59.9,50c0,5.5-4.5,10-10,10s-10-4.5-10-10s4.5-10,10-10S59.9,44.5,59.9,50z" />
        </g>
        <g id="r" transform="scale(0.45) translate(-50,-50)">
            <path fill="url(#rg2)" d="M61.9,52c0,5.5-4.5,10-10,10s-10-4.5-10-10s4.5-10,10-10S61.9,46.5,61.9,52z" />
            <path fill="url(#rg3)" d="M59.9,50c0,5.5-4.5,10-10,10s-10-4.5-10-10s4.5-10,10-10S59.9,44.5,59.9,50z" />
        </g>
    </defs>
    <rect x="0" y="0" width="30" height="30" fill="#BBB" rx="3" ry="3" />
    <path d="M10,0v30M20,0v30M0,10h30M0,20h30" stroke="#DDD" stroke-width="0.25" />
    <use href="#b" x="5" y="5">
        <animateTransform attributeType="xml" attributeName="transform" type="translate"
        dur="14.5s"
        values="0,0;
        0,0;0,0;0,0;10,0; 10,0;10,0;10,0;10,10;
        10,10;10,10;10,10;10,10;10,10;10,10;10,10;
        20,10;20,10;20,10;20,10;30,10;30,10;30,10;30,10;30,10;30,10;30,10;30,10;30,10;30,10;
        "
        repeatCount="indefinite"/>
    </use>
    <use href="#b" x="5" y="15">
        <animateTransform attributeType="xml" attributeName="transform" type="translate"
        dur="14.5s"
        values="0,0;
        0,0;0,0;0,0;0,0;0,0;0,0;0,0;0,0;0,0;0,0;0,0; 0,10;0,10;0,10;0,10;0,10;0,10;0,10;0,10;0,10;0,10;0,10;0,10;10,10;10,10;10,10;10,10;10,10;10,10;"
        repeatCount="indefinite"/>
    </use>
    <use href="#r" x="15" y="25">
        <animateTransform attributeType="xml" attributeName="transform" type="translate"
        dur="14.5s"
        values="0,0;
        0,0;0,0;0,0; 0,0;0,0;0,0;0,0;0,0;0,0;0,0;0,0;0,0;0,0;0,0;0,0;0,0;0,0; 0,-10;0,-10;0,-10;0,-10;0,-20;0,-20;0,-20;0,-20;0,-30;0,-30;0,-30;0,-30;"
        repeatCount="indefinite"/>
    </use>
    <use href="#r" x="25" y="25">
        <animateTransform attributeType="xml" attributeName="transform" type="translate"
        dur="14.5s"
        values="0,0;
        0,0;0,0;0,0; 0,0;0,0; 0,-10;0,-10; 0,-10;0,-10; 0,-20;0,-20;
        0,-20;0,-20; 0,-30;0,-30; 0,-30;0,-30;0,-30;0,-30;0,-30;0,-30;0,-30;0,-30;0,-30;0,-30;0,-30;0,-30;0,-30;0,-30;"
        repeatCount="indefinite"/>
    </use>
</svg>