<svg xmlns="http://www.w3.org/2000/svg" viewBox="-2 -2 104 104">
    <defs>
        <radialGradient id="rg0" cx="-107.6189" cy="-90.5162" r="10.0083" fx="-109.6206" fy="-92.5178"
            gradientTransform="matrix(1 0 0 1 159.5 142.5)" gradientUnits="userSpaceOnUse">
            <stop offset="0" style="stop-color:#000000" />
            <stop offset="1" style="stop-color:#000000;stop-opacity:0" />
        </radialGradient>
        <radialGradient id="rg1" cx="-109.6189" cy="-92.5162" r="10.0083" fx="-114.623" fy="-97.5203"
            gradientTransform="matrix(1 0 0 1 159.5 142.5)" gradientUnits="userSpaceOnUse">
            <stop offset="0" stop-color="#b6a8fe" />
            <stop offset="0.5" stop-color="#4960f7" />
            <stop offset="1" stop-color="#0400f5" />
        </radialGradient>
        <radialGradient id="rg2" cx="-107.6189" cy="-90.5162" r="10.0083" fx="-109.6206" fy="-92.5178"
            gradientTransform="matrix(1 0 0 1 159.5 142.5)" gradientUnits="userSpaceOnUse">
            <stop offset="0" style="stop-color:#000000" />
            <stop offset="1" style="stop-color:#000000;stop-opacity:0" />
        </radialGradient>
        <radialGradient id="rg3" cx="-109.6189" cy="-92.5162" r="10.0083" fx="-114.623" fy="-97.5203"
            gradientTransform="matrix(1 0 0 1 159.5 142.5)" gradientUnits="userSpaceOnUse">
            <stop offset="0" stop-color="#fea8a8" />
            <stop offset="0.5" stop-color="#fc6464" />
            <stop offset="1" stop-color="#d00000" />
        </radialGradient>
        <g id="b" transform="scale(0.681818) translate(-39 -39)">
            <path fill="url(#rg0)" d="M61.9,52c0,5.5-4.5,10-10,10s-10-4.5-10-10s4.5-10,10-10S61.9,46.5,61.9,52z" />
            <path fill="url(#rg1)" d="M59.9,50c0,5.5-4.5,10-10,10s-10-4.5-10-10s4.5-10,10-10S59.9,44.5,59.9,50z" />
        </g>
        <g id="r" transform="scale(0.681818) translate(-39 -39)">
            <path fill="url(#rg2)" d="M61.9,52c0,5.5-4.5,10-10,10s-10-4.5-10-10s4.5-10,10-10S61.9,46.5,61.9,52z" />
            <path fill="url(#rg3)" d="M59.9,50c0,5.5-4.5,10-10,10s-10-4.5-10-10s4.5-10,10-10S59.9,44.5,59.9,50z" />
        </g>
    </defs>
    <path d="M90,90l-80,-80v80h80v-80l-80,80" fill="#CFCFCF" stroke="#000" stroke-width="1.5" stroke-linejoin="round" />
    <use href="#r" x="2.5" y="2.5" />
    <use href="#r" x="82.5" y="2.5" />
    <use href="#b" x="2.5" y="82.5" />
    <use href="#b" x="82.5" y="82.5" />
</svg>