<?xml version="1.0" encoding="utf-8"?>
<svg version="1.1" xmlns="http://www.w3.org/2000/svg" viewBox="0 0 50 50">
    <defs>
        <g id="t" transform="scale(0.017) translate(-205.2065,-205.2065)">
            <path fill="#B36F0F" d="M144.426,173.016c-19.385,0-35.1,15.715-35.1,35.1v34.75h-3.304c-16.551,0-29.969,13.416-29.969,29.969v54.343c0,13.5,10.945,24.444,24.444,24.444h44.146c3.869,0,7.004-3.138,7.004-7.004c0-15.023-11.266-27.403-25.808-29.184v-31.294h12.614c22.684,0,41.071-18.387,41.071-41.071v-34.953C179.525,188.73,163.811,173.016,144.426,173.016zM312.58,315.328v-108.6c0-13.501-10.945-24.444-24.443-24.444c-13.5,0-24.444,10.943-24.444,24.444v120.448c0,13.5,10.944,24.444,24.444,24.444h44.146c3.869,0,7.004-3.138,7.004-7.004C339.287,329.283,327.555,316.698,312.58,315.328z" />
            <path fill="#FF9E16" d="M8.641,268.504c-4.772,0-8.641-3.868-8.641-8.641v-76.971c0-28.401,23.104-51.503,51.503-51.503h33.894c4.772,0,8.64,3.867,8.64,8.64c0,4.77-3.868,8.64-8.64,8.64H51.503c-18.871,0-34.223,15.353-34.223,34.224v76.971C17.28,264.635,13.413,268.504,8.641,268.504zM305.799,117.676H113.345c-33.752,0-61.113,27.359-61.113,61.112v71.573h202.852c40.777,0,73.832-33.056,73.832-73.833V140.79C328.916,128.026,318.566,117.676,305.799,117.676zM408.086,112.204l-54.961-44.435h-31.011c-31.041,0-56.205,25.165-56.205,56.206s25.164,56.204,56.205,56.204h31.011c31.042,0,56.205-25.163,56.205-56.204C409.331,119.937,408.896,116,408.086,112.204zM96.8,173.016c-19.385,0-35.1,15.715-35.1,35.1v34.75h-3.303c-16.551,0-29.969,13.416-29.969,29.969v54.343c0,13.5,10.944,24.444,24.444,24.444h44.146c3.869,0,7.004-3.138,7.004-7.004c0-15.023-11.266-27.403-25.809-29.184v-31.294h12.614c22.684,0,41.071-18.387,41.071-41.071v-34.953C131.899,188.73,116.185,173.016,96.8,173.016zM264.954,315.328v-108.6c0-13.501-10.944-24.444-24.443-24.444c-13.501,0-24.444,10.943-24.444,24.444v120.448c0,13.5,10.944,24.444,24.444,24.444h44.146c3.869,0,7.004-3.138,7.004-7.004C291.661,329.283,279.929,316.698,264.954,315.328z" />
            <path fill="#E8E8E8" d="M400.691,116.134h-76.979c-20.281,0-36.722,16.44-36.722,36.721c0,2.851,0.335,5.617,0.949,8.281c-0.614,2.661-0.949,5.431-0.949,8.278c0,17.122,11.717,31.506,27.57,35.572c-1.755-4.286-2.728-8.977-2.728-13.895c0-0.414,0.018-0.823,0.031-1.234c4.646,4.816,10.592,8.374,17.278,10.089c-1.345-3.286-2.227-6.81-2.566-10.491c2.867-0.221,5.642-0.766,8.287-1.607v0.004l52.839-12.506c13.049-3.279,22.712-15.086,22.712-29.15v-20.342C410.411,120.487,406.059,116.134,400.691,116.134z" />
            <circle fill="#333E48" cx="344.052" cy="101.374" r="5.156" />
            <path fill="#333E48" d="M131.225,214.779L113.345,117.676L149.104,117.676zM220.508,214.779L202.628,117.676L238.388,117.676zM175.562,185.754L163.027,117.676L188.098,117.676zM265.91,185.754L253.374,117.676L278.445,117.676zM61.7,226.305L61.7,239.124L96.505,232.712zM92.802,220.178L131.899,227.379L131.899,212.978zM78.214,303.555L78.214,295.25L55.665,299.402zM216.067,267.767L216.067,281.94L254.547,274.852zM216.067,227.665L216.067,236.445L239.907,232.056zM264.954,256.5L264.954,243.064L228.47,249.783zM235.332,212.978L264.954,218.434L264.954,207.523zM264.954,301.503L264.954,288.066L228.47,294.784zM71.45,134.318l9.471,51.436l11.882-64.528C84.774,124.09,77.528,128.59,71.45,134.318zM410.411,113.208c0-1.615-1.31-2.925-2.926-2.925l-5.094,0.063c-5.368,0.023-6.589,3.079-2.711,6.791l4.325,4.142c1.795,1.72,4.09,2.611,6.406,2.69L410.411,113.208L410.411,113.208zM290.583,58.791c-7.305,0-13.228,5.921-13.228,13.228c0,7.306,5.922,13.228,13.228,13.228h8.068c2.85,0,5.16-2.312,5.16-5.161V72.02C303.811,64.711,297.889,58.791,290.583,58.791zM28.959,267.228c-0.344,1.816-0.531,3.689-0.531,5.605v10.142l43.021-7.922L28.959,267.228zM118.184,273.697c4.656-4.164,8.353-9.372,10.731-15.255l-46.789,8.614L118.184,273.697z" />
            <path fill="#FF9C9F" d="M292.114,82.416c-4.889,0-8.867-3.978-8.867-8.865c0-4.89,3.979-8.867,8.867-8.867c4.889,0,8.867,3.978,8.867,8.867v8.066c0,0.44-0.358,0.799-0.8,0.799C300.181,82.417,292.114,82.417,292.114,82.416z" />
        </g>
    </defs>

    <path d="M0,0h50v50h-50z" fill="#93c59f" />
    <path d="M5,5h40v40h-40zM5,5l40,40M45,5l-40,40M15,5v40M25,5v40M35,5v40M5,15h40M5,25h40M5,35h40M25,5l20,20l-20,20l-20,-20l20,-20" stroke="black" stroke-width="0.5" fill="#c8efd1" />

    <use x="5" y="5" href="#t" />
    <use x="45" y="5" href="#t" />
    <use x="5" y="45" href="#t" />
    <use x="45" y="45" href="#t" />
</svg>