<svg version="1.1" xmlns="http://www.w3.org/2000/svg" viewBox="0 0 5 5"><defs><circle id="s" cx="0.5" cy="0.5" r="0.2" fill="#f8f" /></defs><path d="M0,0v5h5v-5z" fill="#ff8" stroke="none" /><path d="M3,-1h3v3h-2v-1h-1zM-1,1h2v2h-2z M3,3h3v3h-3z M3,2h1v1h-1zM2,3h1v1h-1z" fill="#000" /><use href="#s" x="2" y="2"><animate attributeName="opacity" values="0;0;1;0;0" keyTimes="0;0.16666;0.23333;0.26666;1" dur="15s" repeatCount="indefinite" /></use><path d="M2.05,1.05h0.9v1h1v0.9h-1v1h-0.9v-1h-1v-0.9h1z" fill="none" stroke="#f8f" stroke-width="0.1"><animate attributeName="opacity" values="0;0;1;0;0" keyTimes="0;0.2;0.23333;0.26666;1" dur="15s" repeatCount="indefinite" /></path><g><path d="M2,1h1v2h-3v-1h2z" fill="#000" /><path d="M3,2h1v1h-1zM2,3h1v1h-1zM3,1h1v1h1v1h-2zM0,3h3v2h-3z" fill="#ff8" /><animate attributeName="opacity" values="0;0;1;1;" keyTimes="0;0.23333;0.26666;1" dur="15s" repeatCount="indefinite" /></g><use href="#s" x="3" y="2"><animate attributeName="opacity" values="0;0;1;0;0" keyTimes="0;0.33333;0.4;0.43333;1" dur="15s" repeatCount="indefinite" /></use><path d="M3.05,1.05h0.9v1h1v0.9h-1v1h-0.9v-1h-1v-0.9h1z" fill="none" stroke="#f8f" stroke-width="0.1"><animate attributeName="opacity" values="0;0;1;0;0" keyTimes="0;0.36666;0.4;0.43333;1" dur="15s" repeatCount="indefinite" /></path><g><path d="M3,0h3v5h-3v-1h1v-1h-1v-1h-1v-1h1z" fill="#000" /><path d="M2,2h1v1h1v1h-1v1h-3v-2h2z" fill="#ff8" /><animate attributeName="opacity" values="0;0;1;1;" keyTimes="0;0.4;0.43333;1" dur="15s" repeatCount="indefinite" /></g><use href="#s" x="1" y="0"><animate attributeName="opacity" values="0;0;1;0;0" keyTimes="0;0.5;0.56666;0.6;1" dur="15s" repeatCount="indefinite" /></use><path d="M0.05,0.05h2.9v0.9h-1v1h-0.9v-1h-1z" fill="none" stroke="#f8f" stroke-width="0.1"><animate attributeName="opacity" values="0;0;1;0;0" keyTimes="0;0.53333;0.56666;0.6;1" dur="15s" repeatCount="indefinite" /></path><g><path d="M0,0h4v2h-4z" fill="#000" /><path d="M0,0h3v1h-1v1h-1v-1h-1z" fill="#000" /><animate attributeName="opacity" values="0;0;1;1;" keyTimes="0;0.56666;0.6;1" dur="15s" repeatCount="indefinite" /></g><use href="#s" x="0" y="4"><animate attributeName="opacity" values="0;0;1;0;0" keyTimes="0;0.63333;0.7;0.73333;1" dur="15s" repeatCount="indefinite" /></use><path d="M0.05,3.05h0.9v1h1v0.9h-1.9z" fill="none" stroke="#f8f" stroke-width="0.1"><animate attributeName="opacity" values="0;0;1;0;0" keyTimes="0;0.66666;0.7;0.73333;1" dur="15s" repeatCount="indefinite" /></path><path d="M-1,2v4h3v-2h-1v-2z" stroke-linejoin="round" fill="#000" stroke-width="0.1"><animate attributeName="opacity" values="0;0;1;1" keyTimes="0;0.7;0.73333;1" dur="15s" repeatCount="indefinite" /></path><use href="#s" x="2" y="3"><animate attributeName="opacity" values="0;0;1;0;0" keyTimes="0;0.76666;0.83333;0.86666;1" dur="15s" repeatCount="indefinite" /></use><path d="M2.05,2.05h0.9v1h1v0.9h-1v1h-0.9v-1h-1v-0.9h1z" fill="none" stroke="#f8f" stroke-width="0.1"><animate attributeName="opacity" values="0;0;1;0;0" keyTimes="0;0.8;0.83333;0.86666;1" dur="15s" repeatCount="indefinite" /></path><path d="M-1,-1v7h7v-7z" stroke-linejoin="round" fill="#000" stroke-width="0.1"><animate attributeName="opacity" values="0;0;1;1" keyTimes="0;0.83333;0.86666;1" dur="15s" repeatCount="indefinite" /></path><path d="M-1,-1h7v7h-7z M0,0h5v5h-5z" fill="#000" fill-rule="evenodd" /></svg>