<?xml version="1.0" encoding="UTF-8"?>
<!-- Author: Jiachun Li -->
<svg xmlns="http://www.w3.org/2000/svg" version="1.1" viewBox="0 0 3278 2543" style="shape-rendering:geometricPrecision; text-rendering:geometricPrecision; image-rendering:optimizeQuality; fill-rule:evenodd; clip-rule:evenodd">
<defs>
<g id="back">
    <path fill="#010101" d="M 2.5,-0.5 C 173.5,-0.5 344.5,-0.5 515.5,-0.5C 516.167,0.833333 517.167,1.83333 518.5,2.5C 518.5,244.5 518.5,486.5 518.5,728.5C 517.5,730.167 516.167,731.5 514.5,732.5C 344.167,732.5 173.833,732.5 3.5,732.5C 2.13632,730.809 0.802988,729.142 -0.5,727.5C -0.5,486.167 -0.5,244.833 -0.5,3.5C 0.488369,2.20498 1.48837,0.871651 2.5,-0.5 Z"/>
    <path fill="#f6f1e4" d="M 504.5,13.5 C 504.5,248.5 504.5,483.5 504.5,718.5C 341.167,718.5 177.833,718.5 14.5,718.5C 14.5,483.5 14.5,248.5 14.5,13.5C 177.833,13.5 341.167,13.5 504.5,13.5 Z"/>
    <path fill="#0b0a09" d="M 495.5,703.5 C 495.5,704.5 495.5,705.5 495.5,706.5C 495.047,707.458 494.381,708.292 493.5,709C 337.5,709.667 181.5,709.667 25.5,709C 25,708.5 24.5,708 24,707.5C 23.8333,593.5 23.6667,479.5 23.5,365.5C 23.5005,251.264 23.8338,137.097 24.5,23C 180.833,22.3333 337.167,22.3333 493.5,23C 494,23.5 494.5,24 495,24.5C 495.5,250.833 495.667,477.166 495.5,703.5 Z"/>
    <path fill="#fbf7ea" d="M 487.5,29.5 C 487.5,253.5 487.5,477.5 487.5,701.5C 335.167,701.5 182.833,701.5 30.5,701.5C 30.5,477.5 30.5,253.5 30.5,29.5C 182.833,29.5 335.167,29.5 487.5,29.5 Z"/>
    <path fill="#0e0c0a" d="M 124.5,48.5 C 125.873,48.3433 127.207,48.51 128.5,49C 155.739,75.7376 182.406,102.904 208.5,130.5C 182.406,158.096 155.739,185.262 128.5,212C 127.167,212.667 125.833,212.667 124.5,212C 97.2611,185.262 70.5945,158.096 44.5,130.5C 44.6667,129.833 44.8333,129.167 45,128.5C 71.7016,101.965 98.2016,75.2987 124.5,48.5 Z"/>
    <path fill="#fbf5e6" d="M 125.5,54.5 C 151.763,79.095 177.429,104.428 202.5,130.5C 177.5,156.167 152.167,181.5 126.5,206.5C 100.833,181.5 75.5,156.167 50.5,130.5C 75.5211,105.146 100.521,79.8125 125.5,54.5 Z"/>
</g>
<g id="bell">
    <path fill="#d5a55e" d="M 367.5,274.5 C 365.557,277.88 364.057,281.547 363,285.5C 362.501,291.491 362.334,297.491 362.5,303.5C 359.7,295.271 360.2,286.938 364,278.5C 364.949,276.907 366.115,275.574 367.5,274.5 Z"/>
    <path fill="#d3994a" d="M 410.5,322.5 C 405.932,326.859 400.432,328.859 394,328.5C 389.577,328.36 385.41,327.36 381.5,325.5C 381.866,324.305 382.699,323.639 384,323.5C 386.981,324.959 390.148,325.626 393.5,325.5C 399.208,324.708 404.874,323.708 410.5,322.5 Z"/>
    <path fill="#f3cc49" d="M 95.5,381.5 C 105.198,375.331 115.864,371.998 127.5,371.5C 134.809,370.816 142.142,370.316 149.5,370C 151.32,369.8 152.653,368.966 153.5,367.5C 159.892,368.05 165.892,367.05 171.5,364.5C 175.609,362.55 179.943,361.05 184.5,360C 188.647,357.675 192.313,354.841 195.5,351.5C 198.478,350.011 201.478,348.511 204.5,347C 205.748,345.6 206.748,344.1 207.5,342.5C 223.139,332.403 238.473,321.569 253.5,310C 260.486,307.423 266.986,303.923 273,299.5C 275.319,298.129 277.819,297.462 280.5,297.5C 291.989,296.179 303.489,296.179 315,297.5C 320.509,299.684 326.009,301.851 331.5,304C 345.104,314.77 357.104,326.936 367.5,340.5C 379.77,364.447 379.437,388.113 366.5,411.5C 361.956,417.935 357.956,424.601 354.5,431.5C 353.5,431.5 352.5,431.5 351.5,431.5C 351.076,437.014 348.576,441.347 344,444.5C 342.238,446.936 340.904,449.602 340,452.5C 337.195,454.792 334.862,457.459 333,460.5C 332.517,461.448 332.351,462.448 332.5,463.5C 329.645,464.834 327.145,466.834 325,469.5C 321.33,474.753 317.664,480.086 314,485.5C 309.534,495.285 307.534,505.618 308,516.5C 305.356,537.761 297.856,557.095 285.5,574.5C 279.528,575.664 273.528,575.83 267.5,575C 256.325,571.41 245.658,566.744 235.5,561C 234.167,559.333 232.833,557.667 231.5,556C 222.529,553.356 215.196,548.356 209.5,541C 205.289,537.868 200.956,534.868 196.5,532C 193.473,528.728 190.306,525.561 187,522.5C 186.517,521.552 186.351,520.552 186.5,519.5C 183.111,517.95 180.444,515.45 178.5,512C 172.168,507.809 166.835,502.642 162.5,496.5C 161.675,495.614 160.675,495.281 159.5,495.5C 159.649,494.448 159.483,493.448 159,492.5C 155.686,488.352 152.186,484.352 148.5,480.5C 146.955,479.548 145.288,479.215 143.5,479.5C 141.644,475.159 139.478,470.826 137,466.5C 136.092,464.561 134.592,463.561 132.5,463.5C 132.509,461.692 132.009,460.025 131,458.5C 117.815,441.644 107.148,423.311 99,403.5C 97.1873,396.254 96.0206,388.921 95.5,381.5 Z"/>
    <path fill="#f9e957" d="M 287.5,306.5 C 298.164,307.265 308.83,308.265 319.5,309.5C 322.63,311.286 325.964,312.619 329.5,313.5C 332.576,316.324 335.742,318.991 339,321.5C 341.13,326.285 340.964,330.952 338.5,335.5C 331.29,337.85 324.123,340.517 317,343.5C 305.193,345.882 293.36,346.049 281.5,344C 276.879,341.422 271.879,339.756 266.5,339C 263.725,337.626 261.392,335.793 259.5,333.5C 256.874,325.698 258.874,319.531 265.5,315C 272.63,311.254 279.963,308.42 287.5,306.5 Z"/>
    <path fill="#f9e756" d="M 237.5,328.5 C 253.22,328.406 259.054,336.073 255,351.5C 251.131,360.964 244.298,363.964 234.5,360.5C 233.286,358.931 231.619,358.098 229.5,358C 221.741,349.816 221.741,341.483 229.5,333C 231.998,331.018 234.665,329.518 237.5,328.5 Z"/>
    <path fill="#f4e290" d="M 207.5,342.5 C 206.748,344.1 205.748,345.6 204.5,347C 201.478,348.511 198.478,350.011 195.5,351.5C 198.929,347.738 202.929,344.738 207.5,342.5 Z"/>
    <path fill="#f9efbf" d="M 171.5,364.5 C 165.892,367.05 159.892,368.05 153.5,367.5C 151.833,367.5 150.167,367.5 148.5,367.5C 148.881,366.069 149.881,365.236 151.5,365C 158.158,364.5 164.825,364.334 171.5,364.5 Z"/>
    <path fill="#f3d870" d="M 148.5,367.5 C 150.167,367.5 151.833,367.5 153.5,367.5C 152.653,368.966 151.32,369.8 149.5,370C 142.142,370.316 134.809,370.816 127.5,371.5C 129.831,369.915 132.497,368.749 135.5,368C 139.821,367.501 144.154,367.334 148.5,367.5 Z"/>
    <path fill="#e3c071" d="M 395.5,367.5 C 396.657,375.656 396.823,383.99 396,392.5C 395.302,395.004 394.469,397.337 393.5,399.5C 395.274,388.962 395.94,378.295 395.5,367.5 Z"/>
    <path fill="#e8ad3e" d="M 410.5,322.5 C 404.874,323.708 399.208,324.708 393.5,325.5C 390.148,325.626 386.981,324.959 384,323.5C 382.699,323.639 381.866,324.305 381.5,325.5C 378.931,326.396 376.931,328.062 375.5,330.5C 385.574,340.981 392.241,353.314 395.5,367.5C 395.94,378.295 395.274,388.962 393.5,399.5C 393.799,401.604 393.466,403.604 392.5,405.5C 387.222,415.721 382.222,426.055 377.5,436.5C 371.798,445.72 365.798,454.72 359.5,463.5C 357.239,465.6 355.072,467.934 353,470.5C 352.209,471.745 351.709,473.078 351.5,474.5C 345.085,481.769 339.585,489.769 335,498.5C 331.006,502.279 328.172,506.612 326.5,511.5C 325.208,514.084 323.875,516.75 322.5,519.5C 321.21,530.481 320.21,541.481 319.5,552.5C 319.5,554.833 319.5,557.167 319.5,559.5C 316.171,570.044 312.837,580.71 309.5,591.5C 305.97,598.692 301.303,605.192 295.5,611C 289.231,612.679 282.897,612.679 276.5,611C 264.261,606.808 252.428,601.641 241,595.5C 227.406,587.064 214.239,578.064 201.5,568.5C 200.194,567.533 199.527,566.199 199.5,564.5C 198.448,564.649 197.448,564.483 196.5,564C 192.736,560.378 188.903,556.878 185,553.5C 184.617,554.056 184.117,554.389 183.5,554.5C 170.894,540.392 157.727,526.725 144,513.5C 141.869,510.898 140.035,508.232 138.5,505.5C 137.5,505.5 136.5,505.5 135.5,505.5C 135.435,503.304 134.768,501.304 133.5,499.5C 129.145,496.479 125.479,492.812 122.5,488.5C 122.532,486.381 121.532,485.048 119.5,484.5C 110.443,472.108 101.776,459.441 93.5,446.5C 88.454,436.49 83.954,426.156 80,415.5C 79.5045,413.527 79.3379,411.527 79.5,409.5C 78.3097,404.477 78.3097,399.477 79.5,394.5C 79.33,393.178 79.6634,392.011 80.5,391C 85.1344,387.188 90.1344,384.021 95.5,381.5C 96.0206,388.921 97.1873,396.254 99,403.5C 107.148,423.311 117.815,441.644 131,458.5C 132.009,460.025 132.509,461.692 132.5,463.5C 134.592,463.561 136.092,464.561 137,466.5C 139.478,470.826 141.644,475.159 143.5,479.5C 145.288,479.215 146.955,479.548 148.5,480.5C 152.186,484.352 155.686,488.352 159,492.5C 159.483,493.448 159.649,494.448 159.5,495.5C 160.675,495.281 161.675,495.614 162.5,496.5C 166.835,502.642 172.168,507.809 178.5,512C 180.444,515.45 183.111,517.95 186.5,519.5C 186.351,520.552 186.517,521.552 187,522.5C 190.306,525.561 193.473,528.728 196.5,532C 200.956,534.868 205.289,537.868 209.5,541C 215.196,548.356 222.529,553.356 231.5,556C 232.833,557.667 234.167,559.333 235.5,561C 245.658,566.744 256.325,571.41 267.5,575C 273.528,575.83 279.528,575.664 285.5,574.5C 297.856,557.095 305.356,537.761 308,516.5C 307.534,505.618 309.534,495.285 314,485.5C 317.664,480.086 321.33,474.753 325,469.5C 327.145,466.834 329.645,464.834 332.5,463.5C 332.351,462.448 332.517,461.448 333,460.5C 334.862,457.459 337.195,454.792 340,452.5C 340.904,449.602 342.238,446.936 344,444.5C 348.576,441.347 351.076,437.014 351.5,431.5C 352.5,431.5 353.5,431.5 354.5,431.5C 357.956,424.601 361.956,417.935 366.5,411.5C 379.437,388.113 379.77,364.447 367.5,340.5C 357.104,326.936 345.104,314.77 331.5,304C 326.009,301.851 320.509,299.684 315,297.5C 303.489,296.179 291.989,296.179 280.5,297.5C 284.244,295.638 288.244,294.138 292.5,293C 302.167,292.333 311.833,292.333 321.5,293C 327.536,295.87 333.703,298.37 340,300.5C 341.852,302.886 344.352,304.053 347.5,304C 350.622,306.909 353.955,309.409 357.5,311.5C 361.591,310.399 363.258,307.733 362.5,303.5C 362.334,297.491 362.501,291.491 363,285.5C 364.057,281.547 365.557,277.88 367.5,274.5C 367.5,273.5 367.5,272.5 367.5,271.5C 371.242,270.119 374.576,267.952 377.5,265C 385.656,262.552 393.99,261.886 402.5,263C 406.896,264.87 411.229,266.703 415.5,268.5C 415.5,269.5 415.5,270.5 415.5,271.5C 416.675,271.281 417.675,271.614 418.5,272.5C 429.913,288.887 429.08,304.553 416,319.5C 414.259,320.758 412.426,321.758 410.5,322.5 Z"/>
    <path fill="#f1cb49" d="M 390.5,313.5 C 389.167,313.5 387.833,313.5 386.5,313.5C 386.5,314.833 386.5,316.167 386.5,317.5C 383.452,319.033 380.785,321.2 378.5,324C 377.365,324.749 376.365,324.583 375.5,323.5C 372.314,319.155 368.981,314.988 365.5,311C 366.78,308.64 367.447,306.14 367.5,303.5C 370.155,303.341 372.488,302.341 374.5,300.5C 373.873,299.583 373.539,298.583 373.5,297.5C 383.429,293.729 389.762,297.062 392.5,307.5C 392.637,309.841 391.97,311.841 390.5,313.5 Z"/>
    <path fill="#fcf5e1" d="M 399.5,275.5 C 404.533,278.022 408.866,281.522 412.5,286C 413.412,290.446 413.745,294.946 413.5,299.5C 411.879,303.245 409.879,306.745 407.5,310C 404.048,310.892 401.048,312.558 398.5,315C 397.167,315.167 395.833,315.333 394.5,315.5C 392.667,315.415 391.334,314.748 390.5,313.5C 391.97,311.841 392.637,309.841 392.5,307.5C 389.762,297.062 383.429,293.729 373.5,297.5C 372.865,288.68 376.198,282.013 383.5,277.5C 388.676,275.816 394.009,275.15 399.5,275.5 Z"/>
    <path fill="#efcd84" d="M 326.5,511.5 C 323.749,524.323 321.916,537.323 321,550.5C 320.722,551.416 320.222,552.082 319.5,552.5C 320.21,541.481 321.21,530.481 322.5,519.5C 323.875,516.75 325.208,514.084 326.5,511.5 Z"/>
    <path fill="#f2cc4a" d="M 122.5,488.5 C 125.479,492.812 129.145,496.479 133.5,499.5C 134.768,501.304 135.435,503.304 135.5,505.5C 129.398,511.944 126.065,519.61 125.5,528.5C 125.904,545.476 133.904,557.31 149.5,564C 162.726,566.849 174.059,563.683 183.5,554.5C 184.117,554.389 184.617,554.056 185,553.5C 188.903,556.878 192.736,560.378 196.5,564C 197.448,564.483 198.448,564.649 199.5,564.5C 199.527,566.199 200.194,567.533 201.5,568.5C 198.711,571.624 195.378,573.957 191.5,575.5C 181.925,579.392 171.925,581.392 161.5,581.5C 154.211,581.745 147.544,579.912 141.5,576C 139.527,575.505 137.527,575.338 135.5,575.5C 135.719,574.325 135.386,573.325 134.5,572.5C 130.425,569.047 126.258,565.713 122,562.5C 119.162,556.816 115.828,551.483 112,546.5C 111.946,543.139 110.946,540.139 109,537.5C 107.122,524.839 108.956,512.839 114.5,501.5C 113.767,500.913 112.767,500.913 111.5,501.5C 112.047,497.737 114.047,495.07 117.5,493.5C 119.5,492.167 121.167,490.5 122.5,488.5 Z"/>
    <path fill="#e7af42" d="M 191.5,575.5 C 189.13,577.669 186.463,579.669 183.5,581.5C 178.264,583.6 172.931,585.433 167.5,587C 143.269,588.805 124.602,579.638 111.5,559.5C 109.818,554.627 107.652,549.961 105,545.5C 102.911,534.028 103.077,522.694 105.5,511.5C 107.863,508.451 109.863,505.118 111.5,501.5C 112.767,500.913 113.767,500.913 114.5,501.5C 108.956,512.839 107.122,524.839 109,537.5C 110.946,540.139 111.946,543.139 112,546.5C 115.828,551.483 119.162,556.816 122,562.5C 126.258,565.713 130.425,569.047 134.5,572.5C 135.386,573.325 135.719,574.325 135.5,575.5C 137.527,575.338 139.527,575.505 141.5,576C 147.544,579.912 154.211,581.745 161.5,581.5C 171.925,581.392 181.925,579.392 191.5,575.5 Z"/>
    <path fill="#f6dca2" d="M 319.5,559.5 C 318.383,571.016 315.049,581.682 309.5,591.5C 312.837,580.71 316.171,570.044 319.5,559.5 Z"/>
</g>
<g id="key">
    <path fill="#e2b076" d="M 133.5,303.5 C 134.552,303.351 135.552,303.517 136.5,304C 137.848,306.01 139.182,308.01 140.5,310C 139.685,311.98 138.352,313.48 136.5,314.5C 134.489,312.336 132.822,309.836 131.5,307C 131.808,305.541 132.475,304.374 133.5,303.5 Z"/>
<path fill="#e6b171" d="M 180.5,358.5 C 178.814,354.339 175.814,352.172 171.5,352C 161.217,362.291 151.217,372.791 141.5,383.5C 137.475,386.533 133.475,389.533 129.5,392.5C 121.14,384.472 112.807,376.472 104.5,368.5C 105.26,366.64 106.26,364.973 107.5,363.5C 108.833,364.167 110.167,364.833 111.5,365.5C 111.703,367.044 112.37,368.378 113.5,369.5C 118.119,374.422 122.952,379.089 128,383.5C 132.698,377.637 137.865,372.303 143.5,367.5C 149.855,363.145 155.188,357.812 159.5,351.5C 163.091,347.242 167.091,343.242 171.5,339.5C 176.289,343.745 180.622,348.411 184.5,353.5C 183.867,355.786 182.534,357.452 180.5,358.5 Z"/>
<path fill="#e9b270" d="M 146.5,313.5 C 153.456,321.126 160.456,328.793 167.5,336.5C 154.107,349.561 140.774,362.561 127.5,375.5C 122.449,370.445 117.115,365.778 111.5,361.5C 111.5,360.833 111.5,360.167 111.5,359.5C 116.594,355.523 121.594,351.356 126.5,347C 131.652,339.016 137.986,332.183 145.5,326.5C 146.583,325.635 146.749,324.635 146,323.5C 143.966,321.863 142.466,319.863 141.5,317.5C 142.353,315.107 144.019,313.774 146.5,313.5 Z"/>
<path fill="#5e5852" d="M 143.5,305.5 C 144.473,305.987 145.473,306.487 146.5,307C 183.057,344.389 219.724,381.556 256.5,418.5C 263.849,425.683 271.349,432.683 279,439.5C 279.667,440.833 279.667,442.167 279,443.5C 275.949,445.05 273.782,447.383 272.5,450.5C 271.761,450.369 271.094,450.536 270.5,451C 255.675,466.8 240.508,482.3 225,497.5C 222.525,504.174 222.025,510.841 223.5,517.5C 224.036,520.555 224.869,523.555 226,526.5C 243.5,544 261,561.5 278.5,579C 285.024,583.84 292.358,585.507 300.5,584C 307.369,581.651 313.369,577.818 318.5,572.5C 348.789,542.378 378.789,512.212 408.5,482C 409.094,481.536 409.761,481.369 410.5,481.5C 408.394,483.719 407.394,486.385 407.5,489.5C 407.631,490.239 407.464,490.906 407,491.5C 375.888,521.611 345.055,552.111 314.5,583C 309.833,585 305.167,587 300.5,589C 295.833,589.667 291.167,589.667 286.5,589C 283.558,586.514 280.224,584.681 276.5,583.5C 258.98,566.316 241.314,548.983 223.5,531.5C 217.262,520.853 216.096,509.519 220,497.5C 222.1,495.074 223.934,492.407 225.5,489.5C 240.44,475.227 255.107,460.56 269.5,445.5C 270.117,445.389 270.617,445.056 271,444.5C 271.667,442.5 271.667,440.5 271,438.5C 255.692,422.859 240.025,407.526 224,392.5C 223.517,391.552 223.351,390.552 223.5,389.5C 220.625,388.142 218.125,386.142 216,383.5C 201,397.667 186.167,412 171.5,426.5C 165.146,419.479 158.479,412.812 151.5,406.5C 149.006,404.201 146.506,401.867 144,399.5C 143.333,398.167 143.333,396.833 144,395.5C 156.636,383.494 168.803,371.161 180.5,358.5C 182.534,357.452 183.867,355.786 184.5,353.5C 180.622,348.411 176.289,343.745 171.5,339.5C 167.091,343.242 163.091,347.242 159.5,351.5C 153.758,356.575 148.425,361.908 143.5,367.5C 137.865,372.303 132.698,377.637 128,383.5C 122.952,379.089 118.119,374.422 113.5,369.5C 112.37,368.378 111.703,367.044 111.5,365.5C 111.5,364.167 111.5,362.833 111.5,361.5C 117.115,365.778 122.449,370.445 127.5,375.5C 140.774,362.561 154.107,349.561 167.5,336.5C 160.456,328.793 153.456,321.126 146.5,313.5C 148.225,313.157 148.725,312.157 148,310.5C 146.242,308.917 144.742,307.25 143.5,305.5 Z"/>
<path fill="#f8f2e2" d="M 184.5,361.5 C 187.055,363.606 189.388,365.94 191.5,368.5C 181.9,378.266 172.066,387.933 162,397.5C 160.24,399.721 158.74,402.055 157.5,404.5C 156.448,404.649 155.448,404.483 154.5,404C 153.219,401.597 151.386,399.763 149,398.5C 148.333,397.5 148.333,396.5 149,395.5C 161.118,384.21 172.952,372.876 184.5,361.5 Z"/>
<path fill="#ad8e65" d="M 159.5,351.5 C 155.188,357.812 149.855,363.145 143.5,367.5C 148.425,361.908 153.758,356.575 159.5,351.5 Z"/>
<path fill="#e9b270" d="M 157.5,404.5 C 158.74,402.055 160.24,399.721 162,397.5C 172.066,387.933 181.9,378.266 191.5,368.5C 189.388,365.94 187.055,363.606 184.5,361.5C 185.918,359.292 187.918,358.458 190.5,359C 196.75,365.588 203.25,371.754 210,377.5C 210.667,379.167 210.667,380.833 210,382.5C 197.194,393.973 185.027,406.14 173.5,419C 166.903,415.92 161.57,411.086 157.5,404.5 Z"/>
<path fill="#5f5e5b" d="M 420.5,473.5 C 419.37,475.315 418.704,477.315 418.5,479.5C 417.5,479.5 416.5,479.5 415.5,479.5C 413.974,483.698 411.307,487.032 407.5,489.5C 407.394,486.385 408.394,483.719 410.5,481.5C 411.728,478.044 413.228,474.71 415,471.5C 415.499,467.514 415.666,463.514 415.5,459.5C 415.412,454.987 413.912,450.987 411,447.5C 396.725,432.009 381.891,417.342 366.5,403.5C 353.367,387.965 338.7,386.465 322.5,399C 316.363,405.891 310.029,412.558 303.5,419C 301.545,421.071 299.212,421.738 296.5,421C 288.045,412.563 279.712,404.063 271.5,395.5C 249.916,373.581 228.249,351.581 206.5,329.5C 204.284,327.569 201.951,325.902 199.5,324.5C 183.18,307.68 166.68,291.013 150,274.5C 144.278,279.614 138.445,284.614 132.5,289.5C 131.759,293.675 133.425,296.675 137.5,298.5C 140.026,300.418 142.026,302.751 143.5,305.5C 144.742,307.25 146.242,308.917 148,310.5C 148.725,312.157 148.225,313.157 146.5,313.5C 144.019,313.774 142.353,315.107 141.5,317.5C 129.412,328.078 117.579,339.411 106,351.5C 105.582,353.788 106.249,355.788 108,357.5C 108.816,358.823 109.983,359.489 111.5,359.5C 111.5,360.167 111.5,360.833 111.5,361.5C 111.5,362.833 111.5,364.167 111.5,365.5C 110.167,364.833 108.833,364.167 107.5,363.5C 104.551,360.212 101.551,356.879 98.5,353.5C 111.27,340.399 123.937,327.399 136.5,314.5C 138.352,313.48 139.685,311.98 140.5,310C 139.182,308.01 137.848,306.01 136.5,304C 135.552,303.517 134.552,303.351 133.5,303.5C 131.976,299.798 129.81,296.464 127,293.5C 126.48,291.711 126.813,290.044 128,288.5C 134.5,282.167 141,275.833 147.5,269.5C 148.833,268.167 150.167,268.167 151.5,269.5C 199.897,318.396 248.23,366.896 296.5,415C 297.833,415.667 299.167,415.667 300.5,415C 307.5,408 314.5,401 321.5,394C 336.292,383.804 350.958,384.138 365.5,395C 382.641,411.808 399.474,428.975 416,446.5C 421.168,454.845 422.668,463.845 420.5,473.5 Z"/>
<path fill="#eab370" d="M 191.5,324.5 C 209.773,343.606 228.606,362.273 248,380.5C 248.483,381.448 248.649,382.448 248.5,383.5C 249.552,383.351 250.552,383.517 251.5,384C 257.85,390.912 264.517,397.412 271.5,403.5C 280.752,412.061 289.585,421.061 298,430.5C 298.307,433.876 300.14,435.21 303.5,434.5C 304.714,431.747 306.214,429.08 308,426.5C 312.973,423.691 317.139,420.024 320.5,415.5C 324.625,412.547 328.625,409.381 332.5,406C 335.004,405.302 337.337,404.469 339.5,403.5C 345.635,403.177 351.635,403.844 357.5,405.5C 360.744,407.555 363.91,409.889 367,412.5C 367.483,413.448 367.649,414.448 367.5,415.5C 368.552,415.351 369.552,415.517 370.5,416C 385.086,431.088 400.086,445.588 415.5,459.5C 415.666,463.514 415.499,467.514 415,471.5C 413.228,474.71 411.728,478.044 410.5,481.5C 409.761,481.369 409.094,481.536 408.5,482C 378.789,512.212 348.789,542.378 318.5,572.5C 313.369,577.818 307.369,581.651 300.5,584C 292.358,585.507 285.024,583.84 278.5,579C 261,561.5 243.5,544 226,526.5C 224.869,523.555 224.036,520.555 223.5,517.5C 223.547,514.072 224.713,511.072 227,508.5C 243.501,491.499 260.334,474.833 277.5,458.5C 278.833,457.167 278.833,455.833 277.5,454.5C 276.395,452.389 274.729,451.055 272.5,450.5C 273.782,447.383 275.949,445.05 279,443.5C 279.667,442.167 279.667,440.833 279,439.5C 271.349,432.683 263.849,425.683 256.5,418.5C 219.724,381.556 183.057,344.389 146.5,307C 145.473,306.487 144.473,305.987 143.5,305.5C 142.026,302.751 140.026,300.418 137.5,298.5C 141.506,293.522 146.173,289.189 151.5,285.5C 152.7,286.531 154.034,287.365 155.5,288C 167.033,300.699 179.033,312.866 191.5,324.5 Z"/>
<path fill="#e6b273" d="M 269.5,445.5 C 252.725,429.558 236.391,413.058 220.5,396C 218.833,395.333 217.167,395.333 215.5,396C 201.799,409.836 187.966,423.67 174,437.5C 167.562,430.991 160.895,424.657 154,418.5C 153.517,417.552 153.351,416.552 153.5,415.5C 152.178,415.67 151.011,415.337 150,414.5C 149.688,411.691 150.188,409.024 151.5,406.5C 158.479,412.812 165.146,419.479 171.5,426.5C 186.167,412 201,397.667 216,383.5C 218.125,386.142 220.625,388.142 223.5,389.5C 223.351,390.552 223.517,391.552 224,392.5C 240.025,407.526 255.692,422.859 271,438.5C 271.667,440.5 271.667,442.5 271,444.5C 270.617,445.056 270.117,445.389 269.5,445.5 Z"/>
<path fill="#625a50" d="M 377.5,452.5 C 376.542,452.047 375.708,451.381 375,450.5C 374.517,451.448 374.351,452.448 374.5,453.5C 366.61,447.61 359.61,440.61 353.5,432.5C 346.655,427.359 339.655,427.192 332.5,432C 310.963,454.87 288.797,477.037 266,498.5C 264.515,501.3 262.849,503.966 261,506.5C 260.333,509.833 260.333,513.167 261,516.5C 261.383,517.056 261.883,517.389 262.5,517.5C 262.5,518.167 262.5,518.833 262.5,519.5C 259.058,516.672 257.891,513.005 259,508.5C 259.454,506.464 260.287,504.63 261.5,503C 261.15,501.743 260.483,501.409 259.5,502C 258.362,504.629 257.029,507.129 255.5,509.5C 256.089,514.158 257.422,518.491 259.5,522.5C 253.646,515.293 253.146,507.626 258,499.5C 282.914,474.918 307.747,450.418 332.5,426C 340.578,422.302 348.244,422.969 355.5,428C 359.667,433.5 364.5,438.333 370,442.5C 372.976,445.544 375.476,448.878 377.5,452.5 Z"/>
<path fill="#fbf5e5" d="M 377.5,468.5 C 376.489,470.372 375.655,472.372 375,474.5C 352.058,496.275 329.558,518.608 307.5,541.5C 304.659,543.086 301.993,544.92 299.5,547C 296.106,547.752 292.773,547.585 289.5,546.5C 280.273,537.721 271.273,528.721 262.5,519.5C 262.5,518.833 262.5,518.167 262.5,517.5C 262.935,513.898 264.935,511.732 268.5,511C 270.333,508.5 272.167,506 274,503.5C 291.782,487.235 309.116,470.569 326,453.5C 327.974,449.692 330.808,446.692 334.5,444.5C 335.386,443.675 335.719,442.675 335.5,441.5C 340.149,440.705 344.816,440.539 349.5,441C 359.553,448.046 368.719,456.213 377,465.5C 377.483,466.448 377.649,467.448 377.5,468.5 Z"/>
<path fill="#e7b172" d="M 374.5,453.5 C 375.164,455.487 376.331,457.154 378,458.5C 378.808,462.027 378.641,465.36 377.5,468.5C 377.649,467.448 377.483,466.448 377,465.5C 368.719,456.213 359.553,448.046 349.5,441C 344.816,440.539 340.149,440.705 335.5,441.5C 335.719,442.675 335.386,443.675 334.5,444.5C 330.808,446.692 327.974,449.692 326,453.5C 309.116,470.569 291.782,487.235 274,503.5C 272.167,506 270.333,508.5 268.5,511C 264.935,511.732 262.935,513.898 262.5,517.5C 261.883,517.389 261.383,517.056 261,516.5C 260.333,513.167 260.333,509.833 261,506.5C 262.849,503.966 264.515,501.3 266,498.5C 288.797,477.037 310.963,454.87 332.5,432C 339.655,427.192 346.655,427.359 353.5,432.5C 359.61,440.61 366.61,447.61 374.5,453.5 Z"/>
<path fill="#5f5d5b" d="M 377.5,452.5 C 378.5,452.5 379.5,452.5 380.5,452.5C 380.284,454.681 381.117,456.347 383,457.5C 383.499,461.821 383.666,466.154 383.5,470.5C 359.052,494.491 334.719,518.991 310.5,544C 306.262,548.119 301.262,550.619 295.5,551.5C 292.298,551.302 289.298,550.469 286.5,549C 277.302,540.633 268.302,532.133 259.5,523.5C 259.5,523.167 259.5,522.833 259.5,522.5C 257.422,518.491 256.089,514.158 255.5,509.5C 257.029,507.129 258.362,504.629 259.5,502C 260.483,501.409 261.15,501.743 261.5,503C 260.287,504.63 259.454,506.464 259,508.5C 257.891,513.005 259.058,516.672 262.5,519.5C 271.273,528.721 280.273,537.721 289.5,546.5C 292.773,547.585 296.106,547.752 299.5,547C 301.993,544.92 304.659,543.086 307.5,541.5C 329.558,518.608 352.058,496.275 375,474.5C 375.655,472.372 376.489,470.372 377.5,468.5C 378.641,465.36 378.808,462.027 378,458.5C 376.331,457.154 375.164,455.487 374.5,453.5C 374.351,452.448 374.517,451.448 375,450.5C 375.708,451.381 376.542,452.047 377.5,452.5 Z"/>
<path fill="#f8f3e2" d="M 383.5,470.5 C 384.405,477.325 383.238,483.658 380,489.5C 374.027,494.14 368.694,499.473 364,505.5C 356.808,512.028 349.641,518.528 342.5,525C 338.386,530.903 333.386,535.903 327.5,540C 321.146,548.019 314.146,555.352 306.5,562C 298.836,564.784 291.836,563.784 285.5,559C 276.215,550.555 267.882,541.389 260.5,531.5C 259.52,528.914 259.187,526.247 259.5,523.5C 268.302,532.133 277.302,540.633 286.5,549C 289.298,550.469 292.298,551.302 295.5,551.5C 301.262,550.619 306.262,548.119 310.5,544C 334.719,518.991 359.052,494.491 383.5,470.5 Z"/>
<path fill="#555552" d="M 122.5,573.5 C 166.833,573.5 211.167,573.5 255.5,573.5C 257.027,573.427 258.027,574.094 258.5,575.5C 211.665,576.831 164.665,576.831 117.5,575.5C 119.291,574.83 120.958,574.163 122.5,573.5 Z"/>
<path fill="#5c5b58" d="M 338.5,573.5 C 358.167,573.5 377.833,573.5 397.5,573.5C 397.5,574.833 397.5,576.167 397.5,577.5C 376.833,577.5 356.167,577.5 335.5,577.5C 335.738,575.596 336.738,574.262 338.5,573.5 Z"/>
<path fill="#72706b" d="M 122.5,573.5 C 120.958,574.163 119.291,574.83 117.5,575.5C 164.665,576.831 211.665,576.831 258.5,575.5C 259.338,575.842 259.672,576.508 259.5,577.5C 211.833,577.5 164.167,577.5 116.5,577.5C 116.5,576.167 116.5,574.833 116.5,573.5C 118.5,573.5 120.5,573.5 122.5,573.5 Z"/>
<path fill="#e6b172" d="M 420.5,473.5 C 421.638,476.304 421.805,479.304 421,482.5C 418.58,487.33 416.746,492.33 415.5,497.5C 409.631,500.198 405.131,504.532 402,510.5C 390.019,521.917 377.853,533.25 365.5,544.5C 356.817,554.514 347.817,564.181 338.5,573.5C 336.738,574.262 335.738,575.596 335.5,577.5C 333.186,579.477 330.853,581.477 328.5,583.5C 326.738,584.262 325.738,585.596 325.5,587.5C 322.029,588.633 320.029,590.967 319.5,594.5C 314.523,597.852 309.19,600.185 303.5,601.5C 297.322,601.893 291.322,601.06 285.5,599C 279.986,594.977 274.653,590.81 269.5,586.5C 268.738,584.738 267.404,583.738 265.5,583.5C 265.205,579.871 263.205,577.871 259.5,577.5C 259.672,576.508 259.338,575.842 258.5,575.5C 258.027,574.094 257.027,573.427 255.5,573.5C 255.649,572.448 255.483,571.448 255,570.5C 245.023,561.935 235.857,552.602 227.5,542.5C 224.752,539.339 223.419,535.673 223.5,531.5C 241.314,548.983 258.98,566.316 276.5,583.5C 280.224,584.681 283.558,586.514 286.5,589C 291.167,589.667 295.833,589.667 300.5,589C 305.167,587 309.833,585 314.5,583C 345.055,552.111 375.888,521.611 407,491.5C 407.464,490.906 407.631,490.239 407.5,489.5C 411.307,487.032 413.974,483.698 415.5,479.5C 416.5,479.5 417.5,479.5 418.5,479.5C 418.704,477.315 419.37,475.315 420.5,473.5 Z"/>
<path fill="#5c5b59" d="M 265.5,583.5 C 267.404,583.738 268.738,584.738 269.5,586.5C 259.347,587.494 249.014,587.828 238.5,587.5C 238.5,586.167 238.5,584.833 238.5,583.5C 247.5,583.5 256.5,583.5 265.5,583.5 Z"/>
<path fill="#5c5b59" d="M 328.5,583.5 C 335.833,583.5 343.167,583.5 350.5,583.5C 350.5,584.833 350.5,586.167 350.5,587.5C 342.167,587.5 333.833,587.5 325.5,587.5C 325.738,585.596 326.738,584.262 328.5,583.5 Z"/>
</g>

<g id="moon">

<path fill="#a78369" d="M 305.5,276.5 C 303.473,276.662 301.473,276.495 299.5,276C 290.656,272.05 281.656,268.883 272.5,266.5C 268.395,264.218 262.729,262.718 255.5,262C 244.5,261.333 233.5,261.333 222.5,262C 216.913,262.751 211.413,263.918 206,265.5C 204.238,265.056 204.405,264.556 206.5,264C 241.144,255.645 274.144,259.811 305.5,276.5 Z"/>
<path fill="#ad8a70" d="M 210.5,271.5 C 210.918,272.222 211.584,272.722 212.5,273C 209.403,275.446 206.069,275.946 202.5,274.5C 204.936,273.129 207.603,272.129 210.5,271.5 Z"/>
<path fill="#95735f" d="M 236.5,265.5 C 233.947,266.255 231.28,266.922 228.5,267.5C 208.976,265.795 190.643,269.961 173.5,280C 166.777,284.357 160.444,289.19 154.5,294.5C 154.167,294.5 153.833,294.5 153.5,294.5C 153.5,294.167 153.5,293.833 153.5,293.5C 167.728,279.886 184.395,270.719 203.5,266C 200.937,266.763 200.937,267.263 203.5,267.5C 214.422,265.753 225.422,265.086 236.5,265.5 Z"/>
<path fill="#a78971" d="M 305.5,276.5 C 310.274,278.197 314.94,280.197 319.5,282.5C 318.167,283.167 316.833,283.833 315.5,284.5C 317.527,291.421 314.86,295.088 307.5,295.5C 299.187,297.168 291.187,296.501 283.5,293.5C 284.492,293.672 285.158,293.338 285.5,292.5C 295.135,295.424 304.635,295.09 314,291.5C 314.497,289.19 314.663,286.857 314.5,284.5C 311.763,284.401 309.096,284.735 306.5,285.5C 305.737,284.732 304.737,284.232 303.5,284C 304.044,283.283 304.711,282.783 305.5,282.5C 307.265,283.461 309.265,283.795 311.5,283.5C 311.719,282.325 311.386,281.325 310.5,280.5C 308.493,278.797 306.493,278.463 304.5,279.5C 303.957,279.44 303.624,279.107 303.5,278.5C 304.243,277.818 304.909,277.151 305.5,276.5 Z"/>
<path fill="#85492a" d="M 272.5,266.5 C 281.656,268.883 290.656,272.05 299.5,276C 301.473,276.495 303.473,276.662 305.5,276.5C 304.909,277.151 304.243,277.818 303.5,278.5C 303.624,279.107 303.957,279.44 304.5,279.5C 305.404,280.209 305.737,281.209 305.5,282.5C 304.711,282.783 304.044,283.283 303.5,284C 304.737,284.232 305.737,284.732 306.5,285.5C 301.53,286.353 296.53,287.02 291.5,287.5C 284.038,286.22 276.704,286.22 269.5,287.5C 261.796,288.686 254.463,291.02 247.5,294.5C 245.233,295.423 242.9,296.256 240.5,297C 239.402,297.77 239.402,298.603 240.5,299.5C 235.907,300.064 231.574,301.397 227.5,303.5C 226.022,303.238 224.689,303.571 223.5,304.5C 222.687,305.814 221.687,306.981 220.5,308C 221.449,308.617 222.282,308.451 223,307.5C 223.464,308.094 223.631,308.761 223.5,309.5C 220.437,311.025 217.77,313.025 215.5,315.5C 214.624,315.631 213.957,315.298 213.5,314.5C 214.313,313.186 215.313,312.019 216.5,311C 215.944,310.617 215.611,310.117 215.5,309.5C 217.735,308.613 218.235,307.613 217,306.5C 214.747,307.377 212.581,308.377 210.5,309.5C 210.062,309.565 209.728,309.399 209.5,309C 227.553,294.253 248.22,285.42 271.5,282.5C 280.506,282.666 289.506,282.5 298.5,282C 292.626,280.095 286.626,278.928 280.5,278.5C 276.409,277.105 272.076,276.438 267.5,276.5C 223.432,271.967 184.766,284.301 151.5,313.5C 138.291,324.041 127.624,336.708 119.5,351.5C 116.326,356.516 113.659,361.849 111.5,367.5C 106.822,375.85 103.822,384.85 102.5,394.5C 100.59,401.451 98.9237,408.451 97.5,415.5C 96.7004,420.694 95.8671,426.028 95,431.5C 94.8079,423.244 93.9745,415.078 92.5,407C 92.8767,402.486 93.3767,397.986 94,393.5C 94.6152,391.884 95.6152,390.551 97,389.5C 97.4955,387.527 97.6621,385.527 97.5,383.5C 98.675,383.719 99.675,383.386 100.5,382.5C 99.5585,382.511 98.8919,382.011 98.5,381C 99.2865,378.901 99.6199,376.734 99.5,374.5C 103.319,364.865 107.653,355.532 112.5,346.5C 113.791,346.737 114.791,346.404 115.5,345.5C 124.57,334.362 132.903,322.695 140.5,310.5C 142.054,309.086 143.388,307.419 144.5,305.5C 143.645,304.707 142.811,305.04 142,306.5C 141.517,305.552 141.351,304.552 141.5,303.5C 146.066,301.269 150.066,298.269 153.5,294.5C 153.833,294.5 154.167,294.5 154.5,294.5C 153.537,295.363 153.537,296.03 154.5,296.5C 169.516,286.992 185.516,279.658 202.5,274.5C 206.069,275.946 209.403,275.446 212.5,273C 211.584,272.722 210.918,272.222 210.5,271.5C 216.5,270.167 222.5,268.833 228.5,267.5C 231.28,266.922 233.947,266.255 236.5,265.5C 248.529,264.168 260.529,264.501 272.5,266.5 Z"/>
<path fill="#ead177" d="M 280.5,278.5 C 286.626,278.928 292.626,280.095 298.5,282C 289.506,282.5 280.506,282.666 271.5,282.5C 274.701,280.74 278.367,279.906 282.5,280C 281.584,279.722 280.918,279.222 280.5,278.5 Z"/>
<path fill="#a17553" d="M 269.5,287.5 C 276.704,286.22 284.038,286.22 291.5,287.5C 288.772,289.076 285.772,289.576 282.5,289C 283.5,288.667 284.5,288.333 285.5,288C 280.177,287.501 274.844,287.334 269.5,287.5 Z"/>
<path fill="#f4e379" d="M 267.5,276.5 C 272.076,276.438 276.409,277.105 280.5,278.5C 280.918,279.222 281.584,279.722 282.5,280C 278.367,279.906 274.701,280.74 271.5,282.5C 248.22,285.42 227.553,294.253 209.5,309C 209.728,309.399 210.062,309.565 210.5,309.5C 204.225,313.109 198.892,317.776 194.5,323.5C 194.118,320.35 192.784,317.683 190.5,315.5C 184.948,318.44 179.948,322.106 175.5,326.5C 177.86,324.135 179.86,321.468 181.5,318.5C 184.102,315.723 187.102,313.556 190.5,312C 192.804,309.359 195.138,306.692 197.5,304C 202.668,300.327 208.001,296.66 213.5,293C 224.721,286.893 236.387,281.56 248.5,277C 254.825,276.5 261.158,276.334 267.5,276.5 Z"/>
<path fill="#f5eac9" d="M 285.5,292.5 C 283.073,292.477 280.74,291.977 278.5,291C 282.414,290.103 282.248,289.603 278,289.5C 268.37,290.722 258.87,292.722 249.5,295.5C 248.584,295.457 247.917,295.124 247.5,294.5C 254.463,291.02 261.796,288.686 269.5,287.5C 274.844,287.334 280.177,287.501 285.5,288C 284.5,288.333 283.5,288.667 282.5,289C 285.772,289.576 288.772,289.076 291.5,287.5C 296.53,287.02 301.53,286.353 306.5,285.5C 309.096,284.735 311.763,284.401 314.5,284.5C 314.663,286.857 314.497,289.19 314,291.5C 304.635,295.09 295.135,295.424 285.5,292.5 Z"/>
<path fill="#a07a5a" d="M 285.5,292.5 C 285.158,293.338 284.492,293.672 283.5,293.5C 277.862,292.541 272.195,292.374 266.5,293C 251.607,297.239 237.273,302.739 223.5,309.5C 223.631,308.761 223.464,308.094 223,307.5C 222.282,308.451 221.449,308.617 220.5,308C 221.687,306.981 222.687,305.814 223.5,304.5C 224.689,303.571 226.022,303.238 227.5,303.5C 227.047,304.458 226.381,305.292 225.5,306C 225.833,306.167 226.167,306.333 226.5,306.5C 231.822,304.044 236.489,301.711 240.5,299.5C 239.402,298.603 239.402,297.77 240.5,297C 242.9,296.256 245.233,295.423 247.5,294.5C 247.917,295.124 248.584,295.457 249.5,295.5C 258.87,292.722 268.37,290.722 278,289.5C 282.248,289.603 282.414,290.103 278.5,291C 280.74,291.977 283.073,292.477 285.5,292.5 Z"/>
<path fill="#f8f0a7" d="M 267.5,276.5 C 261.158,276.334 254.825,276.5 248.5,277C 236.387,281.56 224.721,286.893 213.5,293C 208.001,296.66 202.668,300.327 197.5,304C 195.138,306.692 192.804,309.359 190.5,312C 187.102,313.556 184.102,315.723 181.5,318.5C 179.86,321.468 177.86,324.135 175.5,326.5C 173.5,329.5 171.5,332.5 169.5,335.5C 169.167,335.5 168.833,335.5 168.5,335.5C 167.504,335.414 166.671,335.748 166,336.5C 165.833,335.833 165.667,335.167 165.5,334.5C 166.351,332.147 166.851,329.813 167,327.5C 165.326,329.009 163.66,329.676 162,329.5C 161.808,327.423 161.308,325.423 160.5,323.5C 159.614,324.325 159.281,325.325 159.5,326.5C 155.489,326.178 152.489,324.178 150.5,320.5C 151.376,319.749 152.376,319.249 153.5,319C 151.808,317.599 151.141,315.766 151.5,313.5C 184.766,284.301 223.432,271.967 267.5,276.5 Z"/>
<path fill="#eacbaa" d="M 240.5,299.5 C 236.489,301.711 231.822,304.044 226.5,306.5C 226.167,306.333 225.833,306.167 225.5,306C 226.381,305.292 227.047,304.458 227.5,303.5C 231.574,301.397 235.907,300.064 240.5,299.5 Z"/>
<path fill="#f6f1cd" d="M 283.5,293.5 C 291.187,296.501 299.187,297.168 307.5,295.5C 308.091,296.151 308.757,296.818 309.5,297.5C 307.604,298.466 305.604,298.799 303.5,298.5C 303.5,299.5 303.5,300.5 303.5,301.5C 292.838,302.5 282.171,303.5 271.5,304.5C 259.16,307.556 246.827,310.723 234.5,314C 230.718,315.954 227.385,318.454 224.5,321.5C 223.614,322.325 223.281,323.325 223.5,324.5C 220.642,325.507 218.142,327.173 216,329.5C 213.429,334.154 210.262,338.321 206.5,342C 202.059,346.211 197.059,349.378 191.5,351.5C 191.5,352.5 191.5,353.5 191.5,354.5C 188.412,354.639 185.745,355.639 183.5,357.5C 183.405,359.786 182.738,361.786 181.5,363.5C 182.279,357.036 184.279,351.036 187.5,345.5C 196.438,335.225 205.772,325.225 215.5,315.5C 217.77,313.025 220.437,311.025 223.5,309.5C 237.273,302.739 251.607,297.239 266.5,293C 272.195,292.374 277.862,292.541 283.5,293.5 Z"/>
<path fill="#f2e8c1" d="M 215.5,309.5 C 207.535,316.964 199.702,324.631 192,332.5C 191.952,329.587 192.785,326.921 194.5,324.5C 194.5,324.167 194.5,323.833 194.5,323.5C 198.892,317.776 204.225,313.109 210.5,309.5C 212.581,308.377 214.747,307.377 217,306.5C 218.235,307.613 217.735,308.613 215.5,309.5 Z"/>
<path fill="#f1cb63" d="M 194.5,323.5 C 194.5,323.833 194.5,324.167 194.5,324.5C 192.1,326.296 190.433,328.63 189.5,331.5C 185.436,335.947 182.102,340.947 179.5,346.5C 178.504,346.586 177.671,346.252 177,345.5C 176.666,343.153 176.833,340.819 177.5,338.5C 176.178,338.33 175.011,338.663 174,339.5C 172.38,338.94 170.88,337.607 169.5,335.5C 171.5,332.5 173.5,329.5 175.5,326.5C 179.948,322.106 184.948,318.44 190.5,315.5C 192.784,317.683 194.118,320.35 194.5,323.5 Z"/>
<path fill="#986e4d" d="M 215.5,309.5 C 215.611,310.117 215.944,310.617 216.5,311C 215.313,312.019 214.313,313.186 213.5,314.5C 213.957,315.298 214.624,315.631 215.5,315.5C 205.772,325.225 196.438,335.225 187.5,345.5C 186.167,344.5 186.167,343.5 187.5,342.5C 194.239,335.251 201.572,327.751 209.5,320C 208.833,319.333 208.167,319.333 207.5,320C 202.425,324.849 197.425,329.682 192.5,334.5C 191.5,333.5 190.5,332.5 189.5,331.5C 190.433,328.63 192.1,326.296 194.5,324.5C 192.785,326.921 191.952,329.587 192,332.5C 199.702,324.631 207.535,316.964 215.5,309.5 Z"/>
<path fill="#f7e698" d="M 151.5,313.5 C 151.141,315.766 151.808,317.599 153.5,319C 152.376,319.249 151.376,319.749 150.5,320.5C 152.489,324.178 155.489,326.178 159.5,326.5C 159.281,325.325 159.614,324.325 160.5,323.5C 161.308,325.423 161.808,327.423 162,329.5C 163.66,329.676 165.326,329.009 167,327.5C 166.851,329.813 166.351,332.147 165.5,334.5C 165.667,335.167 165.833,335.833 166,336.5C 166.671,335.748 167.504,335.414 168.5,335.5C 164.424,341.981 160.59,348.647 157,355.5C 156.541,359.759 155.375,363.759 153.5,367.5C 153.167,367.5 152.833,367.5 152.5,367.5C 150.665,368.122 149.498,369.456 149,371.5C 148.51,370.207 148.343,368.873 148.5,367.5C 147.5,367.5 146.5,367.5 145.5,367.5C 145.662,369.527 145.495,371.527 145,373.5C 142.167,373.374 139.333,372.374 136.5,370.5C 134.612,377.039 133.778,377.039 134,370.5C 132.438,368.566 130.605,366.899 128.5,365.5C 127.614,364.675 127.281,363.675 127.5,362.5C 125.058,362.119 124.391,362.786 125.5,364.5C 123.952,368.417 122.619,368.251 121.5,364C 122.96,363.189 123.293,362.355 122.5,361.5C 119.891,362.443 117.891,364.11 116.5,366.5C 116.167,365.833 115.833,365.167 115.5,364.5C 117.265,360.211 118.599,355.877 119.5,351.5C 127.624,336.708 138.291,324.041 151.5,313.5 Z"/>
<path fill="#efbd59" d="M 168.5,335.5 C 168.833,335.5 169.167,335.5 169.5,335.5C 170.88,337.607 172.38,338.94 174,339.5C 175.011,338.663 176.178,338.33 177.5,338.5C 176.833,340.819 176.666,343.153 177,345.5C 177.671,346.252 178.504,346.586 179.5,346.5C 177.086,351.423 175.086,356.423 173.5,361.5C 172.85,361.804 172.183,362.137 171.5,362.5C 170.646,361.478 169.646,360.645 168.5,360C 165.242,359.788 162.076,359.288 159,358.5C 157.237,361.715 155.403,364.715 153.5,367.5C 155.375,363.759 156.541,359.759 157,355.5C 160.59,348.647 164.424,341.981 168.5,335.5 Z"/>
<path fill="#9c7858" d="M 141.5,303.5 C 141.351,304.552 141.517,305.552 142,306.5C 142.811,305.04 143.645,304.707 144.5,305.5C 143.388,307.419 142.054,309.086 140.5,310.5C 140.565,310.062 140.399,309.728 140,309.5C 133.333,317.5 126.667,325.5 120,333.5C 117.639,336.888 115.806,340.554 114.5,344.5C 114.624,345.107 114.957,345.44 115.5,345.5C 114.791,346.404 113.791,346.737 112.5,346.5C 112.804,345.85 113.137,345.183 113.5,344.5C 113.154,343.304 112.654,343.304 112,344.5C 103.878,355.742 97.0446,367.742 91.5,380.5C 90.8333,380.5 90.5,380.167 90.5,379.5C 92.1667,375.5 93.8333,371.5 95.5,367.5C 101.481,357.554 107.981,347.887 115,338.5C 120.467,324.21 129.3,312.543 141.5,303.5 Z"/>
<path fill="#864828" d="M 189.5,331.5 C 190.5,332.5 191.5,333.5 192.5,334.5C 190.322,336.858 188.655,339.525 187.5,342.5C 186.167,343.5 186.167,344.5 187.5,345.5C 184.279,351.036 182.279,357.036 181.5,363.5C 180.566,364.568 180.232,365.901 180.5,367.5C 179.732,369.715 179.065,372.048 178.5,374.5C 177.766,375.708 177.433,377.041 177.5,378.5C 176.715,380.374 176.048,382.374 175.5,384.5C 174.841,387.455 174.508,390.455 174.5,393.5C 173.508,393.328 172.842,393.662 172.5,394.5C 170.562,398.982 169.229,403.649 168.5,408.5C 167.511,403.025 167.178,397.358 167.5,391.5C 169.013,381.378 171.013,371.378 173.5,361.5C 175.086,356.423 177.086,351.423 179.5,346.5C 182.102,340.947 185.436,335.947 189.5,331.5 Z"/>
<path fill="#ecae4a" d="M 173.5,361.5 C 171.013,371.378 169.013,381.378 167.5,391.5C 166.542,391.953 165.708,392.619 165,393.5C 163.54,391.028 162.54,388.361 162,385.5C 161.581,386.672 160.915,387.672 160,388.5C 158.562,387.1 157.729,385.433 157.5,383.5C 155.089,383.137 153.589,384.137 153,386.5C 152.667,385.167 152.333,383.833 152,382.5C 148.37,387.693 147.703,393.36 150,399.5C 154.219,406.534 157.719,413.867 160.5,421.5C 160.5,422.833 160.5,424.167 160.5,425.5C 158.097,425.607 156.264,424.607 155,422.5C 154.667,422.833 154.333,423.167 154,423.5C 153.957,420.783 152.957,420.116 151,421.5C 147.327,420.681 144.661,418.681 143,415.5C 142.5,416.5 142,417.5 141.5,418.5C 142.439,422.765 142.772,427.098 142.5,431.5C 138.208,418.078 138.541,404.745 143.5,391.5C 143.5,388.833 143.5,386.167 143.5,383.5C 144.5,383.5 145.5,383.5 146.5,383.5C 149.555,378.695 151.555,373.361 152.5,367.5C 152.833,367.5 153.167,367.5 153.5,367.5C 155.403,364.715 157.237,361.715 159,358.5C 162.076,359.288 165.242,359.788 168.5,360C 169.646,360.645 170.646,361.478 171.5,362.5C 172.183,362.137 172.85,361.804 173.5,361.5 Z"/>
<path fill="#ab8f7c" d="M 180.5,367.5 C 184.19,384.974 187.023,402.641 189,420.5C 191.549,431.367 194.716,442.034 198.5,452.5C 194.822,445.995 191.989,438.995 190,431.5C 187.018,416.943 184.685,402.276 183,387.5C 182.427,382.721 180.927,378.387 178.5,374.5C 179.065,372.048 179.732,369.715 180.5,367.5 Z"/>
<path fill="#f6d987" d="M 119.5,351.5 C 118.599,355.877 117.265,360.211 115.5,364.5C 115.833,365.167 116.167,365.833 116.5,366.5C 117.891,364.11 119.891,362.443 122.5,361.5C 123.293,362.355 122.96,363.189 121.5,364C 122.619,368.251 123.952,368.417 125.5,364.5C 124.391,362.786 125.058,362.119 127.5,362.5C 127.281,363.675 127.614,364.675 128.5,365.5C 130.605,366.899 132.438,368.566 134,370.5C 133.778,377.039 134.612,377.039 136.5,370.5C 139.333,372.374 142.167,373.374 145,373.5C 145.495,371.527 145.662,369.527 145.5,367.5C 146.5,367.5 147.5,367.5 148.5,367.5C 148.343,368.873 148.51,370.207 149,371.5C 149.498,369.456 150.665,368.122 152.5,367.5C 151.555,373.361 149.555,378.695 146.5,383.5C 145.5,383.5 144.5,383.5 143.5,383.5C 143.5,386.167 143.5,388.833 143.5,391.5C 141.827,392.343 140.66,393.676 140,395.5C 138.865,403.567 136.532,411.234 133,418.5C 131.934,414.236 130.934,409.903 130,405.5C 129.822,410.784 129.155,416.118 128,421.5C 127.501,417.848 127.335,414.182 127.5,410.5C 120.821,409.474 114.154,408.307 107.5,407C 107.167,406.667 106.833,406.333 106.5,406C 108.016,404.103 108.683,401.936 108.5,399.5C 107.167,399.5 105.833,399.5 104.5,399.5C 104.178,397.278 104.845,395.444 106.5,394C 104.582,392.23 104.082,390.063 105,387.5C 106,385.833 107,384.167 108,382.5C 109.292,377.498 110.458,372.498 111.5,367.5C 113.659,361.849 116.326,356.516 119.5,351.5 Z"/>
<path fill="#edd6b5" d="M 401.5,377.5 C 401.611,378.117 401.944,378.617 402.5,379C 399.619,380.251 397.786,382.417 397,385.5C 394.761,399.737 393.927,414.07 394.5,428.5C 392.856,428.286 391.356,428.62 390,429.5C 391.68,412.066 394.18,394.733 397.5,377.5C 398.833,377.5 400.167,377.5 401.5,377.5 Z"/>
<path fill="#a68c7b" d="M 90.5,379.5 C 90.5,380.167 90.8333,380.5 91.5,380.5C 90.8902,381.391 90.5569,382.391 90.5,383.5C 81.9553,399.435 80.2886,416.102 85.5,433.5C 85.5,434.167 85.5,434.833 85.5,435.5C 83.8368,433.507 82.6701,431.174 82,428.5C 79.0164,411.064 81.8498,394.731 90.5,379.5 Z"/>
<path fill="#9c7c67" d="M 177.5,378.5 C 178.412,388.153 178.579,397.82 178,407.5C 177.963,409.974 177.13,411.974 175.5,413.5C 174.833,413.5 174.5,413.167 174.5,412.5C 175.665,411.504 176.332,410.171 176.5,408.5C 175.474,404.204 174.641,399.871 174,395.5C 173.617,394.944 173.117,394.611 172.5,394.5C 172.842,393.662 173.508,393.328 174.5,393.5C 175.533,396.986 176.367,400.653 177,404.5C 177.929,397.582 177.429,390.915 175.5,384.5C 176.048,382.374 176.715,380.374 177.5,378.5 Z"/>
<path fill="#e9923a" d="M 167.5,391.5 C 167.178,397.358 167.511,403.025 168.5,408.5C 168.927,416.251 169.927,423.918 171.5,431.5C 172.205,434.244 172.205,436.911 171.5,439.5C 168.25,434.001 165.25,428.334 162.5,422.5C 162.043,421.702 161.376,421.369 160.5,421.5C 157.719,413.867 154.219,406.534 150,399.5C 147.703,393.36 148.37,387.693 152,382.5C 152.333,383.833 152.667,385.167 153,386.5C 153.589,384.137 155.089,383.137 157.5,383.5C 157.729,385.433 158.562,387.1 160,388.5C 160.915,387.672 161.581,386.672 162,385.5C 162.54,388.361 163.54,391.028 165,393.5C 165.708,392.619 166.542,391.953 167.5,391.5 Z"/>
<path fill="#f6f1ce" d="M 394.5,381.5 C 392.141,398.182 389.641,414.848 387,431.5C 379.893,440.049 374.06,449.382 369.5,459.5C 368.833,459.833 368.167,460.167 367.5,460.5C 367.909,456.736 367.909,453.07 367.5,449.5C 368.781,446.483 369.947,443.483 371,440.5C 373.666,426.613 376.832,412.947 380.5,399.5C 381.5,399.5 382.5,399.5 383.5,399.5C 383.337,397.143 383.503,394.81 384,392.5C 385.663,390.842 386.496,388.842 386.5,386.5C 387.5,386.5 388.5,386.5 389.5,386.5C 389.999,383.736 391.665,382.069 394.5,381.5 Z"/>
<path fill="#93752e" d="M 408.5,384.5 C 410.531,387.422 411.698,390.755 412,394.5C 412.5,401.492 412.666,408.492 412.5,415.5C 412.5,416.5 412.5,417.5 412.5,418.5C 411.672,412.347 411.172,406.013 411,399.5C 410.94,395.574 410.106,392.574 408.5,390.5C 407.427,388.653 407.427,386.653 408.5,384.5 Z"/>
<path fill="#864b23" d="M 401.5,377.5 C 404.089,378.419 406.089,380.086 407.5,382.5C 407.833,383.167 408.167,383.833 408.5,384.5C 407.427,386.653 407.427,388.653 408.5,390.5C 409.209,401.146 409.709,411.813 410,422.5C 411.043,418.774 411.543,419.107 411.5,423.5C 410.963,428.851 410.296,434.184 409.5,439.5C 409.052,426.079 407.719,412.746 405.5,399.5C 404.782,393.629 403.282,387.963 401,382.5C 402.074,396.924 401.241,411.258 398.5,425.5C 397.232,427.905 396.565,430.572 396.5,433.5C 395.833,433.833 395.167,434.167 394.5,434.5C 394.5,433.167 394.5,431.833 394.5,430.5C 394.5,429.833 394.5,429.167 394.5,428.5C 393.927,414.07 394.761,399.737 397,385.5C 397.786,382.417 399.619,380.251 402.5,379C 401.944,378.617 401.611,378.117 401.5,377.5 Z"/>
<path fill="#edd55e" d="M 405.5,399.5 C 406.408,413.903 406.742,428.237 406.5,442.5C 405.817,437.975 404.317,433.641 402,429.5C 400.883,430.949 400.216,432.616 400,434.5C 398.851,431.607 398.351,428.607 398.5,425.5C 401.241,411.258 402.074,396.924 401,382.5C 403.282,387.963 404.782,393.629 405.5,399.5 Z"/>
<path fill="#8b5533" d="M 99.5,374.5 C 99.6199,376.734 99.2865,378.901 98.5,381C 98.8919,382.011 99.5585,382.511 100.5,382.5C 99.675,383.386 98.675,383.719 97.5,383.5C 97.6621,385.527 97.4955,387.527 97,389.5C 95.6152,390.551 94.6152,391.884 94,393.5C 93.3767,397.986 92.8767,402.486 92.5,407C 93.9745,415.078 94.8079,423.244 95,431.5C 95.8671,426.028 96.7004,420.694 97.5,415.5C 96.9602,436.18 99.2936,456.514 104.5,476.5C 103.59,474.981 102.757,473.315 102,471.5C 101.722,474.721 100.889,477.721 99.5,480.5C 98.8333,479.833 98.1667,479.167 97.5,478.5C 96.2368,473.968 94.4035,469.635 92,465.5C 89.6929,457.324 88.3596,448.991 88,440.5C 86.6283,439.09 85.795,437.423 85.5,435.5C 86.1174,435.611 86.6174,435.944 87,436.5C 87.3333,431.167 87.6667,425.833 88,420.5C 90.4525,411.313 92.1192,401.98 93,392.5C 94.5042,386.145 96.6709,380.145 99.5,374.5 Z"/>
<path fill="#dabe75" d="M 412.5,418.5 C 412.784,420.415 412.451,422.081 411.5,423.5C 411.543,419.107 411.043,418.774 410,422.5C 409.709,411.813 409.209,401.146 408.5,390.5C 410.106,392.574 410.94,395.574 411,399.5C 411.172,406.013 411.672,412.347 412.5,418.5 Z"/>
<path fill="#f5ce7a" d="M 111.5,367.5 C 110.458,372.498 109.292,377.498 108,382.5C 107,384.167 106,385.833 105,387.5C 104.082,390.063 104.582,392.23 106.5,394C 104.845,395.444 104.178,397.278 104.5,399.5C 105.833,399.5 107.167,399.5 108.5,399.5C 108.683,401.936 108.016,404.103 106.5,406C 106.833,406.333 107.167,406.667 107.5,407C 114.154,408.307 120.821,409.474 127.5,410.5C 127.335,414.182 127.501,417.848 128,421.5C 129.155,416.118 129.822,410.784 130,405.5C 130.934,409.903 131.934,414.236 133,418.5C 136.532,411.234 138.865,403.567 140,395.5C 140.66,393.676 141.827,392.343 143.5,391.5C 138.541,404.745 138.208,418.078 142.5,431.5C 144.615,440.164 148.282,448.164 153.5,455.5C 153.33,456.822 153.663,457.989 154.5,459C 153.167,459.667 151.833,459.667 150.5,459C 148.477,456.011 146.311,455.845 144,458.5C 143.505,456.527 143.338,454.527 143.5,452.5C 140.532,452.374 138.532,450.874 137.5,448C 135.711,447.086 133.877,446.253 132,445.5C 130.635,445.844 129.468,446.511 128.5,447.5C 127.859,445.704 126.859,444.204 125.5,443C 120.844,442.335 116.177,441.835 111.5,441.5C 111.881,439.058 111.214,438.391 109.5,439.5C 107.946,437.067 107.28,434.4 107.5,431.5C 106.5,431.5 105.5,431.5 104.5,431.5C 104.453,434.568 103.953,437.568 103,440.5C 101.178,432.967 100.012,425.3 99.5,417.5C 100.841,409.843 101.841,402.176 102.5,394.5C 103.822,384.85 106.822,375.85 111.5,367.5 Z"/>
<path fill="#eda346" d="M 160.5,421.5 C 161.376,421.369 162.043,421.702 162.5,422.5C 165.25,428.334 168.25,434.001 171.5,439.5C 172.205,436.911 172.205,434.244 171.5,431.5C 174.039,436.587 176.039,441.921 177.5,447.5C 176.069,447.119 175.236,446.119 175,444.5C 174.667,444.833 174.333,445.167 174,445.5C 173.698,451.533 173.198,457.533 172.5,463.5C 169.15,463.665 165.817,463.498 162.5,463C 159.469,460.492 156.469,457.992 153.5,455.5C 148.282,448.164 144.615,440.164 142.5,431.5C 142.772,427.098 142.439,422.765 141.5,418.5C 142,417.5 142.5,416.5 143,415.5C 144.661,418.681 147.327,420.681 151,421.5C 152.957,420.116 153.957,420.783 154,423.5C 154.333,423.167 154.667,422.833 155,422.5C 156.264,424.607 158.097,425.607 160.5,425.5C 160.5,424.167 160.5,422.833 160.5,421.5 Z"/>
<path fill="#eccba0" d="M 90.5,417.5 C 91.7479,418.334 92.4146,419.667 92.5,421.5C 93.2077,426.995 93.8744,432.495 94.5,438C 94.5056,440.3 94.0056,442.466 93,444.5C 92.3333,443.833 91.6667,443.167 91,442.5C 90.5003,434.173 90.3336,425.84 90.5,417.5 Z"/>
<path fill="#9f7e5e" d="M 401.5,377.5 C 400.167,377.5 398.833,377.5 397.5,377.5C 394.18,394.733 391.68,412.066 390,429.5C 391.356,428.62 392.856,428.286 394.5,428.5C 394.5,429.167 394.5,429.833 394.5,430.5C 392.128,429.447 390.128,430.114 388.5,432.5C 387.092,438.723 385.092,444.723 382.5,450.5C 382.062,451.506 381.396,451.506 380.5,450.5C 382.715,446.023 384.215,441.356 385,436.5C 379.315,443.887 374.148,451.554 369.5,459.5C 374.06,449.382 379.893,440.049 387,431.5C 389.641,414.848 392.141,398.182 394.5,381.5C 395.084,379.223 396.251,377.223 398,375.5C 399.459,375.808 400.626,376.475 401.5,377.5 Z"/>
<path fill="#efdeb7" d="M 380.5,450.5 C 374.267,458.619 368.267,466.952 362.5,475.5C 361.957,475.44 361.624,475.107 361.5,474.5C 364.956,469.922 367.622,464.922 369.5,459.5C 374.148,451.554 379.315,443.887 385,436.5C 384.215,441.356 382.715,446.023 380.5,450.5 Z"/>
<path fill="#e0b88e" d="M 90.5,444.5 C 91.4584,444.953 92.2917,445.619 93,446.5C 93.6667,450.833 93.6667,455.167 93,459.5C 91.3274,454.637 90.494,449.637 90.5,444.5 Z"/>
<path fill="#e19645" d="M 177.5,447.5 C 183.922,459.336 191.589,470.336 200.5,480.5C 198.407,479.955 196.407,479.122 194.5,478C 192.569,475.696 190.236,473.862 187.5,472.5C 185.203,465.111 182.037,458.111 178,451.5C 177.51,450.207 177.343,448.873 177.5,447.5 Z"/>
<path fill="#87492b" d="M 168.5,408.5 C 170.754,409.415 172.754,410.748 174.5,412.5C 174.5,413.167 174.833,413.5 175.5,413.5C 176.48,417.326 177.313,417.326 178,413.5C 182.725,429.341 188.058,445.008 194,460.5C 196,463.833 198,467.167 200,470.5C 203.299,473.551 206.799,476.218 210.5,478.5C 208.742,478.123 207.075,477.456 205.5,476.5C 205.167,476.833 204.833,477.167 204.5,477.5C 206.12,480.404 207.453,483.404 208.5,486.5C 208.565,486.938 208.399,487.272 208,487.5C 205.63,484.961 203.13,482.628 200.5,480.5C 191.589,470.336 183.922,459.336 177.5,447.5C 176.039,441.921 174.039,436.587 171.5,431.5C 169.927,423.918 168.927,416.251 168.5,408.5 Z"/>
<path fill="#edc150" d="M 398.5,425.5 C 398.351,428.607 398.851,431.607 400,434.5C 400.216,432.616 400.883,430.949 402,429.5C 404.317,433.641 405.817,437.975 406.5,442.5C 406.663,444.857 406.497,447.19 406,449.5C 401.606,457.734 396.272,465.401 390,472.5C 392.849,459.745 395.016,446.745 396.5,433.5C 396.565,430.572 397.232,427.905 398.5,425.5 Z"/>
<path fill="#a48977" d="M 198.5,452.5 C 203.492,460.495 208.492,468.495 213.5,476.5C 209.817,472.975 206.65,468.975 204,464.5C 201.344,460.856 199.511,456.856 198.5,452.5 Z"/>
<path fill="#f3c972" d="M 102.5,394.5 C 101.841,402.176 100.841,409.843 99.5,417.5C 100.012,425.3 101.178,432.967 103,440.5C 103.953,437.568 104.453,434.568 104.5,431.5C 105.5,431.5 106.5,431.5 107.5,431.5C 107.28,434.4 107.946,437.067 109.5,439.5C 111.214,438.391 111.881,439.058 111.5,441.5C 116.177,441.835 120.844,442.335 125.5,443C 126.859,444.204 127.859,445.704 128.5,447.5C 129.468,446.511 130.635,445.844 132,445.5C 133.877,446.253 135.711,447.086 137.5,448C 138.532,450.874 140.532,452.374 143.5,452.5C 143.338,454.527 143.505,456.527 144,458.5C 146.311,455.845 148.477,456.011 150.5,459C 151.833,459.667 153.167,459.667 154.5,459C 153.663,457.989 153.33,456.822 153.5,455.5C 156.469,457.992 159.469,460.492 162.5,463C 165.817,463.498 169.15,463.665 172.5,463.5C 173.198,457.533 173.698,451.533 174,445.5C 174.333,445.167 174.667,444.833 175,444.5C 175.236,446.119 176.069,447.119 177.5,447.5C 177.343,448.873 177.51,450.207 178,451.5C 182.037,458.111 185.203,465.111 187.5,472.5C 190.236,473.862 192.569,475.696 194.5,478C 196.407,479.122 198.407,479.955 200.5,480.5C 203.13,482.628 205.63,484.961 208,487.5C 208.399,487.272 208.565,486.938 208.5,486.5C 209.872,487.512 211.205,488.512 212.5,489.5C 212.062,489.435 211.728,489.601 211.5,490C 214.69,492.364 217.69,494.864 220.5,497.5C 216.167,497.5 211.833,497.5 207.5,497.5C 205.712,497.785 204.045,497.452 202.5,496.5C 200.507,494.501 198.173,493.001 195.5,492C 194.213,490.59 193.046,489.09 192,487.5C 191.136,490.739 191.969,493.406 194.5,495.5C 193.917,497.002 193.084,498.335 192,499.5C 189.134,496.669 185.634,495.003 181.5,494.5C 179.812,491.393 177.145,489.726 173.5,489.5C 171.929,486.907 169.596,485.907 166.5,486.5C 166.884,488.929 167.551,491.263 168.5,493.5C 161.025,486.865 153.358,480.365 145.5,474C 141.941,472.772 138.608,471.106 135.5,469C 131.551,467.816 127.551,467.482 123.5,468C 120.922,470.228 119.589,473.061 119.5,476.5C 118.513,481.305 118.179,486.305 118.5,491.5C 117.018,487.069 116.018,482.402 115.5,477.5C 116.553,474.869 117.053,472.202 117,469.5C 115.406,468.284 113.906,466.951 112.5,465.5C 111.476,466.853 110.143,467.52 108.5,467.5C 108.5,466.167 108.5,464.833 108.5,463.5C 107.167,463.5 105.833,463.5 104.5,463.5C 104.673,466.179 105.673,468.513 107.5,470.5C 106.698,473.449 106.364,476.449 106.5,479.5C 105.599,478.71 104.932,477.71 104.5,476.5C 99.2936,456.514 96.9602,436.18 97.5,415.5C 98.9237,408.451 100.59,401.451 102.5,394.5 Z"/>
<path fill="#efd6b5" d="M 94.5,449.5 C 95.5,449.5 96.5,449.5 97.5,449.5C 98.5397,458.514 99.373,467.514 100,476.5C 95.6504,468.071 93.8171,459.071 94.5,449.5 Z"/>
<path fill="#f1d067" d="M 405.5,399.5 C 407.719,412.746 409.052,426.079 409.5,439.5C 408.952,446.974 407.619,454.307 405.5,461.5C 405.672,462.492 405.338,463.158 404.5,463.5C 401.605,468.285 398.938,473.285 396.5,478.5C 395.675,479.386 394.675,479.719 393.5,479.5C 392.72,483.127 391.22,486.46 389,489.5C 385.932,492.639 383.098,495.972 380.5,499.5C 382.787,494.447 383.954,489.114 384,483.5C 386.315,481.465 387.148,479.132 386.5,476.5C 383.855,480.811 380.521,484.478 376.5,487.5C 375.244,487.096 374.077,486.429 373,485.5C 369.455,487.001 368.955,486.501 371.5,484C 370.833,483.667 370.167,483.333 369.5,483C 370.684,481.855 370.684,480.688 369.5,479.5C 373.834,474.329 378,468.995 382,463.5C 384.726,459.381 386.893,455.048 388.5,450.5C 388.5,449.5 388.5,448.5 388.5,447.5C 389.5,447.5 390.5,447.5 391.5,447.5C 393.092,443.372 394.092,439.038 394.5,434.5C 395.167,434.167 395.833,433.833 396.5,433.5C 395.016,446.745 392.849,459.745 390,472.5C 396.272,465.401 401.606,457.734 406,449.5C 406.497,447.19 406.663,444.857 406.5,442.5C 406.742,428.237 406.408,413.903 405.5,399.5 Z"/>
<path fill="#f6f1cd" d="M 365.5,463.5 C 362.304,471.873 357.304,479.04 350.5,485C 341.799,490.684 332.799,495.851 323.5,500.5C 325.519,497.962 326.686,494.962 327,491.5C 334.476,485.108 341.643,478.275 348.5,471C 352.571,469.639 355.905,467.305 358.5,464C 360.81,463.503 363.143,463.337 365.5,463.5 Z"/>
<path fill="#f5ecc8" d="M 415.5,399.5 C 416.5,399.5 417.5,399.5 418.5,399.5C 419.542,410.517 420.542,421.517 421.5,432.5C 420.444,444.161 419.278,455.828 418,467.5C 415.718,472.624 414.051,477.957 413,483.5C 409.662,490.891 406.329,498.225 403,505.5C 399.453,509.361 396.786,513.694 395,518.5C 391.696,521.092 389.363,524.425 388,528.5C 386.568,530.439 384.735,531.772 382.5,532.5C 383.038,530.883 383.371,529.216 383.5,527.5C 389.815,515.53 395.648,503.197 401,490.5C 403.135,483.628 404.801,476.628 406,469.5C 406.801,466.633 406.634,463.966 405.5,461.5C 407.619,454.307 408.952,446.974 409.5,439.5C 410.296,434.184 410.963,428.851 411.5,423.5C 412.451,422.081 412.784,420.415 412.5,418.5C 412.5,417.5 412.5,416.5 412.5,415.5C 413.5,415.5 414.5,415.5 415.5,415.5C 415.5,410.167 415.5,404.833 415.5,399.5 Z"/>
<path fill="#854829" d="M 388.5,450.5 C 386.893,455.048 384.726,459.381 382,463.5C 378,468.995 373.834,474.329 369.5,479.5C 362.47,485.863 355.137,491.863 347.5,497.5C 341.527,500.487 335.527,503.487 329.5,506.5C 323.785,509.096 317.785,510.763 311.5,511.5C 303.141,512.429 294.807,513.429 286.5,514.5C 283.5,514.167 280.5,513.833 277.5,513.5C 283.138,512.67 288.804,512.17 294.5,512C 289.803,511.72 285.137,511.22 280.5,510.5C 274.567,511.991 268.567,512.491 262.5,512C 262.833,511.667 263.167,511.333 263.5,511C 258.643,510.811 253.976,509.811 249.5,508C 251.889,507.261 253.889,506.095 255.5,504.5C 267.666,507.361 280,509.028 292.5,509.5C 293.167,509.167 293.833,508.833 294.5,508.5C 296.833,508.5 299.167,508.5 301.5,508.5C 307.057,508.688 312.39,508.688 317.5,508.5C 325.352,504.408 333.352,500.574 341.5,497C 344.729,493.601 348.062,490.435 351.5,487.5C 355.876,484.126 359.542,480.126 362.5,475.5C 368.267,466.952 374.267,458.619 380.5,450.5C 381.396,451.506 382.062,451.506 382.5,450.5C 384.61,447.998 386.61,447.998 388.5,450.5 Z"/>
<path fill="#f7dd92" d="M 168.5,493.5 C 173.387,500.528 179.221,506.862 186,512.5C 188.08,515.065 189.913,517.732 191.5,520.5C 193.271,524.372 195.771,527.706 199,530.5C 199.167,531.667 199.333,532.833 199.5,534C 199.392,535.681 198.725,536.848 197.5,537.5C 197.5,535.167 197.5,532.833 197.5,530.5C 192.777,529.993 188.111,529.16 183.5,528C 180.706,524.459 178.373,520.626 176.5,516.5C 171.467,511.11 165.467,507.443 158.5,505.5C 153.984,505.481 151.984,507.814 152.5,512.5C 152.594,514.923 153.094,517.256 154,519.5C 156.157,521.817 157.657,524.484 158.5,527.5C 157.5,527.5 156.5,527.5 155.5,527.5C 155.361,523.889 153.694,521.223 150.5,519.5C 149.833,515.5 149.167,511.5 148.5,507.5C 147.833,507.833 147.167,508.167 146.5,508.5C 145.124,507.158 143.791,505.825 142.5,504.5C 137.692,502.027 132.692,500.027 127.5,498.5C 127.671,495.203 127.005,494.869 125.5,497.5C 124.719,496.271 124.219,494.938 124,493.5C 122.324,492.939 120.991,491.939 120,490.5C 119.501,485.845 119.334,481.179 119.5,476.5C 119.589,473.061 120.922,470.228 123.5,468C 127.551,467.482 131.551,467.816 135.5,469C 138.608,471.106 141.941,472.772 145.5,474C 153.358,480.365 161.025,486.865 168.5,493.5 Z"/>
<path fill="#a17e5c" d="M 369.5,459.5 C 367.622,464.922 364.956,469.922 361.5,474.5C 361.624,475.107 361.957,475.44 362.5,475.5C 359.542,480.126 355.876,484.126 351.5,487.5C 351.103,486.475 350.437,486.308 349.5,487C 341.16,492.505 332.493,497.505 323.5,502C 320.833,504 318.167,506 315.5,508C 316.094,508.464 316.761,508.631 317.5,508.5C 312.39,508.688 307.057,508.688 301.5,508.5C 305.647,507.675 309.981,507.175 314.5,507C 317.379,504.615 320.379,502.448 323.5,500.5C 332.799,495.851 341.799,490.684 350.5,485C 357.304,479.04 362.304,471.873 365.5,463.5C 366.906,463.027 367.573,462.027 367.5,460.5C 368.167,460.167 368.833,459.833 369.5,459.5 Z"/>
<path fill="#f3dcb8" d="M 351.5,487.5 C 348.062,490.435 344.729,493.601 341.5,497C 333.352,500.574 325.352,504.408 317.5,508.5C 316.761,508.631 316.094,508.464 315.5,508C 318.167,506 320.833,504 323.5,502C 332.493,497.505 341.16,492.505 349.5,487C 350.437,486.308 351.103,486.475 351.5,487.5 Z"/>
<path fill="#f4e6c3" d="M 97.5,478.5 C 98.1667,479.167 98.8333,479.833 99.5,480.5C 100.455,482.746 101.122,485.079 101.5,487.5C 101.718,497.352 103.051,507.019 105.5,516.5C 103.978,515.569 102.645,514.402 101.5,513C 99.5944,508.562 97.7611,504.062 96,499.5C 94.9317,492.226 95.4317,485.226 97.5,478.5 Z"/>
<path fill="#efbb56" d="M 369.5,479.5 C 370.684,480.688 370.684,481.855 369.5,483C 370.167,483.333 370.833,483.667 371.5,484C 368.955,486.501 369.455,487.001 373,485.5C 374.077,486.429 375.244,487.096 376.5,487.5C 372.583,493.265 368.416,498.932 364,504.5C 360.384,508.687 356.217,511.353 351.5,512.5C 352.951,511.094 354.284,509.594 355.5,508C 354.181,506.372 352.848,506.539 351.5,508.5C 349.33,506.914 346.996,505.58 344.5,504.5C 345.729,503.719 347.062,503.219 348.5,503C 347.692,502.692 347.025,502.192 346.5,501.5C 346.788,500.139 347.121,498.806 347.5,497.5C 355.137,491.863 362.47,485.863 369.5,479.5 Z"/>
<path fill="#a88976" d="M 213.5,476.5 C 221.583,484.374 230.25,491.541 239.5,498C 252.304,498.678 264.971,500.344 277.5,503C 283.504,504.169 289.17,506.002 294.5,508.5C 293.833,508.833 293.167,509.167 292.5,509.5C 289.79,507.892 286.79,506.725 283.5,506C 270.641,502.995 257.641,500.828 244.5,499.5C 243.287,499.747 242.62,500.414 242.5,501.5C 239.343,501.921 237.01,500.755 235.5,498C 234.552,497.517 233.552,497.351 232.5,497.5C 226.346,489.671 219.013,483.338 210.5,478.5C 213.837,480.354 214.837,479.687 213.5,476.5 Z"/>
<path fill="#894722" d="M 212.5,489.5 C 217.783,491.475 222.783,493.975 227.5,497C 229.134,497.494 230.801,497.66 232.5,497.5C 233.552,497.351 234.552,497.517 235.5,498C 237.01,500.755 239.343,501.921 242.5,501.5C 246.983,502.373 251.317,503.373 255.5,504.5C 253.889,506.095 251.889,507.261 249.5,508C 253.976,509.811 258.643,510.811 263.5,511C 263.167,511.333 262.833,511.667 262.5,512C 268.567,512.491 274.567,511.991 280.5,510.5C 285.137,511.22 289.803,511.72 294.5,512C 288.804,512.17 283.138,512.67 277.5,513.5C 280.5,513.833 283.5,514.167 286.5,514.5C 294.807,513.429 303.141,512.429 311.5,511.5C 305.809,513.677 299.809,515.01 293.5,515.5C 283.801,515.725 274.134,515.392 264.5,514.5C 252.507,512.281 241.174,508.281 230.5,502.5C 227.35,500.451 224.016,498.784 220.5,497.5C 217.69,494.864 214.69,492.364 211.5,490C 211.728,489.601 212.062,489.435 212.5,489.5 Z"/>
<path fill="#eeb04e" d="M 380.5,499.5 C 372.441,507.563 364.107,515.23 355.5,522.5C 351.267,524.451 346.934,526.117 342.5,527.5C 342.611,526.883 342.944,526.383 343.5,526C 342.025,523.691 340.358,521.524 338.5,519.5C 338.167,520.167 337.833,520.833 337.5,521.5C 332.72,517.269 327.387,513.769 321.5,511C 324.412,509.768 327.078,508.268 329.5,506.5C 335.527,503.487 341.527,500.487 347.5,497.5C 347.121,498.806 346.788,500.139 346.5,501.5C 347.025,502.192 347.692,502.692 348.5,503C 347.062,503.219 345.729,503.719 344.5,504.5C 346.996,505.58 349.33,506.914 351.5,508.5C 352.848,506.539 354.181,506.372 355.5,508C 354.284,509.594 352.951,511.094 351.5,512.5C 356.217,511.353 360.384,508.687 364,504.5C 368.416,498.932 372.583,493.265 376.5,487.5C 380.521,484.478 383.855,480.811 386.5,476.5C 387.148,479.132 386.315,481.465 384,483.5C 383.954,489.114 382.787,494.447 380.5,499.5 Z"/>
<path fill="#eda748" d="M 207.5,497.5 C 211.833,497.5 216.167,497.5 220.5,497.5C 224.016,498.784 227.35,500.451 230.5,502.5C 232.294,504.797 234.294,506.963 236.5,509C 251.834,520.574 268.834,528.407 287.5,532.5C 292.447,533.765 297.614,534.432 303,534.5C 311.906,533.492 320.74,531.992 329.5,530C 327.045,528.369 324.545,528.203 322,529.5C 321.828,522.653 318.328,518.487 311.5,517C 305.319,516.828 299.319,516.328 293.5,515.5C 299.809,515.01 305.809,513.677 311.5,511.5C 317.785,510.763 323.785,509.096 329.5,506.5C 327.078,508.268 324.412,509.768 321.5,511C 327.387,513.769 332.72,517.269 337.5,521.5C 337.833,520.833 338.167,520.167 338.5,519.5C 340.358,521.524 342.025,523.691 343.5,526C 342.944,526.383 342.611,526.883 342.5,527.5C 334.881,530.217 327.215,532.551 319.5,534.5C 317.143,534.337 314.81,534.503 312.5,535C 306.355,540.906 299.021,543.739 290.5,543.5C 282.771,538.668 274.438,534.835 265.5,532C 258.216,526.69 250.216,523.023 241.5,521C 235.014,517.924 228.681,514.591 222.5,511C 220.302,510.627 218.135,510.127 216,509.5C 214.003,507.267 211.503,505.767 208.5,505C 207.91,503.491 207.244,501.991 206.5,500.5C 203.913,501.054 201.58,502.054 199.5,503.5C 199.539,502.417 199.873,501.417 200.5,500.5C 203,499.641 205.333,498.641 207.5,497.5 Z"/>
<path fill="#e8943a" d="M 264.5,514.5 C 274.134,515.392 283.801,515.725 293.5,515.5C 299.319,516.328 305.319,516.828 311.5,517C 318.328,518.487 321.828,522.653 322,529.5C 324.545,528.203 327.045,528.369 329.5,530C 320.74,531.992 311.906,533.492 303,534.5C 297.614,534.432 292.447,533.765 287.5,532.5C 290.187,532.664 292.854,532.497 295.5,532C 293.331,529.797 290.665,528.964 287.5,529.5C 287.5,528.167 287.5,526.833 287.5,525.5C 284.813,525.664 282.146,525.497 279.5,525C 279.957,524.586 280.291,524.086 280.5,523.5C 277.581,522.686 274.748,521.686 272,520.5C 271.51,519.207 271.343,517.873 271.5,516.5C 269.473,516.662 267.473,516.495 265.5,516C 264.944,515.617 264.611,515.117 264.5,514.5 Z"/>
<path fill="#f5d483" d="M 404.5,463.5 C 397.797,494.913 382.797,521.58 359.5,543.5C 359.215,541.712 359.548,540.045 360.5,538.5C 361.086,538.709 361.586,539.043 362,539.5C 363.167,537.667 364.333,535.833 365.5,534C 365,533.5 364.5,533 364,532.5C 362.809,535.534 360.642,537.201 357.5,537.5C 357.351,536.448 357.517,535.448 358,534.5C 359.635,533.274 361.135,531.941 362.5,530.5C 357.991,529.42 354.658,531.087 352.5,535.5C 351.288,533.164 351.621,530.997 353.5,529C 352.978,528.05 352.311,527.216 351.5,526.5C 353.375,525.591 354.708,524.257 355.5,522.5C 364.107,515.23 372.441,507.563 380.5,499.5C 383.098,495.972 385.932,492.639 389,489.5C 391.22,486.46 392.72,483.127 393.5,479.5C 394.675,479.719 395.675,479.386 396.5,478.5C 398.938,473.285 401.605,468.285 404.5,463.5 Z"/>
<path fill="#884c2a" d="M 104.5,476.5 C 104.932,477.71 105.599,478.71 106.5,479.5C 112.578,498.651 122.078,515.984 135,531.5C 148.87,546.275 163.704,558.941 179.5,569.5C 179.833,568.833 180.167,568.167 180.5,567.5C 190.874,573.46 201.874,577.96 213.5,581C 224.77,583.25 234.77,585.084 243.5,586.5C 241.621,587.341 239.621,587.675 237.5,587.5C 228.364,587.003 219.364,585.67 210.5,583.5C 209.5,583.5 208.5,583.5 207.5,583.5C 198.213,581.203 188.88,578.87 179.5,576.5C 180.625,575.348 180.625,574.348 179.5,573.5C 171.801,568.977 164.801,563.477 158.5,557C 155.846,556.059 153.179,555.226 150.5,554.5C 150.073,553.262 150.073,552.262 150.5,551.5C 140.285,544.957 131.285,536.957 123.5,527.5C 122.791,526.596 121.791,526.263 120.5,526.5C 119.559,524.228 118.226,522.228 116.5,520.5C 117.72,518.716 117.72,517.05 116.5,515.5C 114.308,510.05 112.808,504.383 112,498.5C 110.293,496.963 108.793,495.296 107.5,493.5C 105.497,491.483 103.497,489.483 101.5,487.5C 101.122,485.079 100.455,482.746 99.5,480.5C 100.889,477.721 101.722,474.721 102,471.5C 102.757,473.315 103.59,474.981 104.5,476.5 Z"/>
<path fill="#f0d4ab" d="M 116.5,520.5 C 118.226,522.228 119.559,524.228 120.5,526.5C 123.325,531.16 125.825,535.827 128,540.5C 117.918,532.09 110.585,521.756 106,509.5C 105.333,508.167 105.333,506.833 106,505.5C 108.538,511.267 112.038,516.267 116.5,520.5 Z"/>
<path fill="#eb983f" d="M 290.5,543.5 C 260.223,545.233 232.89,537.4 208.5,520C 202.464,516.09 199.464,510.59 199.5,503.5C 201.58,502.054 203.913,501.054 206.5,500.5C 207.244,501.991 207.91,503.491 208.5,505C 211.503,505.767 214.003,507.267 216,509.5C 218.135,510.127 220.302,510.627 222.5,511C 228.681,514.591 235.014,517.924 241.5,521C 250.216,523.023 258.216,526.69 265.5,532C 274.438,534.835 282.771,538.668 290.5,543.5 Z"/>
<path fill="#e78736" d="M 230.5,502.5 C 241.174,508.281 252.507,512.281 264.5,514.5C 264.611,515.117 264.944,515.617 265.5,516C 267.473,516.495 269.473,516.662 271.5,516.5C 271.343,517.873 271.51,519.207 272,520.5C 274.748,521.686 277.581,522.686 280.5,523.5C 280.291,524.086 279.957,524.586 279.5,525C 282.146,525.497 284.813,525.664 287.5,525.5C 287.5,526.833 287.5,528.167 287.5,529.5C 290.665,528.964 293.331,529.797 295.5,532C 292.854,532.497 290.187,532.664 287.5,532.5C 268.834,528.407 251.834,520.574 236.5,509C 234.294,506.963 232.294,504.797 230.5,502.5 Z"/>
<path fill="#f3c168" d="M 207.5,497.5 C 205.333,498.641 203,499.641 200.5,500.5C 199.873,501.417 199.539,502.417 199.5,503.5C 199.464,510.59 202.464,516.09 208.5,520C 232.89,537.4 260.223,545.233 290.5,543.5C 299.021,543.739 306.355,540.906 312.5,535C 314.81,534.503 317.143,534.337 319.5,534.5C 317.444,535.216 315.277,535.883 313,536.5C 312.033,538.63 310.866,540.63 309.5,542.5C 309.667,543.167 309.833,543.833 310,544.5C 315.803,549.987 322.637,552.487 330.5,552C 329.833,552.333 329.167,552.667 328.5,553C 331.466,556.144 331.133,558.811 327.5,561C 329.783,561.291 331.95,560.791 334,559.5C 335.138,559.989 336.305,560.322 337.5,560.5C 325.442,568.979 312.109,574.979 297.5,578.5C 273.558,570.883 250.891,560.883 229.5,548.5C 228.691,546.929 228.357,545.262 228.5,543.5C 225.206,543.741 222.206,542.908 219.5,541C 218.321,538.487 216.487,536.654 214,535.5C 213.5,535.833 213,536.167 212.5,536.5C 213.946,538.618 214.613,540.951 214.5,543.5C 212.702,541.888 210.702,540.388 208.5,539C 203.683,532.018 198.016,525.851 191.5,520.5C 189.913,517.732 188.08,515.065 186,512.5C 179.221,506.862 173.387,500.528 168.5,493.5C 167.551,491.263 166.884,488.929 166.5,486.5C 169.596,485.907 171.929,486.907 173.5,489.5C 177.145,489.726 179.812,491.393 181.5,494.5C 185.634,495.003 189.134,496.669 192,499.5C 193.084,498.335 193.917,497.002 194.5,495.5C 191.969,493.406 191.136,490.739 192,487.5C 193.046,489.09 194.213,490.59 195.5,492C 198.173,493.001 200.507,494.501 202.5,496.5C 204.045,497.452 205.712,497.785 207.5,497.5 Z"/>
<path fill="#fae79e" d="M 197.5,537.5 C 194.937,540.211 191.77,541.877 188,542.5C 179.255,542.026 171.422,539.192 164.5,534C 161.655,532.455 159.655,530.288 158.5,527.5C 157.657,524.484 156.157,521.817 154,519.5C 153.094,517.256 152.594,514.923 152.5,512.5C 151.984,507.814 153.984,505.481 158.5,505.5C 165.467,507.443 171.467,511.11 176.5,516.5C 178.373,520.626 180.706,524.459 183.5,528C 188.111,529.16 192.777,529.993 197.5,530.5C 197.5,532.833 197.5,535.167 197.5,537.5 Z"/>
<path fill="#ecd0a8" d="M 383.5,527.5 C 380.378,533.552 376.378,539.052 371.5,544C 369.209,546.34 366.542,547.673 363.5,548C 367.416,544.59 370.749,540.757 373.5,536.5C 375.691,531.8 378.857,527.8 383,524.5C 383.483,525.448 383.649,526.448 383.5,527.5 Z"/>
<path fill="#f5d172" d="M 225.5,559.5 C 227.982,561.503 228.982,564.169 228.5,567.5C 220.943,569.283 213.276,569.783 205.5,569C 195.267,566.31 185.267,563.143 175.5,559.5C 175.719,558.325 175.386,557.325 174.5,556.5C 170.127,553.314 165.46,550.647 160.5,548.5C 155.126,543.123 149.459,538.123 143.5,533.5C 145.371,533.141 146.871,532.141 148,530.5C 149.205,531.071 150.372,531.738 151.5,532.5C 150.466,534.438 151.132,535.772 153.5,536.5C 155.459,536.125 157.293,535.459 159,534.5C 159.483,535.448 159.649,536.448 159.5,537.5C 163.617,537.927 167.284,539.427 170.5,542C 171.337,543.011 171.67,544.178 171.5,545.5C 172.833,545.5 174.167,545.5 175.5,545.5C 175.5,544.5 175.5,543.5 175.5,542.5C 176.552,542.351 177.552,542.517 178.5,543C 177.167,544.333 177.167,545.667 178.5,547C 190.69,549.263 201.357,554.43 210.5,562.5C 211.774,560.15 213.107,560.317 214.5,563C 218.07,564.31 221.737,565.143 225.5,565.5C 225.5,563.5 225.5,561.5 225.5,559.5 Z"/>
<path fill="#eccca1" d="M 123.5,527.5 C 131.285,536.957 140.285,544.957 150.5,551.5C 144.858,550.182 139.525,548.015 134.5,545C 129.536,539.485 125.869,533.651 123.5,527.5 Z"/>
<path fill="#f4cb75" d="M 355.5,522.5 C 354.708,524.257 353.375,525.591 351.5,526.5C 352.311,527.216 352.978,528.05 353.5,529C 351.621,530.997 351.288,533.164 352.5,535.5C 354.658,531.087 357.991,529.42 362.5,530.5C 361.135,531.941 359.635,533.274 358,534.5C 357.517,535.448 357.351,536.448 357.5,537.5C 360.642,537.201 362.809,535.534 364,532.5C 364.5,533 365,533.5 365.5,534C 364.333,535.833 363.167,537.667 362,539.5C 361.586,539.043 361.086,538.709 360.5,538.5C 359.548,540.045 359.215,541.712 359.5,543.5C 352.928,550.123 345.594,555.79 337.5,560.5C 336.305,560.322 335.138,559.989 334,559.5C 331.95,560.791 329.783,561.291 327.5,561C 331.133,558.811 331.466,556.144 328.5,553C 329.167,552.667 329.833,552.333 330.5,552C 322.637,552.487 315.803,549.987 310,544.5C 309.833,543.833 309.667,543.167 309.5,542.5C 310.866,540.63 312.033,538.63 313,536.5C 315.277,535.883 317.444,535.216 319.5,534.5C 327.215,532.551 334.881,530.217 342.5,527.5C 346.934,526.117 351.267,524.451 355.5,522.5 Z"/>
<path fill="#8f5c3b" d="M 101.5,487.5 C 103.497,489.483 105.497,491.483 107.5,493.5C 106.252,494.334 105.585,495.667 105.5,497.5C 106.871,505.575 110.371,512.575 116,518.5C 116.483,517.552 116.649,516.552 116.5,515.5C 117.72,517.05 117.72,518.716 116.5,520.5C 112.038,516.267 108.538,511.267 106,505.5C 105.333,506.833 105.333,508.167 106,509.5C 110.585,521.756 117.918,532.09 128,540.5C 125.825,535.827 123.325,531.16 120.5,526.5C 121.791,526.263 122.791,526.596 123.5,527.5C 125.869,533.651 129.536,539.485 134.5,545C 139.525,548.015 144.858,550.182 150.5,551.5C 150.073,552.262 150.073,553.262 150.5,554.5C 146.438,553.198 142.438,552.031 138.5,551C 139.823,551.816 140.489,552.983 140.5,554.5C 132.589,547.765 124.756,540.765 117,533.5C 112.648,528.113 108.815,522.447 105.5,516.5C 103.051,507.019 101.718,497.352 101.5,487.5 Z"/>
<path fill="#f6d57d" d="M 119.5,476.5 C 119.334,481.179 119.501,485.845 120,490.5C 120.991,491.939 122.324,492.939 124,493.5C 124.219,494.938 124.719,496.271 125.5,497.5C 127.005,494.869 127.671,495.203 127.5,498.5C 132.692,500.027 137.692,502.027 142.5,504.5C 143.791,505.825 145.124,507.158 146.5,508.5C 147.167,508.167 147.833,507.833 148.5,507.5C 149.167,511.5 149.833,515.5 150.5,519.5C 153.694,521.223 155.361,523.889 155.5,527.5C 156.5,527.5 157.5,527.5 158.5,527.5C 159.655,530.288 161.655,532.455 164.5,534C 171.422,539.192 179.255,542.026 188,542.5C 191.77,541.877 194.937,540.211 197.5,537.5C 198.725,536.848 199.392,535.681 199.5,534C 199.333,532.833 199.167,531.667 199,530.5C 195.771,527.706 193.271,524.372 191.5,520.5C 198.016,525.851 203.683,532.018 208.5,539C 210.702,540.388 212.702,541.888 214.5,543.5C 214.892,545.179 215.392,546.846 216,548.5C 219.804,551.79 222.971,555.457 225.5,559.5C 225.5,561.5 225.5,563.5 225.5,565.5C 221.737,565.143 218.07,564.31 214.5,563C 213.107,560.317 211.774,560.15 210.5,562.5C 201.357,554.43 190.69,549.263 178.5,547C 177.167,545.667 177.167,544.333 178.5,543C 177.552,542.517 176.552,542.351 175.5,542.5C 175.5,543.5 175.5,544.5 175.5,545.5C 174.167,545.5 172.833,545.5 171.5,545.5C 171.67,544.178 171.337,543.011 170.5,542C 167.284,539.427 163.617,537.927 159.5,537.5C 159.649,536.448 159.483,535.448 159,534.5C 157.293,535.459 155.459,536.125 153.5,536.5C 151.132,535.772 150.466,534.438 151.5,532.5C 150.372,531.738 149.205,531.071 148,530.5C 146.871,532.141 145.371,533.141 143.5,533.5C 133.962,523.451 126.129,512.117 120,499.5C 119.178,496.883 118.678,494.216 118.5,491.5C 118.179,486.305 118.513,481.305 119.5,476.5 Z"/>
<path fill="#eccaa0" d="M 369.5,537.5 C 369.938,537.435 370.272,537.601 370.5,538C 366.868,542.634 362.868,546.967 358.5,551C 356.564,551.813 354.564,552.313 352.5,552.5C 357.844,547.157 363.511,542.157 369.5,537.5 Z"/>
<path fill="#9c7351" d="M 383.5,527.5 C 383.371,529.216 383.038,530.883 382.5,532.5C 378.14,540.526 371.806,546.526 363.5,550.5C 356.861,554.489 350.194,558.489 343.5,562.5C 342.494,561.604 342.494,560.938 343.5,560.5C 346.94,558.945 350.273,557.112 353.5,555C 352.906,554.536 352.239,554.369 351.5,554.5C 351.328,553.508 351.662,552.842 352.5,552.5C 354.564,552.313 356.564,551.813 358.5,551C 362.868,546.967 366.868,542.634 370.5,538C 370.272,537.601 369.938,537.435 369.5,537.5C 370.403,535.38 371.737,535.046 373.5,536.5C 370.749,540.757 367.416,544.59 363.5,548C 366.542,547.673 369.209,546.34 371.5,544C 376.378,539.052 380.378,533.552 383.5,527.5 Z"/>
<path fill="#efd7b0" d="M 363.5,550.5 C 363.489,552.017 362.823,553.184 361.5,554C 353.599,560.451 344.932,565.617 335.5,569.5C 337.549,566.45 340.216,564.117 343.5,562.5C 350.194,558.489 356.861,554.489 363.5,550.5 Z"/>
<path fill="#a18873" d="M 140.5,554.5 C 141.5,555.167 142.5,555.833 143.5,556.5C 146.901,560.904 150.901,564.571 155.5,567.5C 148.947,564.946 143.947,560.613 140.5,554.5 Z"/>
<path fill="#e5b697" d="M 351.5,554.5 C 352.239,554.369 352.906,554.536 353.5,555C 350.273,557.112 346.94,558.945 343.5,560.5C 345.313,557.353 347.98,555.353 351.5,554.5 Z"/>
<path fill="#f1d7ab" d="M 150.5,554.5 C 153.179,555.226 155.846,556.059 158.5,557C 164.801,563.477 171.801,568.977 179.5,573.5C 172.453,573.94 165.787,572.273 159.5,568.5C 158.104,565.249 156.438,562.083 154.5,559C 150.899,558.06 147.399,556.893 144,555.5C 143.601,555.728 143.435,556.062 143.5,556.5C 142.5,555.833 141.5,555.167 140.5,554.5C 140.489,552.983 139.823,551.816 138.5,551C 142.438,552.031 146.438,553.198 150.5,554.5 Z"/>
<path fill="#efb85e" d="M 118.5,491.5 C 118.678,494.216 119.178,496.883 120,499.5C 126.129,512.117 133.962,523.451 143.5,533.5C 149.459,538.123 155.126,543.123 160.5,548.5C 165.46,550.647 170.127,553.314 174.5,556.5C 175.386,557.325 175.719,558.325 175.5,559.5C 185.267,563.143 195.267,566.31 205.5,569C 213.276,569.783 220.943,569.283 228.5,567.5C 228.982,564.169 227.982,561.503 225.5,559.5C 222.971,555.457 219.804,551.79 216,548.5C 215.392,546.846 214.892,545.179 214.5,543.5C 214.613,540.951 213.946,538.618 212.5,536.5C 213,536.167 213.5,535.833 214,535.5C 216.487,536.654 218.321,538.487 219.5,541C 222.206,542.908 225.206,543.741 228.5,543.5C 228.357,545.262 228.691,546.929 229.5,548.5C 250.891,560.883 273.558,570.883 297.5,578.5C 295.852,579.927 293.852,580.76 291.5,581C 278.875,583.244 267.542,585.077 257.5,586.5C 252.833,587.833 248.167,587.833 243.5,586.5C 234.77,585.084 224.77,583.25 213.5,581C 201.874,577.96 190.874,573.46 180.5,567.5C 180.167,568.167 179.833,568.833 179.5,569.5C 163.704,558.941 148.87,546.275 135,531.5C 122.078,515.984 112.578,498.651 106.5,479.5C 106.364,476.449 106.698,473.449 107.5,470.5C 105.673,468.513 104.673,466.179 104.5,463.5C 105.833,463.5 107.167,463.5 108.5,463.5C 108.5,464.833 108.5,466.167 108.5,467.5C 110.143,467.52 111.476,466.853 112.5,465.5C 113.906,466.951 115.406,468.284 117,469.5C 117.053,472.202 116.553,474.869 115.5,477.5C 116.018,482.402 117.018,487.069 118.5,491.5 Z"/>
<path fill="#a47f5a" d="M 155.5,567.5 C 156.833,567.833 158.167,568.167 159.5,568.5C 165.787,572.273 172.453,573.94 179.5,573.5C 180.625,574.348 180.625,575.348 179.5,576.5C 175.538,575.624 171.538,574.958 167.5,574.5C 163.277,572.538 159.277,570.205 155.5,567.5 Z"/>
<path fill="#874a2a" d="M 405.5,461.5 C 406.634,463.966 406.801,466.633 406,469.5C 404.801,476.628 403.135,483.628 401,490.5C 395.648,503.197 389.815,515.53 383.5,527.5C 383.649,526.448 383.483,525.448 383,524.5C 378.857,527.8 375.691,531.8 373.5,536.5C 371.737,535.046 370.403,535.38 369.5,537.5C 363.511,542.157 357.844,547.157 352.5,552.5C 351.662,552.842 351.328,553.508 351.5,554.5C 347.98,555.353 345.313,557.353 343.5,560.5C 342.494,560.938 342.494,561.604 343.5,562.5C 340.216,564.117 337.549,566.45 335.5,569.5C 321.299,583.908 303.965,590.908 283.5,590.5C 283.5,589.833 283.167,589.5 282.5,589.5C 275.496,589.227 268.496,588.894 261.5,588.5C 260.167,587.833 258.833,587.167 257.5,586.5C 267.542,585.077 278.875,583.244 291.5,581C 293.852,580.76 295.852,579.927 297.5,578.5C 312.109,574.979 325.442,568.979 337.5,560.5C 345.594,555.79 352.928,550.123 359.5,543.5C 382.797,521.58 397.797,494.913 404.5,463.5C 405.338,463.158 405.672,462.492 405.5,461.5 Z"/>
<path fill="#f0d3a4" d="M 167.5,574.5 C 171.538,574.958 175.538,575.624 179.5,576.5C 188.88,578.87 198.213,581.203 207.5,583.5C 208.527,585.194 209.861,586.527 211.5,587.5C 199.818,587.247 188.485,585.081 177.5,581C 173.589,579.556 170.256,577.389 167.5,574.5 Z"/>
<path fill="#ac7d4d" d="M 243.5,586.5 C 248.167,587.833 252.833,587.833 257.5,586.5C 258.833,587.167 260.167,587.833 261.5,588.5C 253.445,589.889 245.445,589.556 237.5,587.5C 239.621,587.675 241.621,587.341 243.5,586.5 Z"/>
<path fill="#f1d4a2" d="M 210.5,583.5 C 219.364,585.67 228.364,587.003 237.5,587.5C 245.445,589.556 253.445,589.889 261.5,588.5C 268.496,588.894 275.496,589.227 282.5,589.5C 275.956,592.894 268.956,595.227 261.5,596.5C 261.082,595.778 260.416,595.278 259.5,595C 246.663,594.296 233.997,592.463 221.5,589.5C 220.584,589.543 219.917,589.876 219.5,590.5C 216.19,588.518 213.19,586.185 210.5,583.5 Z"/>
<path fill="#9c7c64" d="M 207.5,583.5 C 208.5,583.5 209.5,583.5 210.5,583.5C 213.19,586.185 216.19,588.518 219.5,590.5C 232.789,597.203 246.789,599.203 261.5,596.5C 268.956,595.227 275.956,592.894 282.5,589.5C 283.167,589.5 283.5,589.833 283.5,590.5C 276.723,594.26 269.389,596.76 261.5,598C 243.326,601.2 226.66,597.7 211.5,587.5C 209.861,586.527 208.527,585.194 207.5,583.5 Z"/>
</g>

<g id="1">
<path fill="#050404" d="M 123.5,91.5 C 125.833,91.5 128.167,91.5 130.5,91.5C 130.169,116.672 130.502,141.672 131.5,166.5C 133.142,167.803 134.809,169.136 136.5,170.5C 136.611,171.117 136.944,171.617 137.5,172C 129.173,172.5 120.84,172.666 112.5,172.5C 114.771,170.734 116.937,168.734 119,166.5C 119.833,147.491 119.666,128.491 118.5,109.5C 114.558,110.6 110.558,110.767 106.5,110C 104.385,109.576 103.552,108.409 104,106.5C 107.338,109.318 111.171,110.151 115.5,109C 118.792,108.244 119.792,106.411 118.5,103.5C 112.866,107.297 107.366,107.297 102,103.5C 101.506,101.866 101.34,100.199 101.5,98.5C 105.241,97.5985 107.241,98.9319 107.5,102.5C 115.014,101.984 120.347,98.3171 123.5,91.5 Z"/>
<path fill="#48473f" d="M 123.5,91.5 C 125.948,90.5269 128.615,90.1936 131.5,90.5C 131.5,115.833 131.5,141.167 131.5,166.5C 130.502,141.672 130.169,116.672 130.5,91.5C 128.167,91.5 125.833,91.5 123.5,91.5 Z"/>
<path fill="#1a1714" d="M 113.5,178.5 C 123.167,177.833 132.833,177.167 142.5,176.5C 141.5,175.167 140.5,173.833 139.5,172.5C 138.833,171.167 137.833,170.167 136.5,169.5C 136.217,168.711 135.717,168.044 135,167.5C 135,67.5 135.667,67.5 137,167.5C 140.05,171.095 143.216,174.595 146.5,178C 135.505,178.5 124.505,178.667 113.5,178.5 Z"/>
<path fill="#5b5851" d="M 136.5,169.5 C 137.833,170.167 138.833,171.167 139.5,172.5C 129.83,173.835 120.83,173.835 112.5,172.5C 120.84,172.666 129.173,172.5 137.5,172C 136.944,171.617 136.611,171.117 136.5,170.5C 136.5,170.167 136.5,169.833 136.5,169.5 Z"/>
<path fill="#403d33" d="M 142.5,176.5 C 132.833,177.167 123.167,177.833 113.5,178.5C 112.957,178.44 112.624,178.107 112.5,177.5C 122.478,176.501 132.478,176.168 142.5,176.5 Z"/>
</g>

<g id="2">
<path fill="#0e0e0d" d="M 108.5,157.5 C 109.167,157.5 109.5,157.833 109.5,158.5C 120.659,159.659 131.992,159.826 143.5,159C 147.283,157.718 149.95,155.218 151.5,151.5C 152.496,157.463 152.829,163.463 152.5,169.5C 132.5,169.5 112.5,169.5 92.5,169.5C 94.1997,160.767 98.0331,153.101 104,146.5C 112.22,139.946 120.72,133.78 129.5,128C 139.079,118.406 140.912,107.573 135,95.5C 125.013,88.2273 115.679,88.8939 107,97.5C 103.051,108.813 106.884,114.646 118.5,115C 120.305,114.028 121.972,112.861 123.5,111.5C 124.583,112.365 124.749,113.365 124,114.5C 118.652,123.702 111.152,125.869 101.5,121C 90.9447,111.199 90.9447,101.199 101.5,91C 111.541,85.3482 122.208,84.0149 133.5,87C 152.031,95.5407 155.865,108.374 145,125.5C 141.5,128.333 138,131.167 134.5,134C 126.837,137.829 119.504,142.163 112.5,147C 108.897,150.38 105.897,154.213 103.5,158.5C 105.467,159.684 107.134,159.351 108.5,157.5 Z"/>
<path fill="#25231e" d="M 118.5,93.5 C 125.633,92.7347 131.466,95.0681 136,100.5C 137.187,102.044 137.52,103.711 137,105.5C 131.381,95.6387 123.548,93.472 113.5,99C 110.326,104.28 110.992,108.947 115.5,113C 112.883,112.74 111.05,111.24 110,108.5C 109.333,106.167 109.333,103.833 110,101.5C 112.074,97.9231 114.907,95.2565 118.5,93.5 Z"/>
<path fill="#2e2b24" d="M 126.5,114.5 C 127.376,114.369 128.043,114.702 128.5,115.5C 125.205,125.816 118.205,129.983 107.5,128C 104.308,126.906 101.642,125.073 99.5,122.5C 99.6667,122.167 99.8333,121.833 100,121.5C 105.192,126.332 111.358,127.832 118.5,126C 123.367,123.643 126.034,119.809 126.5,114.5 Z"/>
<path fill="#201d1a" d="M 109.5,158.5 C 109.5,157.833 109.167,157.5 108.5,157.5C 110.954,153.211 114.288,149.711 118.5,147C 126.329,142.92 133.996,138.587 141.5,134C 155.142,123.934 157.975,111.434 150,96.5C 148.167,94.6667 146.333,92.8333 144.5,91C 149.881,93.3939 153.715,97.5606 156,103.5C 158.458,116.076 154.625,126.243 144.5,134C 135.665,139.585 126.665,144.919 117.5,150C 114.601,152.729 111.934,155.562 109.5,158.5 Z"/>
<path fill="#191714" d="M 157.5,174.5 C 137.348,174.987 117.348,174.487 97.5,173C 117.164,172.5 136.831,172.333 156.5,172.5C 156.334,166.158 156.5,159.825 157,153.5C 157.5,160.492 157.666,167.492 157.5,174.5 Z"/>
</g>

<g id="3">
    <path fill="#1c1a17" d="M 149.5,135.5 C 155.788,139.912 158.788,146.079 158.5,154C 157.404,168.44 149.737,177.44 135.5,181C 127.103,181.87 118.77,181.537 110.5,180C 107.761,178.974 105.428,177.474 103.5,175.5C 119,182.843 134,182.01 148.5,173C 155.878,165.668 158.378,156.834 156,146.5C 154.326,142.476 152.159,138.809 149.5,135.5 Z"/>
<path fill="#eae7db" d="M 148.5,96.5 C 147.577,95.6971 146.577,95.5304 145.5,96C 152.033,101.795 154.2,108.961 152,117.5C 149.366,123.464 144.866,127.297 138.5,129C 141.407,129.718 144.074,129.218 146.5,127.5C 148.59,129.692 149.59,132.359 149.5,135.5C 152.159,138.809 154.326,142.476 156,146.5C 158.378,156.834 155.878,165.668 148.5,173C 134,182.01 119,182.843 103.5,175.5C 99.9686,174.775 99.302,173.442 101.5,171.5C 115.85,178.294 130.183,178.127 144.5,171C 153.798,161.841 155.631,151.341 150,139.5C 148.954,137.91 147.787,136.41 146.5,135C 142.099,132.471 137.766,129.971 133.5,127.5C 147.827,122.524 151.994,113.19 146,99.5C 138.365,92.1265 129.198,89.1265 118.5,90.5C 123.363,90.0163 128.197,89.0163 133,87.5C 133.605,89.4812 134.605,89.8146 136,88.5C 139.155,91.6673 142.988,93.5006 147.5,94C 148.252,94.6708 148.586,95.5041 148.5,96.5 Z"/>
<path fill="#2f2b24" d="M 117.5,134.5 C 123.866,133.53 129.533,135.03 134.5,139C 128.778,137.107 122.778,136.107 116.5,136C 117.056,135.617 117.389,135.117 117.5,134.5 Z"/>
<path fill="#22201d" d="M 148.5,96.5 C 156.981,107.526 156.314,117.859 146.5,127.5C 144.074,129.218 141.407,129.718 138.5,129C 144.866,127.297 149.366,123.464 152,117.5C 154.2,108.961 152.033,101.795 145.5,96C 146.577,95.5304 147.577,95.6971 148.5,96.5 Z"/>
<path fill="#26231d" d="M 119.5,116.5 C 121.028,116.517 121.528,117.184 121,118.5C 116.611,124.288 111.111,125.788 104.5,123C 109.1,123.011 113.433,122.011 117.5,120C 118.823,119.184 119.489,118.017 119.5,116.5 Z"/>
<path fill="#090908" d="M 118.5,90.5 C 129.198,89.1265 138.365,92.1265 146,99.5C 151.994,113.19 147.827,122.524 133.5,127.5C 137.766,129.971 142.099,132.471 146.5,135C 147.787,136.41 148.954,137.91 150,139.5C 155.631,151.341 153.798,161.841 144.5,171C 130.183,178.127 115.85,178.294 101.5,171.5C 96.6808,166.865 93.6808,161.198 92.5,154.5C 97.1958,152.108 101.696,149.441 106,146.5C 105.003,151.874 105.336,157.208 107,162.5C 108.413,166.748 111.246,169.415 115.5,170.5C 116.209,171.404 117.209,171.737 118.5,171.5C 128.64,173.017 135.473,169.017 139,159.5C 141.974,146.726 137.808,137.226 126.5,131C 122.33,130.675 118.33,130.509 114.5,130.5C 115.167,128.833 115.833,127.167 116.5,125.5C 130.399,126.427 137.232,120.094 137,106.5C 131.584,95.2484 123.084,92.0818 111.5,97C 105.71,102.447 105.043,108.447 109.5,115C 111.898,115.374 114.231,115.374 116.5,115C 114.63,118.602 111.63,120.102 107.5,119.5C 96.6879,117.96 93.1879,111.96 97,101.5C 102.332,94.3285 109.499,90.6618 118.5,90.5 Z"/>
<path fill="#848278" d="M 114.5,166.5 C 117.618,167.232 118.951,168.899 118.5,171.5C 117.209,171.737 116.209,171.404 115.5,170.5C 116.239,170.631 116.906,170.464 117.5,170C 115.937,169.241 114.937,168.074 114.5,166.5 Z"/>
<path fill="#272421" d="M 114.5,166.5 C 109.235,161.33 108.235,155.33 111.5,148.5C 111.455,152.231 111.621,156.231 112,160.5C 113.122,162.407 113.955,164.407 114.5,166.5 Z"/>
<path fill="#1f1d18" d="M 116.5,99.5 C 124.931,97.5567 131.264,100.223 135.5,107.5C 135.333,107.833 135.167,108.167 135,108.5C 128.909,99.7424 121.576,98.409 113,104.5C 112.022,107.669 112.522,110.503 114.5,113C 113.004,113.507 111.837,113.007 111,111.5C 109.375,105.757 111.208,101.757 116.5,99.5 Z"/>

</g>

<g id="4">
    <path fill="#060606" d="M 106.5,147.5 C 105.957,147.56 105.624,147.893 105.5,148.5C 113.323,149.82 120.99,149.82 128.5,148.5C 128.334,139.161 128.5,129.827 129,120.5C 132.981,117.687 136.481,114.353 139.5,110.5C 140.499,123.149 140.832,135.816 140.5,148.5C 141.5,148.5 142.5,148.5 143.5,148.5C 144.167,136.833 144.833,125.167 145.5,113.5C 145.5,125.5 145.5,137.5 145.5,149.5C 154.382,148.207 157.715,151.707 155.5,160C 149.109,161.777 147.109,159.611 149.5,153.5C 146.5,153.5 143.5,153.5 140.5,153.5C 140.334,158.511 140.501,163.511 141,168.5C 143.04,170.37 144.873,172.37 146.5,174.5C 138.316,174.826 130.316,174.492 122.5,173.5C 127.772,170.039 129.772,165.039 128.5,158.5C 116.5,158.5 104.5,158.5 92.5,158.5C 104.5,157.833 116.5,157.167 128.5,156.5C 128.5,155.5 128.5,154.5 128.5,153.5C 115.833,153.5 103.167,153.5 90.5,153.5C 92.3014,148.841 94.8014,144.508 98,140.5C 106.689,125.601 111.856,109.601 113.5,92.5C 118.833,92.5 124.167,92.5 129.5,92.5C 124.193,112.449 114.693,130.116 101,145.5C 100.517,146.448 100.351,147.448 100.5,148.5C 103.959,147.564 106.793,145.564 109,142.5C 120.208,128.42 128.541,112.754 134,95.5C 129.315,115.204 120.148,132.537 106.5,147.5 Z"/>
<path fill="#4a4744" d="M 145.5,113.5 C 144.833,125.167 144.167,136.833 143.5,148.5C 143.168,136.482 143.501,124.482 144.5,112.5C 145.107,112.624 145.44,112.957 145.5,113.5 Z"/>
<path fill="#6a675e" d="M 106.5,147.5 C 113.648,148.492 120.981,148.825 128.5,148.5C 120.99,149.82 113.323,149.82 105.5,148.5C 105.624,147.893 105.957,147.56 106.5,147.5 Z"/>
<path fill="#524d41" d="M 160.5,154.5 C 159.373,153.878 158.373,153.045 157.5,152C 159.489,151.481 160.489,152.314 160.5,154.5 Z"/>
<path fill="#5f5b52" d="M 128.5,156.5 C 116.5,157.167 104.5,157.833 92.5,158.5C 91.9569,158.44 91.6236,158.107 91.5,157.5C 103.815,156.501 116.149,156.168 128.5,156.5 Z"/>
<path fill="#4d4a3e" d="M 160.5,154.5 C 162.2,158.073 161.533,161.239 158.5,164C 156.029,164.706 153.695,164.373 151.5,163C 158.304,164.028 161.304,161.194 160.5,154.5 Z"/>
<path fill="#2e2c26" d="M 152.5,177.5 C 143.043,179.157 133.376,180.157 123.5,180.5C 122.957,180.44 122.624,180.107 122.5,179.5C 132.149,178.668 141.816,178.168 151.5,178C 149.372,174.87 146.872,172.037 144,169.5C 143.173,165.459 143.34,161.459 144.5,157.5C 145.325,161.122 145.825,164.789 146,168.5C 148.41,171.397 150.577,174.397 152.5,177.5 Z"/>
<path fill="#545352" d="M 122.5,173.5 C 130.316,174.492 138.316,174.826 146.5,174.5C 138.581,175.653 129.914,175.819 120.5,175C 121.044,174.283 121.711,173.783 122.5,173.5 Z"/>
</g>

<g id="5">
<path fill="#0b0a09" d="M 133.5,101.5 C 123.833,101.5 114.167,101.5 104.5,101.5C 104.175,109.019 104.508,116.352 105.5,123.5C 106.458,123.047 107.292,122.381 108,121.5C 108.499,116.177 108.666,110.844 108.5,105.5C 119.877,105.826 131.21,105.326 142.5,104C 148.095,102.573 151.428,99.0734 152.5,93.5C 153.167,92.1667 153.833,90.8333 154.5,89.5C 153.995,99.5139 148.662,105.347 138.5,107C 129.173,107.5 119.839,107.666 110.5,107.5C 110.334,111.846 110.501,116.179 111,120.5C 125.999,114.666 138.999,117.666 150,129.5C 155.074,139.534 155.74,149.868 152,160.5C 148.381,167.451 142.881,172.284 135.5,175C 123.739,177.848 112.406,176.848 101.5,172C 95.255,167.836 92.255,162.169 92.5,155C 96.9287,152.898 101.095,150.398 105,147.5C 104.462,155.047 106.295,161.88 110.5,168C 124.179,175.218 134.012,171.718 140,157.5C 140.667,150.167 140.667,142.833 140,135.5C 135.257,124.791 127.09,120.958 115.5,124C 110.484,126.012 106.317,129.179 103,133.5C 101.541,133.192 100.374,132.525 99.5,131.5C 99.5,118.5 99.5,105.5 99.5,92.5C 113.01,92.8289 126.344,92.4956 139.5,91.5C 144.006,92.4728 146.172,90.8061 146,86.5C 140.633,88.1366 139.466,86.6366 142.5,82C 150.843,84.0044 152.676,88.8377 148,96.5C 143.706,99.6538 138.873,101.32 133.5,101.5 Z"/>
<path fill="#8e8b7d" d="M 154.5,89.5 C 153.833,90.8333 153.167,92.1667 152.5,93.5C 152.726,90.7508 152.393,88.0841 151.5,85.5C 151.846,84.3044 152.346,84.3044 153,85.5C 153.41,86.9007 153.91,88.234 154.5,89.5 Z"/>
<path fill="#88857e" d="M 139.5,91.5 C 126.344,92.4956 113.01,92.8289 99.5,92.5C 99.5,105.5 99.5,118.5 99.5,131.5C 98.5044,118.344 98.1711,105.01 98.5,91.5C 112.167,91.5 125.833,91.5 139.5,91.5 Z"/>
<path fill="#84827b" d="M 133.5,101.5 C 124.348,102.494 115.015,102.827 105.5,102.5C 105.5,109.5 105.5,116.5 105.5,123.5C 104.508,116.352 104.175,109.019 104.5,101.5C 114.167,101.5 123.833,101.5 133.5,101.5 Z"/>
<path fill="#302d26" d="M 117.5,126.5 C 125.799,125.323 132.466,127.99 137.5,134.5C 137.333,134.833 137.167,135.167 137,135.5C 130.833,128.465 123.333,126.631 114.5,130C 111.705,131.793 109.205,133.96 107,136.5C 107.546,133.907 109.046,131.74 111.5,130C 113.727,129.059 115.727,127.892 117.5,126.5 Z"/>
<path fill="#22201c" d="M 150.5,126.5 C 161.142,137.208 163.309,149.542 157,163.5C 148.202,178.646 135.035,184.813 117.5,182C 113.735,180.951 110.068,179.618 106.5,178C 105.304,177.346 105.304,176.846 106.5,176.5C 124.218,184.271 139.718,181.271 153,167.5C 160.993,153.165 160.16,139.498 150.5,126.5 Z"/>
<path fill="#1f1d18" d="M 110.5,148.5 C 109.65,158.294 113.65,165.46 122.5,170C 111.682,166.88 107.682,159.713 110.5,148.5 Z"/>
</g>

</defs>
<use href="#back" x="0" y="0"/>
<use href="#1" x="0" y="0"/>
<use href="#bell" x="0" y="0"/>
<use href="#back" x="690" y="0"/>
<use href="#2" x="690" y="0"/>
<use href="#bell" x="690" y="0"/>
<use href="#back" x="1380" y="0"/>
<use href="#3" x="1380" y="0"/>
<use href="#bell" x="1380" y="0"/>
<use href="#back" x="2070" y="0"/>
<use href="#4" x="2070" y="0"/>
<use href="#bell" x="2070" y="0"/>
<use href="#back" x="2760" y="0"/>
<use href="#5" x="2760" y="0"/>
<use href="#bell" x="2760" y="0"/>

<use href="#back" x="0" y="905"/>
<use href="#1" x="0" y="905"/>
<use href="#key" x="0" y="905"/>
<use href="#back" x="690" y="905"/>
<use href="#2" x="690" y="905"/>
<use href="#key" x="690" y="905"/>
<use href="#back" x="1380" y="905"/>
<use href="#3" x="1380" y="905"/>
<use href="#key" x="1380" y="905"/>
<use href="#back" x="2070" y="905"/>
<use href="#4" x="2070" y="905"/>
<use href="#key" x="2070" y="905"/>
<use href="#back" x="2760" y="905"/>
<use href="#5" x="2760" y="905"/>
<use href="#key" x="2760" y="905"/>

<use href="#back" x="0" y="1810"/>
<use href="#1" x="0" y="1810"/>
<use href="#moon" x="0" y="1810"/>
<use href="#back" x="690" y="1810"/>
<use href="#2" x="690" y="1810"/>
<use href="#moon" x="690" y="1810"/>
<use href="#back" x="1380" y="1810"/>
<use href="#3" x="1380" y="1810"/>
<use href="#moon" x="1380" y="1810"/>
<use href="#back" x="2070" y="1810"/>
<use href="#4" x="2070" y="1810"/>
<use href="#moon" x="2070" y="1810"/>
<use href="#back" x="2760" y="1810"/>
<use href="#5" x="2760" y="1810"/>
<use href="#moon" x="2760" y="1810"/>

</svg>
