<?xml version="1.0" encoding="utf-8"?><svg version="1.1" xmlns="http://www.w3.org/2000/svg" viewBox="-10 0 70 70"><defs><radialGradient id="rg1" cx="-107.6189" cy="-90.5162" r="10" fx="-109.6206" fy="-92.5178" gradientTransform="matrix(1 0 0 1 159.5 142.5)" gradientUnits="userSpaceOnUse"><stop offset="0" stop-color="#000" /><stop offset="1" stop-color="#000" stop-opacity="0" /></radialGradient><radialGradient id="rg2" cx="-109.6189" cy="-92.5162" r="10" fx="-114.623" fy="-97.5203" gradientTransform="matrix(1 0 0 1 159.5 142.5)" gradientUnits="userSpaceOnUse"><stop offset="0" stop-color="#888888" /><stop offset="0.5" stop-color="#5B5B5B" /><stop offset="1" stop-color="#000000" /></radialGradient><radialGradient id="rg3" cx="-107.5" cy="190.5449" r="10" fx="-109.5" fy="188.55" gradientTransform="matrix(1 0 0 -1 159.5 242.5)" gradientUnits="userSpaceOnUse"><stop offset="0" stop-color="#000000" /><stop offset="1" stop-color="#000000" stop-opacity="0" /></radialGradient><radialGradient id="rg4" cx="-109.5" cy="192.55" r="10" fx="-114.5" fy="187.55" gradientTransform="matrix(0 1 1 0 -142.5 159.5)" gradientUnits="userSpaceOnUse"><stop offset="0" stop-color="#FFFFFF" /><stop offset="0.5" stop-color="#DDDDDD" /><stop offset="1" stop-color="#999999" /></radialGradient><g id="b" transform="scale(0.3) translate(-50 -50)"><path fill="url(#rg1)" d="M61.9,52c0,5.5-4.5,10-10,10s-10-4.5-10-10s4.5-10,10-10S61.9,46.5,61.9,52z" /><path fill="url(#rg2)" d="M59.9,50c0,5.5-4.5,10-10,10s-10-4.5-10-10s4.5-10,10-10S59.9,44.5,59.9,50z" /></g><g id="w" transform="scale(0.3) translate(-50 -50)"><path fill="url(#rg3)" d="M61.9,52c0,5.5-4.5,10-10,10s-10-4.5-10-10s4.5-10,10-10S61.9,46.5,61.9,52z" /><path fill="url(#rg4)" d="M59.9,50c0,5.5-4.5,10-10,10s-10-4.5-10-10s4.5-10,10-10S59.9,44.5,59.9,50z" /></g></defs><path d="M0,0h50v70h-50z" fill="#93c59f" /><path d="M5,5h40v40h-40zM25,45l-20,20h40zv20m-10,-10h20  M5,5l40,40M45,5l-40,40M15,5v40M25,5v40M35,5v40M5,15h40M5,25h40M5,35h40M25,5l20,20l-20,20l-20,-20l20,-20" stroke="#000" stroke-width="0.25" fill="#c8efd1" /><use href="#w" x="5" y="5"/><use href="#w" x="15" y="5"/><use href="#w" x="25" y="5"/><use href="#w" x="35" y="5"/><use href="#w" x="45" y="5"/><use href="#w" x="5" y="15"/><use href="#w" x="15" y="15"/><use href="#w" x="25" y="15"/><use href="#w" x="35" y="15"/><use href="#w" x="45" y="15"/><use href="#w" x="5" y="25"/><use href="#w" x="15" y="25"/><use href="#b" x="25" y="25"/><use href="#w" x="35" y="25"/><use href="#w" x="45" y="25"/></svg>