<?xml version="1.0" encoding="utf-8"?><svg version="1.1" xmlns="http://www.w3.org/2000/svg" viewBox="-2 -2 44 44"><defs><radialGradient id="rg1"><stop offset="0%" stop-color="#dcdcdc" /><stop offset="100%" stop-color="#909090" /></radialGradient><linearGradient id="g" gradientTransform="rotate(90)" gradientUnits="objectBoundingBox"><stop offset="0%" stop-color="#ff0000" /><stop offset="20%" stop-color="rgba(255, 154, 0, 1)" /><stop offset="40%" stop-color="#ffff00" /><stop offset="65%" stop-color="rgba(79, 220, 74, 1)" /><stop offset="70%" stop-color="rgba(47, 201, 226, 1)" /><stop offset="85%" stop-color="rgba(28, 127, 238, 1)" /><stop offset="100%" stop-color="rgba(95, 21, 242, 1)" /></linearGradient><linearGradient id="f" gradientTransform="rotate(90)" gradientUnits="objectBoundingBox"><stop offset="0%" stop-color="#ff0000" /><stop offset="20%" stop-color="rgba(255, 154, 0, 1)" /><stop offset="40%" stop-color="#ffff00" /><stop offset="65%" stop-color="rgba(79, 220, 74, 1)" /><stop offset="70%" stop-color="rgba(47, 201, 226, 1)" /><stop offset="85%" stop-color="rgba(28, 127, 238, 1)" /><stop offset="100%" stop-color="rgba(95, 21, 242, 1)" /></linearGradient><g transform="scale(0.0625)" id="bc"><path d="M0,0h160v160h-160z" fill="#000" /><circle cx="80" cy="80" r="60" fill="url(#g)" /></g><g transform="scale(0.0625)" id="bd"><path d="M0,0h160v160h-160z" fill="#000" /><path d="M80,10L150,80L80,150L10,80z" fill="url(#f)" /></g><g transform="scale(0.0625)" id="wc"><path d="M0,0h160v160h-160z" fill="#fff" /><circle cx="80" cy="80" r="60" fill="url(#g)" /></g><g transform="scale(0.0625)" id="wd"><path d="M0,0h160v160h-160z" fill="#fff" /><path d="M80,10L150,80L80,150L10,80z" fill="url(#f)" /></g><path id="h" d="M-5,-5h10v10h-10z" stroke-linejoin="round" fill="url(#rg1)" /></defs><path d="M0,0h40v40h-40z" fill="#909090" /><use href="#h" x="5" y="5" /><use href="#h" x="15" y="5" /><use href="#h" x="25" y="5" /><use href="#h" x="35" y="5" /><use href="#h" x="5" y="15" /><use href="#h" x="15" y="15" /><use href="#h" x="25" y="15" /><use href="#h" x="35" y="15" /><use href="#h" x="5" y="25" /><use href="#h" x="15" y="25" /><use href="#h" x="25" y="25" /><use href="#h" x="35" y="25" /><use href="#h" x="5" y="35" /><use href="#h" x="15" y="35" /><use href="#h" x="25" y="35" /><use href="#h" x="35" y="35" /><use href="#wc" x="30" y="10"/><use href="#wd" y="20"/><use href="#wc" x="30" y="30"/><path d="M29,29h12v12h-12z" fill="none" stroke-width="0.5" stroke="red"/><path d="M15,19v-1a5 5 0 0 0 -10 0v1m0,0l0.7002,-1h-1.4004z" fill="none" stroke-width="0.5" stroke="red" stroke-linecap="round"/></svg>