<svg xmlns="http://www.w3.org/2000/svg" viewBox="0 0 100 100"><defs><path id="rA" d="M-5.5 0 a 5.5,5.5 0 1,0 11,0 a 5.5,5.5 0 1,0 -11,0 M-2.5 0 a 2.5,2.5 0 1,0 5,0 a 2.5,2.5 0 1,0 -5,0" stroke="black" stroke-width="0.5" fill="black" fill-rule="evenodd" /><path id="rB" d="M-11 0 a 11,11 0 1,0 22,0 a 11,11 0 1,0 -22,0 M-5 0 a 5,5 0 1,0 10,0 a 5,5 0 1,0 -10,0" stroke="black" stroke-width="0.5" fill="black" fill-rule="evenodd" /><circle id="rC" r="5.5" stroke="black" stroke-width="0.5" fill="black" /><circle id="rD" r="11" stroke="black" stroke-width="0.5" fill="black" /><path id="rE" d="M-5.5 -5.5 h11 v11 h-11 z M-2.5 -2.5 h5 v5 h-5 z" stroke="black" stroke-width="0.5" fill="black" fill-rule="evenodd" /><path id="rF" d="M-11 -11 h22 v22 h-22 z M-5 -5 h10 v10 h-10 z" stroke="black" stroke-width="0.5" fill="black" fill-rule="evenodd" /><rect id="rG" x="-5.5" y="-5.5" width="11" height="11" stroke="black" stroke-width="0.5" fill="black" /><rect id="rH" x="-11" y="-11" width="22" height="22" stroke="black" stroke-width="0.5" fill="black" /><path id="rI" d="M-5.5 0 a 5.5,5.5 0 1,0 11,0 a 5.5,5.5 0 1,0 -11,0 M-2.5 0 a 2.5,2.5 0 1,0 5,0 a 2.5,2.5 0 1,0 -5,0" stroke="black" stroke-width="0.5" fill="white" fill-rule="evenodd" /><path id="rJ" d="M-11 0 a 11,11 0 1,0 22,0 a 11,11 0 1,0 -22,0 M-5 0 a 5,5 0 1,0 10,0 a 5,5 0 1,0 -10,0" stroke="black" stroke-width="0.5" fill="white" fill-rule="evenodd" /><circle id="rK" r="5.5" stroke="black" stroke-width="0.5" fill="white" /><circle id="rL" r="11" stroke="black" stroke-width="0.5" fill="white" /><path id="rM" d="M-5.5 -5.5 h11 v11 h-11 z M-2.5 -2.5 h5 v5 h-5 z" stroke="black" stroke-width="0.5" fill="white" fill-rule="evenodd" /><path id="rN" d="M-11 -11 h22 v22 h-22 z M-5 -5 h10 v10 h-10 z" stroke="black" stroke-width="0.5" fill="white" fill-rule="evenodd" /><rect id="rO" x="-5.5" y="-5.5" width="11" height="11" stroke="black" stroke-width="0.5" fill="white" /><rect id="rP" x="-11" y="-11" width="22" height="22" stroke="black" stroke-width="0.5" fill="white" /></defs><path d="M0,0h200v170h-200" fill="#888" /><path d="M25,0v100m25,-100v100m25,-100v100M0,25h100m-100,25h100m-100,25h100" stroke="#000" stroke-width="0.5" fill="none"/><use href="#rD" x="87.5" y="12.5" /><use href="#rK" x="12.5" y="37.5" /><use href="#rI" x="37.5" y="37.5" /><use href="#rB" x="62.5" y="37.5" /><use href="#rH" x="12.5" y="62.5" /><use href="#rP" x="37.5" y="62.5" /><use href="#rO" x="62.5" y="62.5" /><use href="#rA" x="87.5" y="62.5" /><use href="#rF" x="12.5" y="87.5" /></svg>