<?xml version="1.0" encoding="utf-8"?>
<svg viewBox="0 0 50 50" xmlns="http://www.w3.org/2000/svg">
    <path d="M0,0h50v50h-50z" fill="#DDDDDD" />
    <path d="M0,0h10v10h-10zM20,0h10v10h-10zM40,0h10v10h-10zM10,10h10v10h-10zM30,10h10v10h-10zM0,20h10v10h-10zM20,20h10v10h-10zM40,20h10v10h-10zM10,30h10v10h-10zM30,30h10v10h-10zM0,40h10v10h-10zM20,40h10v10h-10zM40,40h10v10h-10z" fill="#888888" />
    
    <defs>
        <g id="w" transform="scale(0.2222)" style="fill:#ffffff;stroke:#000000;stroke-width:1.5">
            <path d="M 9,26 C 17.5,24.5 30,24.5 36,26 L 38.5,13.5 L 31,25 L 30.7,10.9 L 25.5,24.5 L 22.5,10 L 19.5,24.5 L 14.3,10.9 L 14,25 L 6.5,13.5 L 9,26 z"/>
            <path d="M 9,26 C 9,28 10.5,28 11.5,30 C 12.5,31.5 12.5,31 12,33.5 C 10.5,34.5 11,36 11,36 C 9.5,37.5 11,38.5 11,38.5 C 17.5,39.5 27.5,39.5 34,38.5 C 34,38.5 35.5,37.5 34,36 C 34,36 34.5,34.5 33,33.5 C 32.5,31 32.5,31.5 33.5,30 C 34.5,28 36,28 36,26 C 27.5,24.5 17.5,24.5 9,26 z"/>
            <path d="M 11.5,30 C 15,29 30,29 33.5,30"/>
            <path d="M 12,33.5 C 18,32.5 27,32.5 33,33.5"/>
            <circle cx="6" cy="12" r="2" />
            <circle cx="14" cy="9" r="2" />
            <circle cx="22.5" cy="8" r="2" />
            <circle cx="31" cy="9" r="2" />
            <circle cx="39" cy="12" r="2" />
        </g>

        <g id="b" transform="scale(0.2222)" style="fill:#000000;stroke:#000000;stroke-width:1.5;">
            <path d="M 9,26 C 17.5,24.5 30,24.5 36,26 L 38.5,13.5 L 31,25 L 30.7,10.9 L 25.5,24.5 L 22.5,10 L 19.5,24.5 L 14.3,10.9 L 14,25 L 6.5,13.5 L 9,26 z"
            style="stroke-linecap:butt;fill:#000000" />
            <path d="m 9,26 c 0,2 1.5,2 2.5,4 1,1.5 1,1 0.5,3.5 -1.5,1 -1,2.5 -1,2.5 -1.5,1.5 0,2.5 0,2.5 6.5,1 16.5,1 23,0 0,0 1.5,-1 0,-2.5 0,0 0.5,-1.5 -1,-2.5 -0.5,-2.5 -0.5,-2 0.5,-3.5 1,-2 2.5,-2 2.5,-4 -8.5,-1.5 -18.5,-1.5 -27,0 z" />
            <path d="M 11.5,30 C 15,29 30,29 33.5,30" />
            <path d="m 12,33.5 c 6,-1 15,-1 21,0" />
            <circle cx="6" cy="12" r="2" />
            <circle cx="14" cy="9" r="2" />
            <circle cx="22.5" cy="8" r="2" />
            <circle cx="31" cy="9" r="2" />
            <circle cx="39" cy="12" r="2" />
            <path d="M 11,38.5 A 35,35 1 0 0 34,38.5"
            style="fill:none; stroke:#000000;stroke-linecap:butt;" />
            <g style="fill:none; stroke:#ffffff;">
            <path d="M 11,29 A 35,35 1 0 1 34,29" />
            <path d="M 12.5,31.5 L 32.5,31.5" />
            <path d="M 11.5,34.5 A 35,35 1 0 0 33.5,34.5" />
            <path d="M 10.5,37.5 A 35,35 1 0 0 34.5,37.5" />
            </g>
        </g>
    </defs>

    <use x="0" y="0" href="#w"/>
    <use x="20" y="0" href="#w"/>
    <use x="40" y="0" href="#w"/>
    <use x="40" y="20" href="#w"/>
    <use x="10" y="40" href="#w"/>
    <use x="30" y="40" href="#w"/>

    <use x="10" y="0" href="#b"/>
    <use x="30" y="0" href="#b"/>
    <use x="0" y="20" href="#b"/>
    <use x="0" y="40" href="#b"/>
    <use x="20" y="40" href="#b"/>
    <use x="40" y="40" href="#b"/>
  </g>
</svg>