<?xml version="1.0" encoding="utf-8"?><svg version="1.1" xmlns="http://www.w3.org/2000/svg" viewBox="24 4 272 272"><defs><radialGradient id="rg1" cx="-107.6189" cy="-90.5162" r="10" fx="-109.6206" fy="-92.5178" gradientTransform="matrix(1 0 0 1 159.5 142.5)" gradientUnits="userSpaceOnUse"><stop offset="0" stop-color="#000" /><stop offset="1" stop-color="#000" stop-opacity="0" /></radialGradient><radialGradient id="rg2" cx="-109.6189" cy="-92.5162" r="10" fx="-114.623" fy="-97.5203" gradientTransform="matrix(1 0 0 1 159.5 142.5)" gradientUnits="userSpaceOnUse"><stop offset="0" stop-color="#888888" /><stop offset="0.5" stop-color="#5B5B5B" /><stop offset="1" stop-color="#000000" /></radialGradient><radialGradient id="rg3" cx="-107.5" cy="190.5449" r="10" fx="-109.5" fy="188.55" gradientTransform="matrix(1 0 0 -1 159.5 242.5)" gradientUnits="userSpaceOnUse"><stop offset="0" stop-color="#000000" /><stop offset="1" stop-color="#000000" stop-opacity="0" /></radialGradient><radialGradient id="rg4" cx="-109.5" cy="192.55" r="10" fx="-114.5" fy="187.55" gradientTransform="matrix(0 1 1 0 -142.5 159.5)" gradientUnits="userSpaceOnUse"><stop offset="0" stop-color="#FFFFFF" /><stop offset="0.5" stop-color="#DDDDDD" /><stop offset="1" stop-color="#999999" /></radialGradient><g id="b" transform="scale(1.3) translate(-50 -50)"><path fill="url(#rg1)" d="M61.9,52c0,5.5-4.5,10-10,10s-10-4.5-10-10s4.5-10,10-10S61.9,46.5,61.9,52z" /><path fill="url(#rg2)" d="M59.9,50c0,5.5-4.5,10-10,10s-10-4.5-10-10s4.5-10,10-10S59.9,44.5,59.9,50z" /></g><g id="w" transform="scale(1.3) translate(-50 -50)"><path fill="url(#rg3)" d="M61.9,52c0,5.5-4.5,10-10,10s-10-4.5-10-10s4.5-10,10-10S61.9,46.5,61.9,52z" /><path fill="url(#rg4)" d="M59.9,50c0,5.5-4.5,10-10,10s-10-4.5-10-10s4.5-10,10-10S59.9,44.5,59.9,50z" /></g></defs><g transform="translate(39.5,20.5)"><rect fill="#FFF0C0" width="240" height="240" /><path fill="none" stroke="#000000" d="M0,0h240v240H0V0 M40,40h160v160H40V40 M80,80h80v80H80V80 M120,0v80 M240,120h-80 M120,240v-80 M0,120h80H0z" /></g><use href="#w" x="40" y="20" /><use href="#b" x="80" y="60" /><use href="#b" x="160" y="60" /><use href="#b" x="80" y="140" /><use href="#w" x="120" y="140" /><use href="#w" x="200" y="140" /><use href="#w" x="240" y="140" /><use href="#w" x="280" y="140" /><use href="#b" x="120" y="180" /><use href="#b" x="200" y="180" /><use href="#b" x="80" y="220" /><use href="#w" x="240" y="220" /><use href="#w" x="40" y="260" /><use href="#b" x="280" y="260" /><rect x="60" y="40" width="40" height="200" rx="10" ry="10" fill="none" stroke="red"/><rect x="185" y="120" width="110" height="40" rx="10" ry="10" fill="none" stroke="red"/></svg>