<svg xmlns="http://www.w3.org/2000/svg" viewBox="-30 20 420 420"><style> .t { alignment-baseline: middle; text-anchor: middle; font-family: Arial, Helvetica, sans-serif; font-size: 30px; } </style><defs><path id="b" d="M-10,0l5,-15h10l5,15z" fill="#00f" stroke="#000"/><path id="r" d="M-10,0l5,-15h10l5,15z" fill="#f00" stroke="#000"/><path id="s" d="M-25,0l10,-20h30l10,20z" fill="#ffe599" stroke="#000"/><path id="l" d="M-45,0l15,-37h60l15,37z" fill="#ffe599" stroke="#000"/></defs><use href="#b" x="50" y="100"/><text class="t" x="50" y="120">1</text><use href="#b" x="180" y="80"/><use href="#s" x="180" y="100"/><text class="t" x="180" y="120">2</text><use href="#b" x="310" y="43"/><use href="#s" x="310" y="63"/><use href="#l" x="310" y="100"/><text class="t" x="310" y="120">3</text><use href="#r" x="50" y="250"/><text class="t" x="50" y="270">4</text><use href="#r" x="180" y="230"/><use href="#s" x="180" y="250"/><text class="t" x="180" y="270">5</text><use href="#r" x="310" y="193"/><use href="#s" x="310" y="213"/><use href="#l" x="310" y="250"/><text class="t" x="310" y="270">6</text><use href="#s" x="50" y="400"/><text class="t" x="50" y="420">7</text><use href="#l" x="180" y="400"/><text class="t" x="180" y="420">8</text><use href="#s" x="310" y="363"/><use href="#l" x="310" y="400"/><text class="t" x="310" y="420">9</text></svg>